<svg width="15" height="15" viewBox="0 0 15 15" fill="none" xmlns="http://www.w3.org/2000/svg">
<path d="M6.06874 7.05631C5.95105 6.93862 5.79143 6.8725 5.62499 6.8725C5.45856 6.8725 5.29893 6.93862 5.18124 7.05631C5.06355 7.174 4.99744 7.33362 4.99744 7.50006C4.99744 7.6665 5.06355 7.82612 5.18124 7.94381L7.05624 9.81881C7.11464 9.87673 7.1839 9.92256 7.26005 9.95366C7.3362 9.98477 7.41774 10.0005 7.49999 10.0001C7.58556 9.99734 7.66965 9.97708 7.74706 9.94053C7.82446 9.90397 7.89354 9.85191 7.94999 9.78756L12.325 4.78756C12.426 4.66214 12.4747 4.50256 12.461 4.34211C12.4472 4.18165 12.372 4.0327 12.2511 3.92631C12.1302 3.81992 11.9729 3.76431 11.812 3.77106C11.6511 3.77781 11.4991 3.84641 11.3875 3.96256L7.49999 8.46256L6.06874 7.05631Z" fill="#4CA2BD"/>
<path d="M13.1251 6.875C12.9593 6.875 12.8003 6.94085 12.6831 7.05806C12.5659 7.17527 12.5001 7.33424 12.5001 7.5C12.5001 8.82608 11.9733 10.0979 11.0356 11.0355C10.0979 11.9732 8.82615 12.5 7.50007 12.5C6.51262 12.4995 5.54742 12.2067 4.72617 11.6585C3.90492 11.1102 3.26439 10.331 2.88537 9.41923C2.50634 8.50743 2.40578 7.50381 2.59637 6.53493C2.78696 5.56605 3.26017 4.6753 3.95632 3.975C4.41926 3.50586 4.97112 3.13378 5.5796 2.88051C6.18809 2.62724 6.84098 2.49788 7.50007 2.5C7.89972 2.5025 8.29791 2.54861 8.68757 2.6375C8.76911 2.66272 8.85495 2.67097 8.9398 2.66175C9.02466 2.65252 9.10672 2.62602 9.18094 2.58386C9.25516 2.54171 9.31995 2.4848 9.37133 2.41664C9.42271 2.34848 9.45958 2.27052 9.47968 2.18757C9.49978 2.10462 9.50267 2.01843 9.48818 1.93431C9.47369 1.8502 9.44213 1.76994 9.39543 1.69849C9.34874 1.62705 9.28791 1.56592 9.21668 1.51888C9.14546 1.47184 9.06536 1.43989 8.98132 1.425C8.49578 1.31078 7.99885 1.25207 7.50007 1.25C6.26528 1.25641 5.06006 1.62845 4.0365 2.31916C3.01295 3.00986 2.21692 3.98829 1.74889 5.13096C1.28086 6.27362 1.16179 7.52933 1.40671 8.7396C1.65164 9.94987 2.24957 11.0605 3.12507 11.9313C4.2855 13.0922 5.8586 13.7462 7.50007 13.75C9.15767 13.75 10.7474 13.0915 11.9195 11.9194C13.0916 10.7473 13.7501 9.1576 13.7501 7.5C13.7501 7.33424 13.6842 7.17527 13.567 7.05806C13.4498 6.94085 13.2908 6.875 13.1251 6.875Z" fill="#4CA2BD"/>
</svg>
