<svg width="44" height="45" viewBox="0 0 44 45" fill="none" xmlns="http://www.w3.org/2000/svg">
<path fill-rule="evenodd" clip-rule="evenodd" d="M22 14.7403C24.0167 14.7403 25.6667 13.082 25.6667 11.0552C25.6667 9.0284 24.0167 7.37012 22 7.37012C19.9834 7.37012 18.3334 9.0284 18.3334 11.0552C18.3334 13.082 19.9834 14.7403 22 14.7403ZM22 18.4253C19.9834 18.4253 18.3334 20.0836 18.3334 22.1104C18.3334 24.1372 19.9834 25.7955 22 25.7955C24.0167 25.7955 25.6667 24.1372 25.6667 22.1104C25.6667 20.0836 24.0167 18.4253 22 18.4253ZM22 29.4805C19.9834 29.4805 18.3334 31.1388 18.3334 33.1656C18.3334 35.1924 19.9834 36.8507 22 36.8507C24.0167 36.8507 25.6667 35.1924 25.6667 33.1656C25.6667 31.1388 24.0167 29.4805 22 29.4805Z" fill="black"/>
</svg>
