<svg width="33" height="33" viewBox="0 0 33 33" fill="none" xmlns="http://www.w3.org/2000/svg">
<path fill-rule="evenodd" clip-rule="evenodd" d="M16.4679 5.60718C16.8208 5.60718 17.1592 5.75063 17.4087 6.00598C17.6582 6.26133 17.7984 6.60766 17.7984 6.96878V15.1384H25.7815C26.1344 15.1384 26.4728 15.2819 26.7223 15.5372C26.9718 15.7926 27.112 16.1389 27.112 16.5C27.112 16.8612 26.9718 17.2075 26.7223 17.4628C26.4728 17.7182 26.1344 17.8616 25.7815 17.8616H17.7984V26.0313C17.7984 26.3924 17.6582 26.7387 17.4087 26.9941C17.1592 27.2494 16.8208 27.3929 16.4679 27.3929C16.115 27.3929 15.7766 27.2494 15.5271 26.9941C15.2776 26.7387 15.1374 26.3924 15.1374 26.0313V17.8616H7.15436C6.80149 17.8616 6.46307 17.7182 6.21355 17.4628C5.96403 17.2075 5.82385 16.8612 5.82385 16.5C5.82385 16.1389 5.96403 15.7926 6.21355 15.5372C6.46307 15.2819 6.80149 15.1384 7.15436 15.1384H15.1374V6.96878C15.1374 6.60766 15.2776 6.26133 15.5271 6.00598C15.7766 5.75063 16.115 5.60718 16.4679 5.60718V5.60718Z" fill="white"/>
</svg>
