<svg width="32" height="33" viewBox="0 0 32 33" fill="none" xmlns="http://www.w3.org/2000/svg">
<path fill-rule="evenodd" clip-rule="evenodd" d="M15.9661 5.44641C16.319 5.44641 16.6574 5.58987 16.9069 5.84522C17.1564 6.10057 17.2966 6.4469 17.2966 6.80802V14.9777H25.2796C25.6325 14.9777 25.9709 15.1211 26.2205 15.3765C26.47 15.6318 26.6102 15.9781 26.6102 16.3393C26.6102 16.7004 26.47 17.0467 26.2205 17.3021C25.9709 17.5574 25.6325 17.7009 25.2796 17.7009H17.2966V25.8705C17.2966 26.2316 17.1564 26.578 16.9069 26.8333C16.6574 27.0887 16.319 27.2321 15.9661 27.2321C15.6132 27.2321 15.2748 27.0887 15.0253 26.8333C14.7758 26.578 14.6356 26.2316 14.6356 25.8705V17.7009H6.65253C6.29966 17.7009 5.96124 17.5574 5.71172 17.3021C5.4622 17.0467 5.32202 16.7004 5.32202 16.3393C5.32202 15.9781 5.4622 15.6318 5.71172 15.3765C5.96124 15.1211 6.29966 14.9777 6.65253 14.9777H14.6356V6.80802C14.6356 6.4469 14.7758 6.10057 15.0253 5.84522C15.2748 5.58987 15.6132 5.44641 15.9661 5.44641V5.44641Z" fill="#696969"/>
</svg>
