<svg width="32" height="33" viewBox="0 0 32 33" fill="none" xmlns="http://www.w3.org/2000/svg">
<path fill-rule="evenodd" clip-rule="evenodd" d="M15.9661 5.44653C16.319 5.44653 16.6574 5.58999 16.9069 5.84534C17.1564 6.10069 17.2966 6.44702 17.2966 6.80814V14.9778H25.2796C25.6325 14.9778 25.9709 15.1212 26.2205 15.3766C26.47 15.6319 26.6102 15.9783 26.6102 16.3394C26.6102 16.7005 26.47 17.0468 26.2205 17.3022C25.9709 17.5575 25.6325 17.701 25.2796 17.701H17.2966V25.8706C17.2966 26.2318 17.1564 26.5781 16.9069 26.8334C16.6574 27.0888 16.319 27.2322 15.9661 27.2322C15.6132 27.2322 15.2748 27.0888 15.0253 26.8334C14.7758 26.5781 14.6356 26.2318 14.6356 25.8706V17.701H6.65253C6.29966 17.701 5.96124 17.5575 5.71172 17.3022C5.4622 17.0468 5.32202 16.7005 5.32202 16.3394C5.32202 15.9783 5.4622 15.6319 5.71172 15.3766C5.96124 15.1212 6.29966 14.9778 6.65253 14.9778H14.6356V6.80814C14.6356 6.44702 14.7758 6.10069 15.0253 5.84534C15.2748 5.58999 15.6132 5.44653 15.9661 5.44653V5.44653Z" fill="#052943"/>
</svg>
