<svg width="20" height="20" viewBox="0 0 20 20" fill="none" xmlns="http://www.w3.org/2000/svg">
<path d="M20 10.0001C20 10.5606 19.658 11.0238 19.2143 11.0971L19.0909 11.1072L3.1103 11.1064L8.88362 18.1084C9.23941 18.5398 9.24065 19.2408 8.88639 19.6741C8.56434 20.0679 8.05935 20.105 7.70289 19.7844L7.60074 19.6774L0.26741 10.7853C0.220512 10.7284 0.179777 10.6668 0.145205 10.6018C0.135441 10.5823 0.125501 10.5623 0.116077 10.5419C0.10741 10.5244 0.0995771 10.5062 0.0921879 10.4878C0.0819251 10.4611 0.0718977 10.4335 0.0627939 10.4053C0.0553966 10.3836 0.0492202 10.3624 0.0435864 10.3411C0.0368885 10.3147 0.030381 10.2866 0.0247834 10.258C0.0206219 10.238 0.0173261 10.2188 0.0144513 10.1996C0.0104087 10.1709 0.00696758 10.1412 0.00451231 10.1112C0.00239231 10.0882 0.00111626 10.0655 0.000410929 10.0428C0.000228626 10.0291 -5.96046e-07 10.0146 -5.96046e-07 10.0001L0.000454856 9.95726C0.0011517 9.93553 0.00237028 9.91382 0.00411234 9.89217L-5.96046e-07 10.0001C-5.96046e-07 9.93028 0.00531321 9.86193 0.0154755 9.79566C0.0178322 9.77983 0.0206405 9.76358 0.0237499 9.7474C0.0302078 9.71407 0.0376706 9.68198 0.0462636 9.65052C0.0504813 9.63489 0.0553946 9.61818 0.0606462 9.6016C0.0712697 9.56829 0.0828165 9.53654 0.0955194 9.5056C0.101421 9.49106 0.10803 9.47583 0.114951 9.46076C0.126312 9.43617 0.138015 9.4128 0.150391 9.39003C0.159122 9.37391 0.168791 9.35713 0.178888 9.34061L0.186755 9.32785C0.211248 9.28889 0.237818 9.25196 0.266265 9.21731L0.267357 9.21629L7.60069 0.322641C7.95645 -0.10881 8.53205 -0.107358 8.88634 0.325882C9.20841 0.719738 9.23671 1.33486 8.97191 1.7676L8.88367 1.89154L3.11273 8.89217L19.0909 8.89305C19.593 8.89305 20 9.38872 20 10.0001Z" fill="black"/>
</svg>
