<svg width="430" height="531" viewBox="0 0 430 531" fill="none" xmlns="http://www.w3.org/2000/svg">
<g filter="url(#filter0_f_20_177)">
<path d="M159.009 -24.235C213.515 -83.8488 274.996 -79.9607 402.989 -35.8981C511.07 1.30953 545.303 49.4022 560.018 140.351C571.407 210.744 549.095 255.768 511.515 316.399C406.526 485.787 128.688 267.936 0.115918 355.621C-5.21684 359.258 -7.88322 361.076 -10.0237 362.182C-12.1642 363.288 -13.0809 363.628 -14.9142 364.308C-82.0727 389.225 -145.168 308.455 -178.557 216.256C-213.269 120.4 -135.588 -22.1252 -43.4419 -35.8982C48.7046 -49.6712 18.7119 129.21 159.009 -24.235Z" fill="url(#paint0_angular_20_177)" fill-opacity="0.8"/>
</g>
<defs>
<filter id="filter0_f_20_177" x="-335" y="-217" width="1046" height="748" filterUnits="userSpaceOnUse" color-interpolation-filters="sRGB">
<feFlood flood-opacity="0" result="BackgroundImageFix"/>
<feBlend mode="normal" in="SourceGraphic" in2="BackgroundImageFix" result="shape"/>
<feGaussianBlur stdDeviation="74" result="effect1_foregroundBlur_20_177"/>
</filter>
<radialGradient id="paint0_angular_20_177" cx="0" cy="0" r="1" gradientUnits="userSpaceOnUse" gradientTransform="translate(208.406 70.531) rotate(30.7275) scale(91.1493 134.595)">
<stop offset="0.0846014" stop-color="#6284FF"/>
<stop offset="0.142837" stop-color="#FF72B6"/>
<stop offset="0.26305" stop-color="#F9E5E8"/>
<stop offset="0.469886" stop-color="#97E1D4"/>
</radialGradient>
</defs>
</svg>
