<svg width="21" height="25" viewBox="0 0 21 25" fill="none" xmlns="http://www.w3.org/2000/svg">
<path fill-rule="evenodd" clip-rule="evenodd" d="M1.2508 14.4466V14.208C1.28607 13.5007 1.50787 12.8164 1.89264 12.2277C2.53197 11.5211 2.97131 10.6498 3.16354 9.70711C3.16354 8.98164 3.16354 8.24529 3.22527 7.51873C3.54353 4.02321 6.92089 1.60718 10.2557 1.60718H10.3387C13.6735 1.60718 17.0509 4.02321 17.3819 7.51873C17.4436 8.24529 17.3819 8.98164 17.433 9.70711C17.6275 10.6516 18.066 11.5254 18.7028 12.2375C19.0913 12.8236 19.3127 13.5054 19.3436 14.2091V14.4368C19.367 15.3845 19.0477 16.3093 18.4452 17.0402C17.6426 17.8971 16.5638 18.4273 15.4085 18.5325C12.0077 18.9061 8.57605 18.9061 5.17527 18.5325C4.02123 18.4226 2.94387 17.8932 2.13851 17.0402C1.54718 16.3136 1.23196 15.3931 1.2508 14.4477V14.4466Z" stroke="#061428" stroke-width="1.5" stroke-linecap="round" stroke-linejoin="round"/>
<path d="M7.6958 22.1423C8.2355 22.8261 9.01531 23.2666 9.86833 23.3694C10.7214 23.4722 11.5798 23.2292 12.26 22.6924C12.4686 22.5334 12.6559 22.3482 12.8177 22.1423" stroke="#061428" stroke-width="1.5" stroke-linecap="round" stroke-linejoin="round"/>
</svg>
