<svg width="314" height="62" viewBox="0 0 314 62" fill="none" xmlns="http://www.w3.org/2000/svg">
<g opacity="0.5">
<path fill-rule="evenodd" clip-rule="evenodd" d="M227.251 32.4466V32.208C227.286 31.5007 227.508 30.8164 227.893 30.2277C228.532 29.5211 228.971 28.6498 229.164 27.7071C229.164 26.9816 229.164 26.2453 229.225 25.5187C229.544 22.0232 232.921 19.6072 236.256 19.6072H236.339C239.674 19.6072 243.051 22.0232 243.382 25.5187C243.444 26.2453 243.382 26.9816 243.433 27.7071C243.628 28.6516 244.066 29.5254 244.703 30.2375C245.091 30.8236 245.313 31.5054 245.344 32.2091V32.4368C245.367 33.3845 245.048 34.3093 244.445 35.0402C243.643 35.8971 242.564 36.4273 241.409 36.5325C238.008 36.9061 234.576 36.9061 231.175 36.5325C230.021 36.4226 228.944 35.8932 228.139 35.0402C227.547 34.3136 227.232 33.3931 227.251 32.4477V32.4466Z" stroke="#061428" stroke-width="1.5" stroke-linecap="round" stroke-linejoin="round"/>
<path d="M233.696 40.1423C234.236 40.8261 235.015 41.2666 235.868 41.3694C236.721 41.4722 237.58 41.2292 238.26 40.6924C238.469 40.5334 238.656 40.3482 238.818 40.1423" stroke="#061428" stroke-width="1.5" stroke-linecap="round" stroke-linejoin="round"/>
</g>
<g opacity="0.5">
<path d="M300.779 30.5611C303.588 30.5611 305.865 28.2309 305.865 25.3565C305.865 22.482 303.588 20.1519 300.779 20.1519C297.97 20.1519 295.693 22.482 295.693 25.3565C295.693 28.2309 297.97 30.5611 300.779 30.5611Z" stroke="#061428" stroke-width="1.5" stroke-linecap="round" stroke-linejoin="round"/>
<path fill-rule="evenodd" clip-rule="evenodd" d="M292.712 37.7993C292.711 37.4335 292.791 37.0722 292.946 36.7427C293.432 35.746 294.807 35.2177 295.947 34.9781C296.769 34.7984 297.602 34.6783 298.44 34.6186C299.993 34.479 301.555 34.479 303.108 34.6186C303.946 34.6796 304.779 34.7994 305.602 34.9781C306.741 35.2177 308.115 35.6959 308.603 36.7427C308.758 37.0745 308.838 37.4374 308.838 37.8048C308.838 38.1722 308.758 38.535 308.603 38.8668C308.115 39.9125 306.741 40.3918 305.602 40.6206C304.78 40.8079 303.947 40.9321 303.108 40.9909C301.843 41.0999 300.575 41.1195 299.308 41.0498C299.015 41.0498 298.733 41.0498 298.44 40.9899C297.604 40.9322 296.774 40.8091 295.956 40.6217C294.807 40.3929 293.443 39.9136 292.946 38.8668C292.791 38.5329 292.711 38.1678 292.712 37.7982V37.7993Z" stroke="#061428" stroke-width="1.5" stroke-linecap="round" stroke-linejoin="round"/>
</g>
<ellipse cx="237.129" cy="59.1786" rx="2.12881" ry="2.17857" fill="#AB8DE5"/>
<ellipse cx="156.468" cy="30.5" rx="29.8034" ry="30.5" fill="#061428"/>
<path fill-rule="evenodd" clip-rule="evenodd" d="M156.468 19.6072C156.821 19.6072 157.159 19.7506 157.409 20.006C157.658 20.2613 157.798 20.6077 157.798 20.9688V29.1384H165.781C166.134 29.1384 166.473 29.2819 166.722 29.5372C166.972 29.7926 167.112 30.1389 167.112 30.5C167.112 30.8612 166.972 31.2075 166.722 31.4628C166.473 31.7182 166.134 31.8616 165.781 31.8616H157.798V40.0313C157.798 40.3924 157.658 40.7387 157.409 40.9941C157.159 41.2494 156.821 41.3929 156.468 41.3929C156.115 41.3929 155.777 41.2494 155.527 40.9941C155.278 40.7387 155.137 40.3924 155.137 40.0313V31.8616H147.154C146.801 31.8616 146.463 31.7182 146.214 31.4628C145.964 31.2075 145.824 30.8612 145.824 30.5C145.824 30.1389 145.964 29.7926 146.214 29.5372C146.463 29.2819 146.801 29.1384 147.154 29.1384H155.137V20.9688C155.137 20.6077 155.278 20.2613 155.527 20.006C155.777 19.7506 156.115 19.6072 156.468 19.6072V19.6072Z" fill="white"/>
<g clip-path="url(#clip0_20_259)">
<path d="M23 40.0001H16.999C16.7338 40.0001 16.4794 39.8947 16.2919 39.7072C16.1044 39.5196 15.999 39.2653 15.999 39.0001V33.5451C16.0063 33.1469 15.9341 32.7514 15.7868 32.3814C15.6395 32.0115 15.4199 31.6747 15.141 31.3906C14.862 31.1064 14.5292 30.8808 14.162 30.7267C13.7949 30.5727 13.4007 30.4933 13.0025 30.4933C12.6043 30.4933 12.2101 30.5727 11.843 30.7267C11.4758 30.8808 11.143 31.1064 10.864 31.3906C10.5851 31.6747 10.3655 32.0115 10.2182 32.3814C10.0709 32.7514 9.99873 33.1469 10.006 33.5451V39.0001C10.006 39.2653 9.90064 39.5196 9.71311 39.7072C9.52557 39.8947 9.27122 40.0001 9.006 40.0001H3C2.73478 40.0001 2.48043 39.8947 2.29289 39.7072C2.10536 39.5196 2 39.2653 2 39.0001V28.5431C2.00009 28.4077 2.02761 28.2738 2.08088 28.1493C2.13416 28.0249 2.2121 27.9125 2.31 27.8191L12.31 18.2761C12.4961 18.099 12.7431 18.0002 13 18.0002C13.2569 18.0002 13.5039 18.099 13.69 18.2761L23.69 27.8191C23.7879 27.9125 23.8658 28.0249 23.9191 28.1493C23.9724 28.2738 23.9999 28.4077 24 28.5431V39.0001C24 39.2653 23.8946 39.5196 23.7071 39.7072C23.5196 39.8947 23.2652 40.0001 23 40.0001Z" fill="#262626"/>
</g>
<defs>
<clipPath id="clip0_20_259">
<rect width="25.5458" height="26.1429" fill="white" transform="translate(0 17.4286)"/>
</clipPath>
</defs>
</svg>
