<svg width="288" height="82" viewBox="0 0 288 82" fill="none" xmlns="http://www.w3.org/2000/svg">
<path d="M302.126 45.5356L299.23 44.404C246.627 23.8533 187.204 31.2655 141.262 64.1081V64.1081C90.5773 100.341 21.8058 97.7196 -25.9736 57.7339L-31.0202 53.5105" stroke="white" stroke-opacity="0.05" stroke-width="1.5" stroke-linecap="round"/>
<path d="M302.126 76.3157V76.3157C278.183 93.7802 246.299 95.8215 220.323 81.553L167.698 52.6452C116.051 24.2749 52.1588 31.3389 7.95666 70.3064L-32 105.531" stroke="white" stroke-opacity="0.05" stroke-width="1.5" stroke-linecap="round"/>
<path d="M256.16 14.5897L235.614 45.3213C227.027 58.166 214.877 68.2247 200.656 74.2634V74.2634C153.522 94.2771 99.7704 91.2962 55.1385 66.1933L50.4078 63.5326C46.7643 61.4833 43.2972 59.135 40.0423 56.5119L-28.8403 1" stroke="white" stroke-opacity="0.05" stroke-width="1.5" stroke-linecap="round"/>
</svg>
