<svg width="19" height="23" viewBox="0 0 19 23" fill="none" xmlns="http://www.w3.org/2000/svg">
<path d="M9.77897 11.5611C12.5877 11.5611 14.8647 9.23089 14.8647 6.35646C14.8647 3.48204 12.5877 1.15186 9.77897 1.15186C6.9702 1.15186 4.69324 3.48204 4.69324 6.35646C4.69324 9.23089 6.9702 11.5611 9.77897 11.5611Z" stroke="#061428" stroke-width="1.5" stroke-linecap="round" stroke-linejoin="round"/>
<path fill-rule="evenodd" clip-rule="evenodd" d="M1.71181 18.7993C1.71058 18.4335 1.79066 18.0722 1.94598 17.7427C2.43241 16.746 3.80656 16.2177 4.94654 15.9781C5.76854 15.7984 6.60191 15.6783 7.44044 15.6186C8.99326 15.479 10.555 15.479 12.1079 15.6186C12.9456 15.6796 13.779 15.7994 14.6018 15.9781C15.7407 16.2177 17.1148 16.6959 17.6034 17.7427C17.7576 18.0745 17.8376 18.4374 17.8376 18.8048C17.8376 19.1722 17.7576 19.535 17.6034 19.8668C17.1148 20.9125 15.7407 21.3918 14.6018 21.6206C13.78 21.8079 12.9466 21.9321 12.1079 21.9909C10.8434 22.0999 9.57458 22.1195 8.30793 22.0498C8.01522 22.0498 7.73315 22.0498 7.44044 21.9899C6.60437 21.9322 5.77383 21.8091 4.95612 21.6217C3.80656 21.3929 2.44305 20.9136 1.94598 19.8668C1.7912 19.5329 1.7112 19.1678 1.71181 18.7982V18.7993Z" stroke="#061428" stroke-width="1.5" stroke-linecap="round" stroke-linejoin="round"/>
</svg>
