<svg width="19" height="23" viewBox="0 0 19 23" fill="none" xmlns="http://www.w3.org/2000/svg">
<path d="M9.77899 11.5611C12.5878 11.5611 14.8647 9.23089 14.8647 6.35646C14.8647 3.48204 12.5878 1.15186 9.77899 1.15186C6.97021 1.15186 4.69325 3.48204 4.69325 6.35646C4.69325 9.23089 6.97021 11.5611 9.77899 11.5611Z" stroke="#061428" stroke-width="1.5" stroke-linecap="round" stroke-linejoin="round"/>
<path fill-rule="evenodd" clip-rule="evenodd" d="M1.71185 18.7993C1.71062 18.4335 1.7907 18.0722 1.94602 17.7427C2.43245 16.746 3.8066 16.2177 4.94658 15.9781C5.76858 15.7984 6.60196 15.6783 7.44048 15.6186C8.9933 15.479 10.5551 15.479 12.1079 15.6186C12.9456 15.6796 13.779 15.7994 14.6018 15.9781C15.7407 16.2177 17.1149 16.6959 17.6034 17.7427C17.7577 18.0745 17.8377 18.4374 17.8377 18.8048C17.8377 19.1722 17.7577 19.535 17.6034 19.8668C17.1149 20.9125 15.7407 21.3918 14.6018 21.6206C13.7801 21.8079 12.9467 21.9321 12.1079 21.9909C10.8434 22.0999 9.57462 22.1195 8.30798 22.0498C8.01526 22.0498 7.7332 22.0498 7.44048 21.9899C6.60441 21.9322 5.77387 21.8091 4.95616 21.6217C3.8066 21.3929 2.4431 20.9136 1.94602 19.8668C1.79124 19.5329 1.71124 19.1678 1.71185 18.7982V18.7993Z" stroke="#061428" stroke-width="1.5" stroke-linecap="round" stroke-linejoin="round"/>
</svg>
