<svg width="304" height="101" viewBox="0 0 304 101" fill="none" xmlns="http://www.w3.org/2000/svg">
<path d="M310.126 45.5356L307.23 44.404C254.627 23.8533 195.204 31.2655 149.262 64.1081V64.1081C98.5773 100.341 29.8058 97.7196 -17.9736 57.7339L-23.0202 53.5105" stroke="white" stroke-opacity="0.05" stroke-width="1.5" stroke-linecap="round"/>
<path d="M310.126 76.3157V76.3157C286.183 93.7802 254.299 95.8215 228.323 81.553L175.698 52.6452C124.051 24.2749 60.1588 31.3389 15.9567 70.3064L-24 105.531" stroke="white" stroke-opacity="0.05" stroke-width="1.5" stroke-linecap="round"/>
<path d="M264.16 14.5897L243.614 45.3213C235.027 58.166 222.877 68.2247 208.656 74.2634V74.2634C161.522 94.2771 107.77 91.2962 63.1386 66.1933L58.4078 63.5326C54.7643 61.4833 51.2972 59.135 48.0423 56.5119L-20.8403 1" stroke="white" stroke-opacity="0.05" stroke-width="1.5" stroke-linecap="round"/>
</svg>
