<svg width="16" height="17" viewBox="0 0 16 17" fill="none" xmlns="http://www.w3.org/2000/svg">
<path fill-rule="evenodd" clip-rule="evenodd" d="M7.33331 11.1668H3.33331C3.216 11.1668 3.10077 11.1359 2.99924 11.0771C2.89771 11.0184 2.81347 10.9339 2.75504 10.8322C2.69661 10.7305 2.66605 10.6151 2.66645 10.4978C2.66684 10.3805 2.69819 10.2654 2.75731 10.1641L7.42397 2.16408C7.76664 1.57608 8.66664 1.82008 8.66664 2.50008V5.83342H12.6666C12.7839 5.83338 12.8992 5.8643 13.0007 5.92305C13.1022 5.98179 13.1865 6.06629 13.2449 6.168C13.3033 6.26972 13.3339 6.38505 13.3335 6.50235C13.3331 6.61965 13.3018 6.73477 13.2426 6.83608L8.57597 14.8361C8.23331 15.4234 7.33331 15.1801 7.33331 14.5001V11.1668ZM7.33331 4.96608L4.49397 9.83342H7.99997C8.17679 9.83342 8.34635 9.90366 8.47138 10.0287C8.5964 10.1537 8.66664 10.3233 8.66664 10.5001V12.0341L11.506 7.16675H7.99997C7.82316 7.16675 7.65359 7.09651 7.52857 6.97149C7.40355 6.84646 7.33331 6.6769 7.33331 6.50008V4.96608Z" fill="#7042C9"/>
</svg>
