<svg width="16" height="17" viewBox="0 0 16 17" fill="none" xmlns="http://www.w3.org/2000/svg">
<path fill-rule="evenodd" clip-rule="evenodd" d="M5.51471 3.80189C4.76413 3.79767 4.04067 4.08219 3.49404 4.59655C2.96071 5.10455 2.66671 5.77855 2.66671 6.49455C2.66671 7.20989 2.96071 7.88389 3.49404 8.39189L8.00004 12.6799L12.506 8.39189C13.0394 7.88389 13.3334 7.20989 13.3334 6.49455C13.3324 6.13845 13.2585 5.78632 13.1162 5.45988C12.9739 5.13345 12.7663 4.83963 12.506 4.59655C11.392 3.53655 9.57871 3.53655 8.46471 4.59655L8.00004 5.03922L7.53537 4.59655C6.98874 4.08219 6.26528 3.79767 5.51471 3.80189V3.80189ZM8.00004 14.4999L2.56471 9.32655C1.77071 8.57255 1.33337 7.56655 1.33337 6.49522C1.33337 5.42389 1.77071 4.41789 2.56471 3.66189C4.04471 2.25255 6.36804 2.12588 8.00004 3.27922C9.63204 2.12588 11.9554 2.25255 13.4354 3.66122C14.2294 4.41722 14.6667 5.42322 14.6667 6.49455C14.6667 7.56589 14.2294 8.57189 13.4354 9.32722L8.00004 14.4999Z" fill="#D2416E"/>
</svg>
