<svg width="16" height="17" viewBox="0 0 16 17" fill="none" xmlns="http://www.w3.org/2000/svg">
<path fill-rule="evenodd" clip-rule="evenodd" d="M2.00004 1.83325H7.33337C8.20404 1.83325 8.94537 2.38992 9.22004 3.16659H12.6667C13.1768 3.16656 13.6677 3.36147 14.0389 3.71144C14.41 4.06141 14.6334 4.53999 14.6634 5.04925L14.6667 5.16659V10.4999C14.6667 11.0101 14.4718 11.5009 14.1219 11.8721C13.7719 12.2433 13.2933 12.4667 12.784 12.4966L12.6667 12.4999H10C9.58641 12.4999 9.18295 12.3717 8.8452 12.1329C8.50745 11.8941 8.25201 11.5565 8.11404 11.1666H2.66671V14.4999C2.66671 14.6767 2.59647 14.8463 2.47145 14.9713C2.34642 15.0963 2.17685 15.1666 2.00004 15.1666C1.82323 15.1666 1.65366 15.0963 1.52864 14.9713C1.40361 14.8463 1.33337 14.6767 1.33337 14.4999V2.49992C1.33337 2.32311 1.40361 2.15354 1.52864 2.02851C1.65366 1.90349 1.82323 1.83325 2.00004 1.83325V1.83325ZM9.33337 4.49992V10.4999C9.3334 10.6632 9.39334 10.8208 9.50185 10.9428C9.61036 11.0649 9.75987 11.1428 9.92204 11.1619L10 11.1666H12.6667C12.83 11.1666 12.9876 11.1066 13.1096 10.9981C13.2316 10.8896 13.3096 10.7401 13.3287 10.5779L13.3334 10.4999V5.16659C13.3334 5.0033 13.2734 4.84569 13.1649 4.72367C13.0564 4.60165 12.9069 4.52369 12.7447 4.50459L12.6667 4.49992H9.33337ZM7.33337 3.16659H2.66671V9.83325H8.00004V3.83325C8.00002 3.66996 7.94007 3.51236 7.83156 3.39034C7.72306 3.26831 7.57354 3.19036 7.41137 3.17125L7.33337 3.16659Z" fill="#0DB1AD"/>
</svg>
