<svg width="30" height="30" viewBox="0 0 30 30" fill="none" xmlns="http://www.w3.org/2000/svg">
<path fill-rule="evenodd" clip-rule="evenodd" d="M11.8155 18.878L11.9942 18.878L12.3901 18.8791C15.753 18.8973 23.631 19.2061 23.631 24.4568C23.631 29.3249 17.1609 29.9755 12.1281 30L11.2409 29.9996C7.87798 29.9815 0 29.6727 0 24.4234C0 19.4524 6.7425 18.878 11.8155 18.878ZM11.8155 21.1513C5.469 21.1513 2.25 22.2531 2.25 24.4234C2.25 26.615 5.469 27.7274 11.8155 27.7274C18.162 27.7274 21.381 26.6256 21.381 24.4568C21.381 22.2622 18.162 21.1513 11.8155 21.1513ZM25.8061 8.97022C26.4271 8.97022 26.9311 9.47945 26.9311 10.1069L26.931 12.0079L28.875 12.0091C29.496 12.0091 30 12.5183 30 13.1458C30 13.7732 29.496 14.2824 28.875 14.2824L26.931 14.2812L26.9311 16.1859C26.9311 16.8133 26.4271 17.3225 25.8061 17.3225C25.1851 17.3225 24.6811 16.8133 24.6811 16.1859L24.681 14.2812L22.74 14.2824C22.119 14.2824 21.615 13.7732 21.615 13.1458C21.615 12.5183 22.119 12.0091 22.74 12.0091L24.681 12.0079L24.6811 10.1069C24.6811 9.47945 25.1851 8.97022 25.8061 8.97022ZM11.8155 0C16.215 0 19.7925 3.61616 19.7925 8.05981C19.7925 12.5035 16.215 16.1196 11.8155 16.1196H11.769C9.6405 16.112 7.6455 15.2679 6.15 13.7462C4.653 12.2231 3.8325 10.2013 3.83995 8.05527C3.83995 3.61616 7.4175 0 11.8155 0ZM11.8155 2.27336C8.6595 2.27336 6.08995 4.86953 6.08995 8.05981C6.084 9.60418 6.672 11.0516 7.7445 12.1443C8.8185 13.2355 10.2495 13.8402 11.7735 13.8463L11.8155 14.9693V13.8463C14.973 13.8463 17.5425 11.2501 17.5425 8.05981C17.5425 4.86953 14.973 2.27336 11.8155 2.27336Z" fill="#696969"/>
</svg>
