<svg width="21" height="25" viewBox="0 0 21 25" fill="none" xmlns="http://www.w3.org/2000/svg">
<path fill-rule="evenodd" clip-rule="evenodd" d="M1.25084 14.4466V14.208C1.28612 13.5007 1.50792 12.8164 1.89268 12.2277C2.53202 11.5211 2.97136 10.6498 3.16358 9.70711C3.16358 8.98164 3.16358 8.24529 3.22532 7.51873C3.54358 4.02321 6.92094 1.60718 10.2557 1.60718H10.3387C13.6735 1.60718 17.0509 4.02321 17.3819 7.51873C17.4437 8.24529 17.3819 8.98164 17.433 9.70711C17.6276 10.6516 18.0661 11.5254 18.7029 12.2375C19.0914 12.8236 19.3128 13.5054 19.3436 14.2091V14.4368C19.367 15.3845 19.0477 16.3093 18.4453 17.0402C17.6427 17.8971 16.5638 18.4273 15.4085 18.5325C12.0077 18.9061 8.57609 18.9061 5.17531 18.5325C4.02128 18.4226 2.94392 17.8932 2.13856 17.0402C1.54723 16.3136 1.23201 15.3931 1.25084 14.4477V14.4466Z" stroke="#061428" stroke-width="1.5" stroke-linecap="round" stroke-linejoin="round"/>
<path d="M7.69583 22.1423C8.23553 22.8261 9.01534 23.2666 9.86836 23.3694C10.7214 23.4722 11.5798 23.2292 12.26 22.6924C12.4686 22.5334 12.656 22.3482 12.8178 22.1423" stroke="#061428" stroke-width="1.5" stroke-linecap="round" stroke-linejoin="round"/>
</svg>
