<svg width="30" height="30" viewBox="0 0 30 30" fill="none" xmlns="http://www.w3.org/2000/svg">
<path fill-rule="evenodd" clip-rule="evenodd" d="M15.972 0C17.0858 0 18.1685 0.425655 18.9448 1.16548C19.7195 1.90966 20.1473 2.93036 20.1146 3.96554C20.1177 4.19864 20.2002 4.46793 20.3495 4.70392C20.5968 5.09483 20.9873 5.36991 21.4509 5.48284C21.9145 5.58998 22.3998 5.53207 22.812 5.30476C24.8032 4.24642 27.3373 4.88056 28.4745 6.71927L29.4436 8.28145C29.4685 8.32344 29.4903 8.36398 29.509 8.40596C30.5388 10.2172 29.8512 12.4975 27.9378 13.5384C27.6593 13.6876 27.4338 13.896 27.2782 14.148C27.0371 14.5374 26.9702 15.0007 27.0915 15.4264C27.216 15.8607 27.5131 16.2212 27.9316 16.4442C28.8758 16.9495 29.5805 17.8008 29.8621 18.7838C30.1437 19.7655 29.9897 20.831 29.4405 21.7099L28.4076 23.3111C27.2704 25.1296 24.7363 25.7594 22.7654 24.6996C22.5025 24.5591 22.1991 24.4824 21.8973 24.4752H21.888C21.4384 24.4752 20.9764 24.6532 20.6404 24.9645C20.2997 25.2816 20.1131 25.7044 20.1162 26.1532C20.1053 28.28 18.2463 30 15.972 30H14.0228C11.7376 30 9.87866 28.2713 9.87866 26.1445C9.87555 25.8824 9.79465 25.6103 9.64376 25.3743C9.39953 24.9776 9.0044 24.6938 8.54861 24.5809C8.09592 24.4679 7.59968 24.5302 7.19211 24.7503C6.21518 25.257 5.06558 25.38 4.01399 25.105C2.96395 24.8284 2.05702 24.1567 1.525 23.2662L0.552741 21.707C-0.584414 19.8711 0.0922787 17.5185 2.06169 16.4587C2.62015 16.159 2.96706 15.6001 2.96706 15.0007C2.96706 14.4013 2.62015 13.841 2.06169 13.5413C0.0907232 12.4757 -0.584414 10.1173 0.551185 8.28145L1.60589 6.67004C2.72749 4.8545 5.26315 4.21456 7.24033 5.27146C7.50945 5.42059 7.80191 5.49587 8.09903 5.49877C9.06818 5.49877 9.87866 4.7546 9.89421 3.83958C9.88799 2.83046 10.3158 1.86188 11.0951 1.13074C11.8776 0.401042 12.9168 0 14.0228 0H15.972ZM15.972 2.17171H14.0228C13.5406 2.17171 13.0894 2.34689 12.7488 2.66252C12.4096 2.97959 12.2245 3.4009 12.2276 3.84972C12.195 5.96641 10.336 7.67048 8.08503 7.67048C7.36323 7.66324 6.66787 7.48226 6.06429 7.14637C5.21648 6.69755 4.10888 6.97408 3.61264 7.77762L2.55949 9.38902C2.07724 10.1679 2.37281 11.1973 3.23151 11.6621C4.50556 12.3483 5.30048 13.6282 5.30048 15.0007C5.30048 16.3732 4.50556 17.6517 3.2284 18.3394C2.37437 18.7998 2.0788 19.8234 2.57349 20.6197L3.55508 22.1949C3.79776 22.6017 4.19444 22.8956 4.65334 23.0158C5.11069 23.1345 5.61471 23.0838 6.03473 22.8667C6.65231 22.5293 7.371 22.3541 8.09281 22.3541C8.44905 22.3541 8.80528 22.3961 9.15374 22.483C10.2053 22.7465 11.1185 23.4009 11.6598 24.2797C12.0114 24.8313 12.2059 25.4756 12.2121 26.1329C12.2121 27.074 13.0241 27.8283 14.0228 27.8283H15.972C16.966 27.8283 17.7781 27.0783 17.7827 26.1532C17.7765 25.131 18.2059 24.1595 18.9915 23.4284C19.7662 22.7074 20.8489 22.2745 21.9316 22.3035C22.6409 22.3194 23.3238 22.4975 23.9259 22.816C24.7923 23.2778 25.8984 23.0027 26.3993 22.2065L27.4322 20.6037C27.6625 20.2345 27.7293 19.7712 27.6065 19.3441C27.4851 18.917 27.1802 18.5464 26.7695 18.3278C25.8082 17.8124 25.1221 16.9813 24.8375 15.9852C24.5559 15.008 24.7099 13.9409 25.259 13.0621C25.6168 12.483 26.1411 11.9951 26.7695 11.6592C27.6127 11.2002 27.9082 10.1737 27.4182 9.37455C27.398 9.3427 27.3793 9.3094 27.3638 9.27465L26.4522 7.80368C25.9559 7.00014 24.8515 6.72361 23.985 7.18257C23.0485 7.69799 21.9347 7.84566 20.8644 7.58361C19.7957 7.3259 18.8997 6.6961 18.3412 5.80715C17.9834 5.25119 17.789 4.60402 17.7827 3.94527C17.7967 3.45012 17.6101 3.00565 17.2709 2.67989C16.9334 2.35558 16.4589 2.17171 15.972 2.17171ZM15.0043 10.0971C17.9086 10.0971 20.2716 12.2978 20.2716 15.0009C20.2716 17.7039 17.9086 19.9017 15.0043 19.9017C12.0999 19.9017 9.73694 17.7039 9.73694 15.0009C9.73694 12.2978 12.0999 10.0971 15.0043 10.0971ZM15.0043 12.2689C13.3864 12.2689 12.0704 13.4951 12.0704 15.0009C12.0704 16.5066 13.3864 17.73 15.0043 17.73C16.6221 17.73 17.9381 16.5066 17.9381 15.0009C17.9381 13.4951 16.6221 12.2689 15.0043 12.2689Z" fill="#696969"/>
</svg>
