<svg width="25" height="25" viewBox="0 0 25 25" fill="none" xmlns="http://www.w3.org/2000/svg">
<path fill-rule="evenodd" clip-rule="evenodd" d="M17.9175 0C22.1537 0 25 2.9725 25 7.395V17.605C25 22.0275 22.1538 25 17.9163 25H7.08125C2.845 25 0 22.0275 0 17.605V7.395C0 2.9725 2.845 0 7.08125 0H17.9175ZM17.9175 1.875H7.08125C3.91875 1.875 1.875 4.04125 1.875 7.395V17.605C1.875 20.9587 3.91875 23.125 7.08125 23.125H17.9163C21.08 23.125 23.125 20.9587 23.125 17.605V7.395C23.125 4.04125 21.08 1.875 17.9175 1.875ZM17.4353 11.2671C18.1265 11.2671 18.6853 11.8259 18.6853 12.5171C18.6853 13.2084 18.1265 13.7671 17.4353 13.7671C16.744 13.7671 16.179 13.2084 16.179 12.5171C16.179 11.8259 16.7328 11.2671 17.4227 11.2671H17.4353ZM12.4231 11.2671C13.1144 11.2671 13.6731 11.8259 13.6731 12.5171C13.6731 13.2084 13.1144 13.7671 12.4231 13.7671C11.7319 13.7671 11.1681 13.2084 11.1681 12.5171C11.1681 11.8259 11.7206 11.2671 12.4119 11.2671H12.4231ZM7.41212 11.2671C8.10337 11.2671 8.66212 11.8259 8.66212 12.5171C8.66212 13.2084 8.10337 13.7671 7.41212 13.7671C6.72087 13.7671 6.15587 13.2084 6.15587 12.5171C6.15587 11.8259 6.70963 11.2671 7.40088 11.2671H7.41212Z" fill="#8D8D8D"/>
</svg>
