<svg width="25" height="31" viewBox="0 0 25 31" fill="none" xmlns="http://www.w3.org/2000/svg">
<path fill-rule="evenodd" clip-rule="evenodd" d="M23.9286 12.5727C24.5214 12.5727 25 13.0527 25 13.6441C25 20.2044 19.9648 25.605 13.5719 26.1527L13.5714 29.6429C13.5714 30.2343 13.0914 30.7143 12.5 30.7143C11.9086 30.7143 11.4286 30.2343 11.4286 29.6429L11.4296 26.1528C5.03591 25.6058 0 20.2049 0 13.6441C0 13.0527 0.48 12.5727 1.07143 12.5727C1.66429 12.5727 2.14286 13.0527 2.14286 13.6441C2.14286 19.3841 6.78857 24.0556 12.5 24.0556C18.2114 24.0556 22.8571 19.3841 22.8571 13.6441C22.8571 13.0527 23.3371 12.5727 23.9286 12.5727ZM12.5 0C16.29 0 19.3743 3.09571 19.3743 6.90143V13.5986C19.3743 17.4029 16.29 20.4986 12.5 20.4986C8.71 20.4986 5.62571 17.4029 5.62571 13.5986V6.90143C5.62571 3.09571 8.71 0 12.5 0ZM12.5 2.14286C9.89143 2.14286 7.76857 4.27714 7.76857 6.90143V13.5986C7.76857 16.22 9.89143 18.3557 12.5 18.3557C15.1086 18.3557 17.2314 16.22 17.2314 13.5986V6.90143C17.2314 4.27714 15.1086 2.14286 12.5 2.14286Z" fill="#8D8D8D"/>
</svg>
