<svg width="34" height="34" viewBox="0 0 34 34" fill="none" xmlns="http://www.w3.org/2000/svg">
<path fill-rule="evenodd" clip-rule="evenodd" d="M28.1194 23.2277C29.1536 21.386 29.75 19.2638 29.75 17C29.75 9.95775 24.0422 4.25 17 4.25C9.95775 4.25 4.25 9.95775 4.25 17C4.25 24.0422 9.95775 29.75 17 29.75C19.2638 29.75 21.386 29.1536 23.2277 28.1194L29.75 29.75L28.1194 23.2277Z" stroke="#696969" stroke-width="1.5" stroke-linecap="round" stroke-linejoin="round"/>
<path d="M16.7493 17.4576C16.8881 17.3188 17.112 17.3188 17.2508 17.4576C17.3896 17.5964 17.3896 17.8203 17.2508 17.9591C17.112 18.0979 16.8881 18.0979 16.7493 17.9591C16.6119 17.8203 16.6119 17.5964 16.7493 17.4576" stroke="#696969" stroke-width="1.5" stroke-linecap="round" stroke-linejoin="round"/>
<path d="M11.0825 17.4576C11.2214 17.3188 11.4452 17.3188 11.584 17.4576C11.7229 17.5964 11.7229 17.8203 11.584 17.9591C11.4452 18.0979 11.2214 18.0979 11.0825 17.9591C10.9451 17.8203 10.9451 17.5964 11.0825 17.4576" stroke="#696969" stroke-width="1.5" stroke-linecap="round" stroke-linejoin="round"/>
<path d="M22.4159 17.4576C22.5547 17.3188 22.7786 17.3188 22.9174 17.4576C23.0562 17.5964 23.0562 17.8203 22.9174 17.9591C22.7786 18.0979 22.5547 18.0979 22.4159 17.9591C22.2785 17.8203 22.2785 17.5964 22.4159 17.4576" stroke="#696969" stroke-width="1.5" stroke-linecap="round" stroke-linejoin="round"/>
</svg>
