<svg width="53" height="46" viewBox="0 0 53 46" fill="none" xmlns="http://www.w3.org/2000/svg">
<path d="M47.7207 34.1047C48.9929 32.0438 49.6666 29.7448 49.6836 27.4068C49.7006 25.0688 49.0603 22.7626 47.8182 20.6879C46.5762 18.6133 44.7698 16.8329 42.5557 15.5011C40.3417 14.1694 37.7868 13.3264 35.1125 13.0453C34.232 11.2629 32.945 9.65354 31.3291 8.31412C29.7131 6.97471 27.8016 5.93293 25.7096 5.25152C23.6176 4.5701 21.3883 4.26313 19.1561 4.34909C16.9238 4.43505 14.7346 4.91215 12.7204 5.75169C10.7061 6.59123 8.9084 7.77583 7.43546 9.23419C5.96253 10.6926 4.84483 12.3945 4.14964 14.2376C3.45445 16.0807 3.19615 18.0269 3.39029 19.9589C3.58443 21.8909 4.22699 23.7689 5.2793 25.4797L3.9957 29.361C3.84693 29.7927 3.83551 30.2513 3.96266 30.6883C4.0898 31.1252 4.35077 31.5241 4.71791 31.8427C5.08505 32.1614 5.54467 32.3879 6.04807 32.4982C6.55148 32.6086 7.0799 32.5987 7.57734 32.4696L12.0492 31.3555C13.8654 32.1957 15.8446 32.7379 17.8875 32.9547C18.7899 34.7902 20.1226 36.4425 21.801 37.8064C23.4794 39.1703 25.4665 40.216 27.636 40.8769C29.8055 41.5378 32.1098 41.7994 34.4021 41.6451C36.6945 41.4908 38.9247 40.9239 40.9508 39.9805L45.4227 41.0946C45.9201 41.2237 46.4485 41.2336 46.9519 41.1232C47.4553 41.0129 47.915 40.7864 48.2821 40.4677C48.6492 40.1491 48.9102 39.7502 49.0373 39.3133C49.1645 38.8763 49.1531 38.4177 49.0043 37.986L47.7207 34.1047ZM12.277 28.3727C12.1229 28.3717 11.9696 28.3899 11.8215 28.4266L7.37031 29.5407L8.65391 25.6774C8.71586 25.4909 8.73129 25.295 8.69916 25.1029C8.66703 24.9108 8.58808 24.7268 8.46758 24.5633C7.26372 22.7813 6.62777 20.7533 6.625 18.6875C6.625 16.413 7.4021 14.1896 8.85803 12.2985C10.314 10.4073 12.3833 8.93332 14.8044 8.06292C17.2256 7.19251 19.8897 6.96477 22.4599 7.4085C25.0302 7.85223 27.3911 8.9475 29.2442 10.5558C31.0972 12.1641 32.3592 14.2132 32.8704 16.444C33.3817 18.6748 33.1193 20.987 32.1164 23.0884C31.1135 25.1897 29.4153 26.9858 27.2363 28.2494C25.0574 29.5131 22.4956 30.1875 19.875 30.1875C17.4949 30.1851 15.1583 29.6332 13.1051 28.5883C12.8596 28.447 12.5715 28.372 12.277 28.3727ZM44.5324 33.1883C44.4119 33.3518 44.333 33.5358 44.3008 33.7279C44.2687 33.92 44.2841 34.1159 44.3461 34.3024L45.6297 38.1657L41.1785 37.0516C40.9636 36.9978 40.738 36.9844 40.5166 37.0123C40.2953 37.0402 40.0833 37.1087 39.8949 37.2133C38.3772 37.9905 36.6966 38.4981 34.9508 38.7064C33.205 38.9147 31.4289 38.8196 29.7258 38.4267C28.0228 38.0337 26.4267 37.3508 25.0306 36.4175C23.6344 35.4843 22.466 34.3194 21.5934 32.9907C25.664 32.6141 29.4308 30.9457 32.1706 28.3057C34.9104 25.6658 36.4299 22.2405 36.4375 18.6875C36.4319 17.8259 36.3419 16.9663 36.1684 16.118C39.0739 16.7131 41.6628 18.1425 43.5153 20.1743C45.3678 22.2062 46.3755 24.7215 46.375 27.3125C46.3722 29.3783 45.7363 31.4063 44.5324 33.1883Z" fill="#23415E"/>
</svg>
