<svg width="26" height="27" viewBox="0 0 26 27" fill="none" xmlns="http://www.w3.org/2000/svg">
<g opacity="0.5">
<path d="M12.3248 13.1324C15.1335 13.1324 17.4105 10.8022 17.4105 7.92775C17.4105 5.05333 15.1335 2.72314 12.3248 2.72314C9.51599 2.72314 7.23903 5.05333 7.23903 7.92775C7.23903 10.8022 9.51599 13.1324 12.3248 13.1324Z" stroke="#061428" stroke-width="1.5" stroke-linecap="round" stroke-linejoin="round"/>
<path fill-rule="evenodd" clip-rule="evenodd" d="M4.25763 20.3706C4.2564 20.0048 4.33648 19.6435 4.4918 19.314C4.97823 18.3173 6.35238 17.789 7.49236 17.5494C8.31437 17.3697 9.14774 17.2496 9.98626 17.1899C11.5391 17.0503 13.1009 17.0503 14.6537 17.1899C15.4914 17.2509 16.3248 17.3707 17.1476 17.5494C18.2865 17.789 19.6607 18.2672 20.1492 19.314C20.3034 19.6458 20.3834 20.0086 20.3834 20.3761C20.3834 20.7435 20.3034 21.1063 20.1492 21.4381C19.6607 22.4838 18.2865 22.9631 17.1476 23.1919C16.3259 23.3792 15.4924 23.5034 14.6537 23.5622C13.3892 23.6712 12.1204 23.6908 10.8538 23.6211C10.561 23.6211 10.279 23.6211 9.98626 23.5611C9.15019 23.5035 8.31965 23.3804 7.50194 23.193C6.35238 22.9642 4.98888 22.4849 4.4918 21.4381C4.33702 21.1042 4.25702 20.7391 4.25763 20.3695V20.3706Z" stroke="#061428" stroke-width="1.5" stroke-linecap="round" stroke-linejoin="round"/>
</g>
</svg>
