<svg width="72" height="13" viewBox="0 0 72 13" fill="none" xmlns="http://www.w3.org/2000/svg">
<path opacity="0.35" d="M50.511 0.527543H65.7664C67.6842 0.527543 69.2389 2.08222 69.2389 4V9C69.2389 10.9178 67.6842 12.4725 65.7664 12.4725H50.511C48.5932 12.4725 47.0385 10.9178 47.0385 9V4C47.0385 2.08221 48.5932 0.527543 50.511 0.527543Z" fill="black" fill-opacity="0.8" stroke="white" stroke-width="1.05509"/>
<path opacity="0.4" d="M70.6965 5V9.22034C71.4863 8.86291 71.9999 8.0314 71.9999 7.11017C71.9999 6.18894 71.4863 5.35744 70.6965 5" fill="black" fill-opacity="0.8"/>
<path d="M48.3713 4C48.3713 2.89543 49.2668 2 50.3713 2H65.9059C67.0105 2 67.9059 2.89543 67.9059 4V9C67.9059 10.1046 67.0105 11 65.9059 11H50.3713C49.2668 11 48.3713 10.1046 48.3713 9V4Z" fill="black" fill-opacity="0.8"/>
<path fill-rule="evenodd" clip-rule="evenodd" d="M32.0931 3.58753C34.3875 3.58764 36.5942 4.55505 38.2571 6.28982C38.3823 6.42375 38.5825 6.42206 38.7058 6.28603L39.9028 4.96045C39.9652 4.89146 40 4.798 39.9995 4.70076C39.999 4.60353 39.9632 4.51052 39.9 4.44234C35.5355 -0.147446 28.65 -0.147446 24.2855 4.44234C24.2223 4.51047 24.1864 4.60345 24.1858 4.70069C24.1852 4.79792 24.22 4.89141 24.2824 4.96045L25.4797 6.28603C25.6029 6.42226 25.8032 6.42396 25.9284 6.28982C27.5915 4.55494 29.7984 3.58752 32.0931 3.58753ZM32.1259 7.67235C33.3866 7.67227 34.6022 8.18644 35.5367 9.11496C35.6631 9.24674 35.8622 9.24389 35.9854 9.10852L37.181 7.78294C37.2439 7.71341 37.2789 7.61909 37.278 7.52107C37.2771 7.42306 37.2404 7.32953 37.1761 7.26142C34.3305 4.35683 29.9237 4.35683 27.0781 7.26142C27.0139 7.32953 26.9772 7.4231 26.9763 7.52115C26.9755 7.6192 27.0106 7.71351 27.0737 7.78294L28.2689 9.10852C28.3921 9.24389 28.5912 9.24674 28.7176 9.11496C29.6514 8.18705 30.8661 7.67292 32.1259 7.67235ZM34.5572 10.3427C34.559 10.441 34.5238 10.5357 34.4599 10.6046L32.3917 12.8948C32.3311 12.9621 32.2485 13 32.1622 13C32.076 13 31.9933 12.9621 31.9327 12.8948L29.8642 10.6046C29.8003 10.5357 29.7652 10.4409 29.7671 10.3426C29.769 10.2443 29.8077 10.1512 29.8742 10.0853C31.195 8.85949 33.1294 8.85949 34.4502 10.0853C34.5167 10.1513 34.5554 10.2444 34.5572 10.3427Z" fill="black" fill-opacity="0.8"/>
<path d="M9.30218 4C9.30218 3.44772 9.71866 3 10.2324 3H11.1626C11.6764 3 12.0928 3.44772 12.0928 4V12C12.0928 12.5523 11.6764 13 11.1626 13H10.2324C9.71866 13 9.30218 12.5523 9.30218 12V4Z" fill="black" fill-opacity="0.8"/>
<path d="M13.9533 2C13.9533 1.44772 14.3697 1 14.8835 1H15.8137C16.3275 1 16.7439 1.44772 16.7439 2V12C16.7439 12.5523 16.3275 13 15.8137 13H14.8835C14.3697 13 13.9533 12.5523 13.9533 12V2Z" fill="black" fill-opacity="0.8"/>
<path d="M4.65109 7.5C4.65109 6.94772 5.06756 6.5 5.58131 6.5H6.51153C7.02527 6.5 7.44175 6.94772 7.44175 7.5V12C7.44175 12.5523 7.02527 13 6.51153 13H5.58131C5.06756 13 4.65109 12.5523 4.65109 12V7.5Z" fill="black" fill-opacity="0.8"/>
<path d="M0 10C0 9.44772 0.416473 9 0.930218 9H1.86044C2.37418 9 2.79065 9.44772 2.79065 10V12C2.79065 12.5523 2.37418 13 1.86044 13H0.930218C0.416473 13 0 12.5523 0 12V10Z" fill="black" fill-opacity="0.8"/>
</svg>
