<svg width="72" height="13" viewBox="0 0 72 13" fill="none" xmlns="http://www.w3.org/2000/svg">
<path opacity="0.35" d="M50.5109 0.527543H65.7664C67.6841 0.527543 69.2388 2.08222 69.2388 4V9C69.2388 10.9178 67.6841 12.4725 65.7664 12.4725H50.5109C48.5931 12.4725 47.0385 10.9178 47.0385 9V4C47.0385 2.08221 48.5931 0.527543 50.5109 0.527543Z" fill="black" fill-opacity="0.75" stroke="white" stroke-width="1.05509"/>
<path opacity="0.4" d="M70.6965 5V9.22034C71.4863 8.86291 71.9999 8.0314 71.9999 7.11017C71.9999 6.18894 71.4863 5.35744 70.6965 5" fill="black" fill-opacity="0.75"/>
<path d="M48.3713 4C48.3713 2.89543 49.2667 2 50.3713 2H65.9059C67.0104 2 67.9059 2.89543 67.9059 4V9C67.9059 10.1046 67.0104 11 65.9059 11H50.3713C49.2667 11 48.3713 10.1046 48.3713 9V4Z" fill="black" fill-opacity="0.75"/>
<path fill-rule="evenodd" clip-rule="evenodd" d="M32.093 3.58753C34.3874 3.58764 36.5941 4.55505 38.257 6.28982C38.3822 6.42375 38.5823 6.42206 38.7057 6.28603L39.9026 4.96045C39.9651 4.89146 39.9999 4.798 39.9994 4.70076C39.9989 4.60353 39.9631 4.51052 39.8999 4.44234C35.5354 -0.147446 28.6499 -0.147446 24.2854 4.44234C24.2221 4.51047 24.1863 4.60345 24.1857 4.70069C24.1851 4.79792 24.2199 4.89141 24.2823 4.96045L25.4796 6.28603C25.6028 6.42226 25.8031 6.42396 25.9283 6.28982C27.5914 4.55494 29.7983 3.58752 32.093 3.58753ZM32.1258 7.67235C33.3865 7.67227 34.6021 8.18644 35.5366 9.11496C35.663 9.24674 35.8621 9.24389 35.9853 9.10852L37.1809 7.78294C37.2438 7.71341 37.2788 7.61909 37.2779 7.52107C37.2769 7.42306 37.2403 7.32953 37.176 7.26142C34.3304 4.35683 29.9236 4.35683 27.078 7.26142C27.0137 7.32953 26.9771 7.4231 26.9762 7.52115C26.9754 7.6192 27.0104 7.71351 27.0735 7.78294L28.2688 9.10852C28.392 9.24389 28.5911 9.24674 28.7175 9.11496C29.6513 8.18705 30.866 7.67292 32.1258 7.67235ZM34.5571 10.3427C34.5589 10.441 34.5237 10.5357 34.4597 10.6046L32.3916 12.8948C32.331 12.9621 32.2483 13 32.1621 13C32.0759 13 31.9932 12.9621 31.9326 12.8948L29.8641 10.6046C29.8002 10.5357 29.765 10.4409 29.7669 10.3426C29.7688 10.2443 29.8076 10.1512 29.8741 10.0853C31.1949 8.85949 33.1293 8.85949 34.4501 10.0853C34.5165 10.1513 34.5552 10.2444 34.5571 10.3427Z" fill="black" fill-opacity="0.75"/>
<path d="M9.30218 4C9.30218 3.44772 9.71866 3 10.2324 3H11.1626C11.6764 3 12.0928 3.44772 12.0928 4V12C12.0928 12.5523 11.6764 13 11.1626 13H10.2324C9.71866 13 9.30218 12.5523 9.30218 12V4Z" fill="black" fill-opacity="0.75"/>
<path d="M13.9533 2C13.9533 1.44772 14.3697 1 14.8835 1H15.8137C16.3275 1 16.7439 1.44772 16.7439 2V12C16.7439 12.5523 16.3275 13 15.8137 13H14.8835C14.3697 13 13.9533 12.5523 13.9533 12V2Z" fill="black" fill-opacity="0.75"/>
<path d="M4.65109 7.5C4.65109 6.94772 5.06756 6.5 5.58131 6.5H6.51153C7.02527 6.5 7.44175 6.94772 7.44175 7.5V12C7.44175 12.5523 7.02527 13 6.51153 13H5.58131C5.06756 13 4.65109 12.5523 4.65109 12V7.5Z" fill="black" fill-opacity="0.75"/>
<path d="M0 10C0 9.44772 0.416473 9 0.930218 9H1.86044C2.37418 9 2.79065 9.44772 2.79065 10V12C2.79065 12.5523 2.37418 13 1.86044 13H0.930218C0.416473 13 0 12.5523 0 12V10Z" fill="black" fill-opacity="0.75"/>
</svg>
