<svg width="16" height="17" viewBox="0 0 16 17" fill="none" xmlns="http://www.w3.org/2000/svg">
<path d="M5.54596 3.55151C5.04261 3.81306 4.58246 4.15043 4.18163 4.5518C2.01918 6.71462 2.01881 10.2213 4.18144 12.3841C6.34389 14.5465 9.85071 14.5461 12.0132 12.3833C12.4144 11.9826 12.7518 11.5225 13.0134 11.0194" stroke="#197BD2" stroke-linecap="round" stroke-linejoin="round"/>
<path d="M5.54596 3.55151C4.46173 5.63791 4.79434 8.26906 6.5453 10.0202C8.29589 11.771 10.9276 12.1032 13.0136 11.0196" stroke="#197BD2" stroke-linecap="round" stroke-linejoin="round"/>
<path d="M7.88232 2.99414H10.3653L7.89381 5.95941H10.3533" stroke="#197BD2" stroke-miterlimit="10" stroke-linecap="round" stroke-linejoin="round"/>
<path d="M11.6666 5.97266H13.4404L11.6749 8.09106H13.4319" stroke="#197BD2" stroke-miterlimit="10" stroke-linecap="round" stroke-linejoin="round"/>
<path d="M9.052 7.66138H10.2981L9.05765 9.14994H10.2923" stroke="#197BD2" stroke-miterlimit="10" stroke-linecap="round" stroke-linejoin="round"/>
</svg>
