<svg width="23" height="26" viewBox="0 0 23 26" fill="none" xmlns="http://www.w3.org/2000/svg">
<path d="M22.777 12.2667C22.2004 10.917 21.0802 11.5581 20.1412 11.5075C19.2517 11.4569 18.3456 12.4691 17.6043 11.7943C16.9619 11.2207 16.583 10.2422 16.2865 9.38176C15.9076 8.26828 15.018 7.47534 14.3096 6.31125C16.7971 7.28976 18.3127 6.37874 19.0375 5.1809C19.8777 3.79749 19.647 1.9923 18.5104 0.929431C17.3572 -0.150308 15.6275 -0.302146 14.3426 0.5414C12.7117 1.62114 12.4811 3.02142 13.5848 5.77138C11.8057 5.21464 10.3395 4.3711 8.77456 3.74687C8.14857 3.49381 7.55553 2.86959 6.8307 3.17326C4.91978 3.96619 3.00886 4.79287 1.14736 5.7039C-0.0057857 6.26064 -0.252887 7.07044 0.241316 7.9646C0.636679 8.69005 1.62509 8.92624 2.61349 8.4876C3.45364 8.11644 4.29378 7.74528 5.10098 7.30663C6.45181 6.56431 7.67084 6.56431 8.98872 7.49222C9.84534 8.09957 9.73002 8.47073 9.08756 9.07808C7.65437 10.4615 6.12234 11.7437 4.91978 13.3633C4.04668 14.5443 4.07963 15.7758 5.13393 16.7881C6.43533 18.0534 7.78616 19.2512 9.12051 20.4828C9.53234 20.8708 9.89476 21.242 8.92282 21.4276C7.6379 21.6638 6.36944 22.0181 5.08451 22.288C4.14552 22.4736 3.37127 23.3677 3.53601 24.1438C3.73369 25.0548 4.83741 25.6453 5.80934 25.4091C8.34625 24.8018 10.8832 24.1944 13.4365 23.6545C14.738 23.3846 15.3639 22.0518 14.5732 20.9889C13.8319 19.9936 13.0577 19.0488 12.3493 18.0365C10.6855 15.6746 10.702 15.6577 12.7941 13.5995C13.9637 12.4354 13.9637 12.4354 14.8533 13.9538C15.2486 14.6117 15.5781 15.4047 16.5336 15.3372C18.428 15.1853 20.2566 14.6961 22.0851 14.19C22.7935 14.0213 23.0735 12.9584 22.777 12.2667Z" fill="url(#paint0_linear_20_281)" fill-opacity="0.5"/>
<defs>
<linearGradient id="paint0_linear_20_281" x1="22.894" y1="27.776" x2="-3.7569" y2="8.72862" gradientUnits="userSpaceOnUse">
<stop stop-color="#2270BA"/>
<stop offset="0.234375" stop-color="#57636E"/>
<stop offset="0.442708" stop-color="#EBEFF3"/>
<stop offset="0.682292" stop-color="#AFBBC7"/>
<stop offset="1" stop-color="#768BA2"/>
</linearGradient>
</defs>
</svg>
