<svg width="23" height="25" viewBox="0 0 23 25" fill="none" xmlns="http://www.w3.org/2000/svg">
<path d="M22.7769 12.2667C22.2003 10.917 21.0801 11.5581 20.1411 11.5075C19.2516 11.4569 18.3455 12.4691 17.6042 11.7943C16.9617 11.2207 16.5829 10.2422 16.2863 9.38176C15.9074 8.26828 15.0179 7.47534 14.3095 6.31125C16.797 7.28976 18.3126 6.37873 19.0374 5.1809C19.8775 3.79749 19.6469 1.9923 18.5102 0.929431C17.3571 -0.150308 15.6274 -0.302146 14.3425 0.5414C12.7116 1.62114 12.481 3.02142 13.5847 5.77138C11.8056 5.21464 10.3394 4.3711 8.77444 3.74687C8.14845 3.49381 7.55541 2.86959 6.83057 3.17326C4.91965 3.96619 3.00873 4.79287 1.14723 5.7039C-0.00590777 6.26064 -0.253009 7.07044 0.241194 7.9646C0.636557 8.69005 1.62496 8.92624 2.61337 8.4876C3.45352 8.11644 4.29366 7.74528 5.10086 7.30663C6.45168 6.56431 7.67072 6.56431 8.9886 7.49221C9.84522 8.09957 9.7299 8.47073 9.08744 9.07808C7.65425 10.4615 6.12222 11.7437 4.91965 13.3633C4.04656 14.5443 4.07951 15.7758 5.13381 16.7881C6.43521 18.0534 7.78603 19.2512 9.12038 20.4828C9.53222 20.8708 9.89464 21.242 8.9227 21.4276C7.63777 21.6638 6.36932 22.0181 5.08439 22.288C4.1454 22.4736 3.37115 23.3677 3.53588 24.1438C3.73357 25.0548 4.83729 25.6453 5.80922 25.4091C8.34613 24.8018 10.883 24.1944 13.4364 23.6545C14.7378 23.3846 15.3638 22.0518 14.5731 20.9889C13.8318 19.9936 13.0575 19.0488 12.3492 18.0365C10.6854 15.6746 10.7018 15.6577 12.794 13.5995C13.9636 12.4354 13.9636 12.4354 14.8531 13.9538C15.2485 14.6117 15.578 15.4047 16.5334 15.3372C18.4279 15.1853 20.2564 14.6961 22.085 14.19C22.7933 14.0213 23.0734 12.9584 22.7769 12.2667" fill="url(#paint0_linear_20_38)" fill-opacity="0.5"/>
<defs>
<linearGradient id="paint0_linear_20_38" x1="22.8939" y1="27.776" x2="-3.75702" y2="8.72862" gradientUnits="userSpaceOnUse">
<stop stop-color="#2270BA"/>
<stop offset="0.234375" stop-color="#57636E"/>
<stop offset="0.442708" stop-color="#EBEFF3"/>
<stop offset="0.682292" stop-color="#AFBBC7"/>
<stop offset="1" stop-color="#768BA2"/>
</linearGradient>
</defs>
</svg>
