<svg width="39" height="41" viewBox="0 0 39 41" fill="none" xmlns="http://www.w3.org/2000/svg">
<path d="M35.3608 3.16123C32.3684 -0.212931 27.8797 -0.935965 24.0323 1.23314C22.1086 2.19718 20.3987 3.88426 19.1162 5.81235C17.8337 3.88426 16.1238 2.43819 14.2001 1.23314C10.3526 -0.935965 5.864 -0.212931 2.87157 3.16123C0.734126 5.57134 -0.334599 8.70449 0.092891 11.8376C-0.120854 23.4062 5.864 34.2517 15.2688 39.3129L16.9787 40.277C17.8337 40.759 18.6887 41 19.5437 41C20.3987 41 21.2536 40.759 22.1086 40.277L23.8186 39.3129C33.2233 34.2517 39.2082 23.4062 38.9945 11.8376C38.567 8.70449 37.4982 5.57134 35.3608 3.16123V3.16123ZM34.0783 11.8376C34.2921 21.4781 29.3759 30.6365 21.4674 34.9747L19.7574 35.9388C19.3299 36.1798 18.9024 36.1798 18.4749 35.9388L16.9787 35.2157C8.85643 30.8775 3.9403 21.7191 4.15404 11.8376V11.5966C3.9403 9.66853 4.58153 7.98145 5.864 6.53539C6.93273 5.57134 8.2152 4.84831 9.71141 4.84831C10.5664 4.84831 11.4214 5.08932 12.2763 5.57134C14.2001 6.7764 15.91 8.46348 16.9787 10.6326L17.1925 11.3556C17.8337 13.0427 20.1849 13.0427 21.0399 11.3556L21.2536 10.6326C22.3224 8.46348 23.8186 6.53539 25.956 5.57134C28.0935 4.36628 30.6584 4.84831 32.3684 6.7764C33.6508 7.98145 34.0783 9.90954 33.8646 11.5966C34.0783 11.5966 34.0783 11.8376 34.0783 11.8376Z" fill="#309CFF"/>
</svg>
