<svg width="40" height="23" viewBox="0 0 40 23" fill="none" xmlns="http://www.w3.org/2000/svg">
<path fill-rule="evenodd" clip-rule="evenodd" d="M10.6358 0.00114308C10.5101 0.00966386 10.3888 0.0651862 10.2859 0.161294C10.1831 0.257401 10.1028 0.390171 10.0543 0.544258L6.88161 10.6122H0.666822C0.48997 10.6122 0.320361 10.7054 0.195308 10.8713C0.0702544 11.0372 0 11.2622 0 11.4968C0 11.7314 0.0702544 11.9564 0.195308 12.1222C0.320361 12.2881 0.48997 12.3813 0.666822 12.3813H7.32438C7.4558 12.3812 7.58427 12.3296 7.69365 12.233C7.80304 12.1364 7.88846 11.999 7.93919 11.8382L10.5985 3.39959L15.3703 22.3909C15.4133 22.5653 15.4963 22.7176 15.6075 22.8267C15.7188 22.9358 15.8529 22.9963 15.9912 22.9998C16.1295 23.0033 16.2653 22.9497 16.3796 22.8463C16.4939 22.7429 16.5811 22.5948 16.6292 22.4227L19.4565 12.3813H22.6706C22.7838 12.3818 22.8952 12.3441 22.9944 12.2716C23.0936 12.1992 23.1772 12.0945 23.2374 11.9673L25.7954 6.52382L28.704 18.8385C28.7423 18.9995 28.8145 19.1426 28.9121 19.2509C29.0096 19.3592 29.1286 19.4282 29.2547 19.4498C29.3809 19.4714 29.5092 19.4446 29.6243 19.3727C29.7394 19.3007 29.8365 19.1866 29.9043 19.0438L33.0344 12.3813H39.3332C39.51 12.3813 39.6796 12.2881 39.8047 12.1222C39.9297 11.9564 40 11.7314 40 11.4968C40 11.2622 39.9297 11.0372 39.8047 10.8713C39.6796 10.7054 39.51 10.6122 39.3332 10.6122H32.665C32.5517 10.6124 32.4404 10.6508 32.3415 10.7239C32.2426 10.7969 32.1593 10.9022 32.0995 11.0297L29.5416 16.4715L26.6342 4.15853C26.5963 3.99665 26.5242 3.85262 26.4264 3.74358C26.3285 3.63453 26.2092 3.56506 26.0824 3.54344C25.9557 3.52182 25.8269 3.54896 25.7115 3.62162C25.5961 3.69429 25.4988 3.80942 25.4313 3.95332L22.3025 10.6122H18.9951C18.8587 10.6118 18.7255 10.6668 18.6134 10.7699C18.5013 10.8731 18.4158 11.0193 18.3683 11.1889L16.0397 19.4577L11.304 0.606176C11.258 0.42243 11.1679 0.263744 11.0475 0.154454C10.927 0.0451645 10.7829 -0.00869311 10.6371 0.00114308H10.6358Z" fill="#D2416E"/>
</svg>
