<svg width="407" height="112" viewBox="0 0 407 112" fill="none" xmlns="http://www.w3.org/2000/svg">
<g filter="url(#filter0_d_205_2394)">
<path d="M44.8225 24.9748C52.85 15.8564 77.4676 -0.225306 111.718 8.3958C154.531 19.1722 159.411 32.0209 212.77 24.9748C266.129 17.9288 284.703 -1.86248 343.886 1.34971C403.069 4.5619 421.485 24.9748 447.771 24.9748C468.8 24.9748 487.593 13.9221 494.362 8.3958L509 46.7349V93.3634L4.99991 103L44.8225 24.9748Z" fill="url(#paint0_linear_205_2394)" shape-rendering="crispEdges"/>
<path d="M44.8225 24.9748C52.85 15.8564 77.4676 -0.225306 111.718 8.3958C154.531 19.1722 159.411 32.0209 212.77 24.9748C266.129 17.9288 284.703 -1.86248 343.886 1.34971C403.069 4.5619 421.485 24.9748 447.771 24.9748C468.8 24.9748 487.593 13.9221 494.362 8.3958L509 46.7349V93.3634L4.99991 103L44.8225 24.9748Z" stroke="#E5E5E5" stroke-opacity="0.38" shape-rendering="crispEdges"/>
</g>
<defs>
<filter id="filter0_d_205_2394" x="0.175293" y="0.5" width="513.325" height="111.016" filterUnits="userSpaceOnUse" color-interpolation-filters="sRGB">
<feFlood flood-opacity="0" result="BackgroundImageFix"/>
<feColorMatrix in="SourceAlpha" type="matrix" values="0 0 0 0 0 0 0 0 0 0 0 0 0 0 0 0 0 0 127 0" result="hardAlpha"/>
<feOffset dy="4"/>
<feGaussianBlur stdDeviation="2"/>
<feComposite in2="hardAlpha" operator="out"/>
<feColorMatrix type="matrix" values="0 0 0 0 0 0 0 0 0 0 0 0 0 0 0 0 0 0 0.25 0"/>
<feBlend mode="normal" in2="BackgroundImageFix" result="effect1_dropShadow_205_2394"/>
<feBlend mode="normal" in="SourceGraphic" in2="effect1_dropShadow_205_2394" result="shape"/>
</filter>
<linearGradient id="paint0_linear_205_2394" x1="190.794" y1="-11.2304" x2="222.558" y2="108.891" gradientUnits="userSpaceOnUse">
<stop stop-color="#167FCA"/>
<stop offset="1" stop-color="#094067"/>
</linearGradient>
</defs>
</svg>
