<svg width="21" height="9" viewBox="0 0 21 9" fill="none" xmlns="http://www.w3.org/2000/svg">
<path d="M18.3148 2.89181H17.2682L15.4367 0.788675C14.6518 -0.262892 11.7738 -0.262892 10.7272 0.788675L7.84918 4.0936L7.58754 3.79315C7.06426 3.19226 6.27934 2.89181 5.23279 2.89181H2.61639C1.04656 2.89181 0 3.4927 0 4.39405C0 5.29539 1.04656 5.89629 2.61639 5.89629H3.66295L5.49443 7.99942C6.01771 8.45009 6.80262 8.90076 7.84918 8.90076C8.89574 8.90076 9.68065 8.60032 10.2039 7.99942L13.082 4.6945L13.3436 4.99494C13.8669 5.44561 14.6518 5.89629 15.6984 5.89629H18.3148C19.8846 5.89629 20.9311 5.29539 20.9311 4.39405C20.9311 3.4927 19.8846 2.89181 18.3148 2.89181V2.89181Z" fill="#D2416E"/>
</svg>
