<svg width="430" height="722" viewBox="0 0 430 722" fill="none" xmlns="http://www.w3.org/2000/svg">
<g style="mix-blend-mode:overlay">
<path fill-rule="evenodd" clip-rule="evenodd" d="M-69.7631 765.704C-16.8753 849.297 -83.261 970.419 36.6604 972.746C156.582 975.073 254.143 782.282 216.104 632.539C178.065 482.795 155.846 423.713 177.379 376.33C198.911 328.948 234.817 208.111 189.538 154.03C144.258 99.9496 107.944 87.8141 57.1536 178.832C6.36293 269.85 -3.0798 339.257 -6.32109 390.062C-9.56237 440.867 -147.628 483.291 -151.988 590.529C-156.347 697.766 -122.651 682.112 -69.7631 765.704Z" stroke="url(#paint0_linear_205_2407)" stroke-opacity="0.2" stroke-width="1.25714"/>
<path opacity="0.985714" fill-rule="evenodd" clip-rule="evenodd" d="M-72.0931 761.533C-20.2621 846.386 -88.0637 965.748 31.7328 971.08C151.529 976.411 251.351 786.219 215.159 635.64C178.967 485.061 157.484 425.469 179.573 378.663C201.663 331.858 239.006 212.017 194.419 156.844C149.833 101.67 113.695 88.634 61.8412 178.307C9.98724 267.98 -0.289899 337.095 -4.14494 387.778C-7.99997 438.462 -146.469 477.391 -152.126 584.434C-157.783 691.478 -123.924 676.681 -72.0931 761.533Z" stroke="url(#paint1_linear_205_2407)" stroke-opacity="0.2" stroke-width="1.25714"/>
<path opacity="0.971429" fill-rule="evenodd" clip-rule="evenodd" d="M-74.3699 757.308C-23.6104 843.394 -92.8052 960.962 26.8294 969.293C146.464 977.624 248.512 790.084 214.176 638.716C179.841 487.347 159.097 427.264 181.737 381.049C204.377 334.834 243.143 216.023 199.262 159.776C155.381 103.528 119.431 89.5956 66.5313 177.898C13.6315 266.2 2.52424 335.003 -1.94256 385.55C-6.40936 436.097 -145.238 471.525 -152.189 578.342C-159.141 685.159 -125.129 671.223 -74.3699 757.308Z" stroke="url(#paint2_linear_205_2407)" stroke-opacity="0.2" stroke-width="1.25714"/>
<path opacity="0.957143" fill-rule="evenodd" clip-rule="evenodd" d="M-76.5928 753.031C-26.9192 840.321 -97.4838 956.064 21.9519 967.387C141.388 978.711 245.627 793.876 213.156 641.765C180.685 489.654 160.688 429.097 183.87 383.486C207.052 337.874 247.228 220.128 204.065 162.824C160.902 105.52 125.151 90.6977 71.2228 177.605C17.295 264.512 5.36202 332.983 0.285629 383.378C-4.79077 433.774 -143.936 465.693 -152.177 572.253C-160.419 678.813 -126.266 665.74 -76.5928 753.031Z" stroke="url(#paint3_linear_205_2407)" stroke-opacity="0.2" stroke-width="1.25714"/>
<path opacity="0.942857" fill-rule="evenodd" clip-rule="evenodd" d="M-78.761 748.701C-30.1874 837.17 -102.098 951.053 17.1018 965.362C136.302 979.671 242.698 797.593 212.099 644.786C181.501 491.978 162.255 430.967 185.971 385.973C209.687 340.978 251.259 224.331 208.827 165.989C166.395 107.647 130.852 91.9397 75.9144 177.427C20.9765 262.915 8.22263 331.034 2.53899 381.263C-3.14466 431.492 -142.562 459.898 -152.09 566.169C-161.618 672.439 -127.335 660.232 -78.761 748.701Z" stroke="url(#paint4_linear_205_2407)" stroke-opacity="0.2" stroke-width="1.25714"/>
<path opacity="0.928571" fill-rule="evenodd" clip-rule="evenodd" d="M-80.8744 744.322C-33.4145 833.94 -106.647 945.933 12.2802 963.219C131.208 980.506 239.725 801.235 211.006 647.779C182.286 494.322 163.797 432.876 188.039 388.51C212.281 344.144 255.234 228.629 213.545 169.269C171.856 109.908 136.534 93.3221 80.6042 177.367C24.6747 261.411 11.1048 329.158 4.81645 379.206C-1.47193 429.254 -141.119 454.143 -151.928 560.092C-162.737 666.042 -128.334 654.704 -80.8744 744.322Z" stroke="url(#paint5_linear_205_2407)" stroke-opacity="0.2" stroke-width="1.25714"/>
<path opacity="0.914286" fill-rule="evenodd" clip-rule="evenodd" d="M-82.9317 739.894C-36.5989 830.633 -111.129 940.705 7.48897 960.959C126.107 981.213 236.709 804.8 209.876 650.741C183.043 496.683 165.314 434.819 190.074 391.096C214.835 347.372 259.153 233.022 218.219 172.662C177.285 112.302 142.194 94.8428 85.2913 177.421C28.3887 259.999 14.0082 327.354 7.11775 377.206C0.227349 427.057 -139.605 448.427 -151.69 554.024C-163.776 659.622 -129.265 649.155 -82.9317 739.894Z" stroke="url(#paint6_linear_205_2407)" stroke-opacity="0.2" stroke-width="1.25714"/>
<path opacity="0.9" fill-rule="evenodd" clip-rule="evenodd" d="M-84.933 735.42C-39.7402 827.251 -115.544 935.37 2.72921 958.583C121.002 981.795 233.652 808.288 208.71 653.674C183.769 499.06 166.806 436.8 192.076 393.73C217.346 350.66 263.015 237.508 222.848 176.168C182.681 114.828 147.831 96.5024 89.974 177.591C32.1171 258.68 16.9314 325.623 9.44185 375.264C1.95231 424.906 -138.022 442.754 -151.378 547.968C-164.735 653.182 -130.126 643.588 -84.933 735.42Z" stroke="url(#paint7_linear_205_2407)" stroke-opacity="0.2" stroke-width="1.25714"/>
<path opacity="0.885714" fill-rule="evenodd" clip-rule="evenodd" d="M-86.8772 730.899C-42.8371 823.794 -119.889 929.931 -1.99739 956.09C115.894 982.25 230.554 811.698 207.51 656.575C184.466 501.453 168.273 438.815 194.044 396.411C219.816 354.007 266.819 242.085 227.43 179.785C188.042 117.484 153.443 98.299 94.6513 177.876C35.8594 257.454 19.8741 323.965 11.7885 373.381C3.70284 422.798 -136.369 437.124 -150.992 541.923C-165.614 646.723 -130.917 638.004 -86.8772 730.899Z" stroke="url(#paint8_linear_205_2407)" stroke-opacity="0.2" stroke-width="1.25714"/>
<path opacity="0.871429" fill-rule="evenodd" clip-rule="evenodd" d="M-88.7639 726.335C-45.8887 820.263 -124.163 924.39 -6.68945 953.484C110.784 982.578 227.416 815.028 206.274 659.445C185.133 503.862 169.713 440.865 195.978 399.138C222.242 357.412 270.563 246.753 231.964 183.512C193.365 120.271 159.029 100.233 99.3217 178.277C39.6141 256.322 22.8352 322.382 14.1567 371.559C5.47827 420.735 -134.648 431.54 -150.53 535.894C-166.412 640.249 -131.639 632.406 -88.7639 726.335Z" stroke="url(#paint9_linear_205_2407)" stroke-opacity="0.2" stroke-width="1.25714"/>
<path opacity="0.857143" fill-rule="evenodd" clip-rule="evenodd" d="M-90.5933 721.728C-48.8949 816.661 -128.366 918.748 -11.3462 950.765C105.673 982.781 224.239 818.279 205.004 662.282C185.769 506.285 171.127 442.949 197.876 401.912C224.624 360.875 274.247 251.509 236.449 187.348C198.65 123.187 164.587 102.304 103.983 178.794C43.3795 255.283 25.8132 320.874 16.5453 369.796C7.27738 418.718 -132.86 426.004 -149.995 529.882C-167.13 633.761 -132.292 626.795 -90.5933 721.728Z" stroke="url(#paint10_linear_205_2407)" stroke-opacity="0.2" stroke-width="1.25714"/>
<path opacity="0.842857" fill-rule="evenodd" clip-rule="evenodd" d="M-92.3638 717.081C-51.8538 812.988 -132.495 913.009 -15.9654 947.933C100.565 982.858 221.025 821.449 203.7 665.086C186.375 508.723 172.515 445.067 199.738 404.731C226.962 364.394 277.87 256.353 240.883 191.293C203.896 126.232 170.116 104.511 108.636 179.425C47.1556 254.339 28.8083 319.442 18.9545 368.095C9.10068 416.749 -131.004 420.517 -149.386 523.889C-167.767 627.261 -132.874 621.174 -92.3638 717.081Z" stroke="url(#paint11_linear_205_2407)" stroke-opacity="0.2" stroke-width="1.25714"/>
<path opacity="0.828571" fill-rule="evenodd" clip-rule="evenodd" d="M-94.0767 712.391C-54.7662 809.243 -136.552 907.168 -20.5472 944.987C95.4574 982.805 217.773 824.534 202.361 667.852C186.95 511.17 173.875 447.214 201.564 407.59C229.253 367.965 281.429 261.279 245.264 195.34C209.099 129.401 175.612 106.849 113.276 180.168C50.9394 253.487 31.8176 318.081 21.3817 366.452C10.9458 414.822 -129.083 415.078 -148.704 517.913C-168.324 620.748 -133.387 615.54 -94.0767 712.391Z" stroke="url(#paint12_linear_205_2407)" stroke-opacity="0.2" stroke-width="1.25714"/>
<path opacity="0.814286" fill-rule="evenodd" clip-rule="evenodd" d="M-95.7289 707.666C-57.6286 805.431 -140.532 901.236 -25.0878 941.933C90.3563 982.63 214.487 827.539 200.991 670.586C187.495 513.633 175.208 449.396 203.354 410.494C231.501 371.593 284.926 266.292 249.593 199.495C214.261 132.698 181.076 109.324 117.904 181.028C54.7325 252.731 34.8432 316.799 23.8291 364.873C12.815 412.946 -127.095 409.694 -147.947 511.962C-168.798 614.23 -133.829 609.901 -95.7289 707.666Z" stroke="url(#paint13_linear_205_2407)" stroke-opacity="0.2" stroke-width="1.25714"/>
<path opacity="0.8" fill-rule="evenodd" clip-rule="evenodd" d="M-97.3227 702.903C-60.4431 801.551 -144.437 895.21 -29.5885 938.769C85.26 982.327 211.164 830.458 199.587 673.282C188.009 516.105 176.513 451.607 205.106 413.439C233.7 375.271 288.357 271.385 253.867 203.752C219.376 136.119 186.505 111.931 122.518 181.999C58.531 252.068 37.8811 315.591 26.2929 363.354C14.7047 411.117 -125.043 404.362 -147.118 506.033C-169.193 607.705 -134.202 604.254 -97.3227 702.903Z" stroke="url(#paint14_linear_205_2407)" stroke-opacity="0.2" stroke-width="1.25714"/>
<path opacity="0.785714" fill-rule="evenodd" clip-rule="evenodd" d="M-98.8562 698.105C-63.2074 797.605 -148.264 889.092 -34.0466 935.496C80.1712 981.9 207.809 833.294 198.15 675.941C188.492 518.589 177.789 453.849 206.821 416.425C235.853 379.001 291.724 276.559 258.085 208.111C224.447 139.663 191.898 114.669 127.117 183.085C62.3352 251.5 40.932 314.46 28.7739 361.898C16.6159 409.336 -122.926 399.086 -146.216 500.131C-169.507 601.176 -134.505 598.604 -98.8562 698.105Z" stroke="url(#paint15_linear_205_2407)" stroke-opacity="0.2" stroke-width="1.25714"/>
<path opacity="0.771429" fill-rule="evenodd" clip-rule="evenodd" d="M-100.329 693.273C-65.9206 793.595 -152.013 882.886 -38.4607 932.116C75.0919 981.347 204.421 836.044 196.683 678.563C188.944 521.082 179.037 456.121 208.498 419.451C237.959 382.78 295.024 281.811 262.247 212.57C229.47 143.33 197.254 117.539 131.699 184.283C66.144 251.027 43.9951 313.405 31.2716 360.505C18.5481 407.604 -120.745 393.867 -145.242 494.256C-169.74 594.645 -134.737 592.952 -100.329 693.273Z" stroke="url(#paint16_linear_205_2407)" stroke-opacity="0.2" stroke-width="1.25714"/>
<path opacity="0.757143" fill-rule="evenodd" clip-rule="evenodd" d="M-101.741 688.409C-68.5826 789.521 -155.683 876.593 -42.8302 928.631C70.0227 980.669 201.002 838.708 195.183 681.146C189.365 523.584 180.256 458.422 210.136 422.515C240.016 386.608 298.257 287.14 266.35 217.129C234.444 147.117 202.57 120.538 136.263 185.593C69.9555 250.647 47.0686 312.427 33.7843 359.174C20.5 405.921 -118.502 388.707 -144.197 488.41C-169.892 588.114 -134.9 587.298 -101.741 688.409Z" stroke="url(#paint17_linear_205_2407)" stroke-opacity="0.2" stroke-width="1.25714"/>
<path opacity="0.742857" fill-rule="evenodd" clip-rule="evenodd" d="M-103.093 683.516C-71.1922 785.385 -159.272 870.215 -47.1533 925.041C64.9658 979.866 197.552 841.285 193.653 683.69C189.755 526.095 181.446 460.751 211.735 425.618C242.025 390.485 301.422 292.545 270.395 221.785C239.368 151.024 207.845 123.666 140.807 187.015C73.7694 250.364 50.1523 311.526 36.3119 357.907C22.4715 404.289 -116.196 383.607 -143.079 482.597C-169.963 581.586 -134.993 581.647 -103.093 683.516Z" stroke="url(#paint18_linear_205_2407)" stroke-opacity="0.2" stroke-width="1.25714"/>
<path opacity="0.728571" fill-rule="evenodd" clip-rule="evenodd" d="M-104.383 678.593C-73.7494 781.188 -162.781 863.753 -51.4296 921.347C59.9218 978.94 194.072 843.775 192.092 686.194C190.113 528.612 182.606 463.107 213.295 428.757C243.984 394.407 304.517 298.023 274.378 226.536C244.239 155.049 213.078 126.922 145.331 188.548C77.5835 250.174 53.2444 310.702 38.8528 356.704C24.4612 402.706 -113.83 378.568 -141.892 476.815C-169.954 575.062 -135.016 575.998 -104.383 678.593Z" stroke="url(#paint19_linear_205_2407)" stroke-opacity="0.2" stroke-width="1.25714"/>
<path opacity="0.714286" fill-rule="evenodd" clip-rule="evenodd" d="M-105.611 673.642C-76.2521 776.931 -166.206 857.211 -55.6563 917.549C54.8938 977.888 190.565 846.176 190.503 688.656C190.44 531.136 183.736 465.489 214.815 431.931C245.894 398.373 307.544 303.572 278.302 231.381C249.059 159.191 218.268 130.303 149.833 190.19C81.3982 250.078 56.3455 309.954 41.4078 355.564C26.4701 401.173 -111.402 373.592 -140.632 471.068C-169.863 568.543 -134.969 570.352 -105.611 673.642Z" stroke="url(#paint20_linear_205_2407)" stroke-opacity="0.2" stroke-width="1.25714"/>
<path opacity="0.7" fill-rule="evenodd" clip-rule="evenodd" d="M-106.777 668.665C-78.7013 772.617 -169.549 850.59 -59.834 913.652C49.8815 976.714 187.031 848.488 188.883 691.077C190.736 533.666 184.836 467.897 216.295 435.14C247.753 402.383 310.5 309.191 282.161 236.32C253.823 163.448 223.412 133.81 154.311 191.944C85.2107 250.077 59.4528 309.285 43.9742 354.488C28.4957 399.692 -108.915 368.681 -139.304 465.357C-169.693 562.033 -134.853 564.714 -106.777 668.665Z" stroke="url(#paint21_linear_205_2407)" stroke-opacity="0.2" stroke-width="1.25714"/>
<path opacity="0.685714" fill-rule="evenodd" clip-rule="evenodd" d="M-107.882 663.664C-81.0956 768.246 -172.809 843.892 -63.9607 909.654C44.8872 975.417 183.47 850.711 187.235 693.456C191 536.201 185.906 470.33 217.734 438.383C249.562 406.436 313.384 314.878 285.958 241.348C258.532 167.818 228.508 137.441 158.764 193.805C89.0204 250.17 62.5662 308.692 46.5521 353.477C30.538 398.262 -106.369 363.836 -137.906 459.684C-169.443 555.532 -134.667 559.083 -107.882 663.664Z" stroke="url(#paint22_linear_205_2407)" stroke-opacity="0.2" stroke-width="1.25714"/>
<path opacity="0.671429" fill-rule="evenodd" clip-rule="evenodd" d="M-108.923 658.64C-83.4337 763.819 -175.982 837.118 -68.0347 905.557C39.9129 973.996 179.884 852.842 185.559 695.791C191.234 538.739 186.945 472.786 219.132 441.657C251.319 410.528 316.196 320.63 289.69 246.465C263.183 172.301 233.557 141.193 163.192 195.775C92.8269 250.356 65.6853 308.176 49.1413 352.53C32.5972 396.883 -103.765 359.057 -136.439 454.05C-169.113 549.043 -134.412 553.461 -108.923 658.64Z" stroke="url(#paint23_linear_205_2407)" stroke-opacity="0.2" stroke-width="1.25714"/>
<path opacity="0.657143" fill-rule="evenodd" clip-rule="evenodd" d="M-109.902 653.596C-85.716 759.34 -179.071 830.275 -72.0557 901.366C34.9592 972.457 176.275 854.886 183.855 698.084C191.435 541.283 187.953 475.269 220.489 444.966C253.025 414.663 318.935 326.449 293.356 251.673C267.776 176.896 238.556 145.07 167.592 197.854C96.6282 250.638 68.8083 307.74 51.74 351.649C34.6716 395.559 -101.104 354.35 -134.903 448.46C-168.702 542.571 -134.088 547.853 -109.902 653.596Z" stroke="url(#paint24_linear_205_2407)" stroke-opacity="0.2" stroke-width="1.25714"/>
<path opacity="0.642857" fill-rule="evenodd" clip-rule="evenodd" d="M-110.819 648.532C-87.9419 754.807 -182.073 823.36 -76.0226 897.077C30.0275 970.794 172.642 856.836 182.124 700.331C191.605 543.827 188.929 477.771 221.804 448.303C254.678 418.834 321.601 332.328 296.955 256.964C272.309 181.599 243.504 149.064 171.963 200.039C100.423 251.013 71.9341 307.38 54.3473 350.832C36.7605 394.285 -98.3872 349.71 -133.3 442.911C-168.213 536.112 -133.695 542.256 -110.819 648.532Z" stroke="url(#paint25_linear_205_2407)" stroke-opacity="0.2" stroke-width="1.25714"/>
<path opacity="0.628571" fill-rule="evenodd" clip-rule="evenodd" d="M-111.672 643.449C-90.11 750.224 -184.987 816.378 -79.9336 892.694C25.1201 969.011 168.989 858.695 180.366 702.534C191.743 546.374 189.874 480.297 223.077 451.669C256.279 423.042 324.192 338.268 300.487 262.339C276.782 186.411 248.399 153.178 176.305 202.33C104.211 251.481 75.0626 307.098 56.9634 350.081C38.8641 393.065 -95.6147 345.143 -131.63 437.408C-167.644 529.673 -133.233 536.675 -111.672 643.449Z" stroke="url(#paint26_linear_205_2407)" stroke-opacity="0.2" stroke-width="1.25714"/>
<path opacity="0.614286" fill-rule="evenodd" clip-rule="evenodd" d="M-112.462 638.352C-92.2204 745.592 -187.814 809.331 -83.7881 888.22C20.2379 967.109 165.315 860.463 178.582 704.693C191.85 548.923 190.787 482.844 224.307 455.066C257.827 427.288 326.708 344.268 303.95 267.799C281.191 191.33 253.24 157.411 180.615 204.727C107.99 252.044 78.1923 306.895 59.5867 349.397C40.9811 391.899 -92.788 340.65 -129.892 431.952C-166.997 523.254 -132.703 531.112 -112.462 638.352Z" stroke="url(#paint27_linear_205_2407)" stroke-opacity="0.2" stroke-width="1.25714"/>
<path opacity="0.6" fill-rule="evenodd" clip-rule="evenodd" d="M-113.188 633.237C-94.272 740.91 -190.552 802.218 -87.5846 883.652C15.3826 965.086 161.621 862.135 176.774 706.803C191.926 551.47 191.669 485.409 225.496 458.487C259.322 431.565 329.149 350.322 307.343 273.336C285.537 196.35 258.025 161.756 184.893 207.227C111.761 252.698 81.3226 306.767 62.217 348.775C43.1113 390.783 -89.9076 336.228 -128.089 426.542C-166.27 516.855 -132.105 525.564 -113.188 633.237Z" stroke="url(#paint28_linear_205_2407)" stroke-opacity="0.2" stroke-width="1.25714"/>
<path opacity="0.585714" fill-rule="evenodd" clip-rule="evenodd" d="M-113.851 628.111C-96.2647 736.184 -193.2 795.046 -91.3224 878.996C10.5554 962.946 157.91 863.717 174.94 708.867C191.97 554.018 192.518 487.995 226.641 461.936C260.763 435.877 331.514 356.432 310.667 278.954C289.819 201.476 262.754 166.218 189.137 209.832C115.52 253.446 84.4523 306.718 64.853 348.221C45.2537 389.724 -86.9748 331.884 -126.22 421.183C-165.465 510.482 -131.438 520.038 -113.851 628.111Z" stroke="url(#paint29_linear_205_2407)" stroke-opacity="0.2" stroke-width="1.25714"/>
<path opacity="0.571429" fill-rule="evenodd" clip-rule="evenodd" d="M-114.451 622.973C-98.1975 731.412 -195.758 787.814 -95 874.251C5.75814 960.688 154.182 865.204 173.083 710.884C191.983 556.564 193.335 490.6 227.743 465.41C262.151 440.22 333.802 362.595 313.919 284.649C294.035 206.702 267.426 170.792 193.347 212.539C119.268 254.286 87.5807 306.747 67.4944 347.733C47.408 388.718 -83.9903 327.616 -124.286 415.876C-164.582 504.135 -130.704 514.534 -114.451 622.973Z" stroke="url(#paint30_linear_205_2407)" stroke-opacity="0.2" stroke-width="1.25714"/>
<path opacity="0.557143" fill-rule="evenodd" clip-rule="evenodd" d="M-114.987 617.825C-100.071 726.597 -198.226 780.527 -98.6175 869.42C0.991152 958.314 150.437 866.598 171.201 712.854C191.964 559.109 194.119 493.222 228.801 468.908C263.483 444.594 336.012 368.809 317.098 290.419C298.183 212.028 272.037 175.478 197.52 215.348C123.003 255.218 90.706 306.853 70.1392 347.31C49.5724 387.767 -80.9559 323.427 -122.289 410.621C-163.623 497.816 -129.903 509.053 -114.987 617.825Z" stroke="url(#paint31_linear_205_2407)" stroke-opacity="0.2" stroke-width="1.25714"/>
<path opacity="0.542857" fill-rule="evenodd" clip-rule="evenodd" d="M-115.46 612.668C-101.884 721.739 -200.603 773.184 -102.173 864.504C-3.74329 955.823 146.678 867.897 169.296 714.774C191.914 561.65 194.87 495.861 229.815 472.428C264.76 448.996 338.145 375.071 320.204 296.261C302.263 217.451 276.587 180.274 201.655 218.258C126.723 256.242 93.828 307.036 72.7876 346.953C51.7473 386.87 -77.8719 319.316 -120.229 405.421C-162.586 491.525 -129.036 503.597 -115.46 612.668Z" stroke="url(#paint32_linear_205_2407)" stroke-opacity="0.2" stroke-width="1.25714"/>
<path opacity="0.528571" fill-rule="evenodd" clip-rule="evenodd" d="M-115.868 607.505C-103.635 716.843 -202.887 765.791 -105.665 859.504C-8.4435 953.218 142.906 869.103 167.37 716.646C191.833 564.188 195.589 498.517 230.786 475.971C265.983 453.426 340.199 381.382 323.236 302.177C306.273 222.972 281.076 185.178 205.753 221.268C130.429 257.358 96.9462 307.298 75.4392 346.663C53.9322 386.028 -74.7389 315.286 -118.105 400.277C-161.472 485.268 -128.101 498.168 -115.868 607.505Z" stroke="url(#paint33_linear_205_2407)" stroke-opacity="0.2" stroke-width="1.25714"/>
<path opacity="0.514286" fill-rule="evenodd" clip-rule="evenodd" d="M-116.213 602.337C-105.326 711.907 -205.079 758.347 -109.094 854.423C-13.1086 950.499 139.121 870.214 165.421 718.467C191.721 566.721 196.274 501.187 231.713 479.535C267.151 457.882 342.174 387.736 326.194 308.161C310.214 228.585 285.501 190.189 209.81 224.376C134.119 258.564 100.059 307.636 78.0924 346.439C56.1259 385.241 -71.5586 311.338 -115.92 395.191C-160.281 479.044 -127.1 492.767 -116.213 602.337Z" stroke="url(#paint34_linear_205_2407)" stroke-opacity="0.2" stroke-width="1.25714"/>
<path opacity="0.5" fill-rule="evenodd" clip-rule="evenodd" d="M-116.495 597.166C-106.955 706.934 -207.179 750.857 -112.458 849.262C-17.7382 947.667 135.325 871.23 163.451 720.24C191.577 569.25 196.925 503.873 232.594 483.118C268.262 462.363 344.069 394.134 329.075 314.213C314.081 234.292 289.861 195.305 213.826 227.583C137.791 259.861 103.165 308.051 80.7457 346.281C58.327 384.51 -68.3327 307.473 -113.675 390.164C-159.016 472.856 -126.034 487.397 -116.495 597.166Z" stroke="url(#paint35_linear_205_2407)" stroke-opacity="0.2" stroke-width="1.25714"/>
<path opacity="0.485714" fill-rule="evenodd" clip-rule="evenodd" d="M-116.711 591.992C-108.52 701.925 -209.183 743.322 -115.756 844.022C-22.328 944.722 131.52 872.151 161.462 721.961C191.404 571.772 197.545 506.572 233.432 486.72C269.32 466.867 345.886 400.573 331.882 320.331C317.878 240.089 294.157 200.524 217.801 230.886C141.446 261.248 106.265 308.543 83.401 346.189C60.5373 383.834 -65.0597 303.691 -111.367 385.198C-157.674 466.705 -124.902 482.058 -116.711 591.992Z" stroke="url(#paint36_linear_205_2407)" stroke-opacity="0.2" stroke-width="1.25714"/>
<path opacity="0.471429" fill-rule="evenodd" clip-rule="evenodd" d="M-116.865 586.817C-110.025 696.882 -211.096 735.743 -118.988 838.705C-26.8804 941.666 127.705 872.975 159.451 723.631C191.198 574.287 198.129 509.283 234.224 490.338C270.319 471.393 347.62 407.049 334.61 326.512C321.599 245.974 298.384 205.845 221.732 234.284C145.079 262.723 109.355 309.111 86.054 346.162C62.7528 383.213 -61.744 299.994 -109.002 380.293C-156.259 460.592 -123.706 476.752 -116.865 586.817Z" stroke="url(#paint37_linear_205_2407)" stroke-opacity="0.2" stroke-width="1.25714"/>
<path opacity="0.457143" fill-rule="evenodd" clip-rule="evenodd" d="M-116.955 581.644C-111.465 691.807 -212.913 728.125 -122.152 833.312C-31.3909 938.5 123.883 873.705 157.423 725.25C190.963 576.795 198.681 512.006 234.972 493.972C271.264 475.939 349.276 413.563 337.261 332.755C325.247 251.946 302.545 211.265 225.62 237.776C148.694 264.288 112.438 309.755 88.7069 346.201C64.9758 382.647 -58.3839 296.382 -106.576 375.452C-154.769 454.521 -122.444 471.481 -116.955 581.644Z" stroke="url(#paint38_linear_205_2407)" stroke-opacity="0.2" stroke-width="1.25714"/>
<path opacity="0.442857" fill-rule="evenodd" clip-rule="evenodd" d="M-116.981 576.474C-112.843 686.701 -214.635 720.47 -125.248 827.848C-35.8604 935.226 120.054 874.339 155.375 726.817C190.696 579.295 199.198 514.741 235.674 497.623C272.151 480.505 350.849 420.113 339.834 339.058C328.818 258.004 306.635 216.784 229.461 241.363C152.286 265.941 115.51 310.476 91.3566 346.307C67.2033 382.139 -54.9825 292.859 -104.094 370.676C-153.206 448.493 -121.12 466.247 -116.981 576.474Z" stroke="url(#paint39_linear_205_2407)" stroke-opacity="0.2" stroke-width="1.25714"/>
<path opacity="0.428571" fill-rule="evenodd" clip-rule="evenodd" d="M-116.944 571.307C-114.157 681.564 -216.263 712.777 -128.274 822.309C-40.2861 931.841 116.221 874.875 153.31 728.33C190.399 581.784 199.682 517.484 236.332 501.285C272.982 485.086 352.342 426.692 342.328 345.417C332.314 264.142 310.656 222.397 233.256 245.038C155.856 267.68 118.572 311.27 94.004 346.477C69.4363 381.683 -51.5394 289.421 -101.554 365.965C-151.569 442.508 -119.731 461.049 -116.944 571.307Z" stroke="url(#paint40_linear_205_2407)" stroke-opacity="0.2" stroke-width="1.25714"/>
<path opacity="0.414286" fill-rule="evenodd" clip-rule="evenodd" d="M-116.844 566.148C-115.407 676.402 -217.795 705.053 -131.232 816.703C-44.6684 928.353 112.382 875.319 151.227 729.792C190.071 584.265 200.131 520.239 236.943 504.962C273.756 489.686 353.752 433.306 344.741 351.834C335.73 270.363 314.604 228.107 237.003 248.808C159.402 269.508 121.621 312.142 96.6466 346.714C71.6725 381.286 -48.0574 286.074 -98.9591 361.323C-149.861 436.572 -118.281 455.893 -116.844 566.148Z" stroke="url(#paint41_linear_205_2407)" stroke-opacity="0.2" stroke-width="1.25714"/>
<path opacity="0.4" fill-rule="evenodd" clip-rule="evenodd" d="M-116.681 560.995C-116.594 671.212 -219.232 697.298 -134.118 811.027C-49.0049 924.757 108.541 875.665 149.127 731.2C189.713 586.735 200.546 523.001 237.509 508.65C274.473 494.3 355.08 439.946 347.074 358.304C339.068 276.662 318.479 233.908 240.701 252.665C162.923 271.422 124.657 313.088 99.2846 347.016C73.9122 380.944 -44.5364 282.817 -96.3086 356.75C-148.081 430.683 -116.768 450.777 -116.681 560.995Z" stroke="url(#paint42_linear_205_2407)" stroke-opacity="0.2" stroke-width="1.25714"/>
<path opacity="0.385714" fill-rule="evenodd" clip-rule="evenodd" d="M-116.454 555.851C-117.715 665.999 -220.572 689.515 -136.933 805.286C-53.2938 921.058 104.698 875.915 147.012 732.555C189.326 589.194 200.928 525.771 238.03 512.349C275.133 498.927 356.326 446.613 349.327 364.826C342.328 283.039 322.282 239.801 244.35 256.611C166.419 273.422 127.681 314.109 101.918 347.384C76.1552 380.659 -40.9773 279.65 -93.6032 352.247C-146.229 424.845 -115.193 445.704 -116.454 555.851Z" stroke="url(#paint43_linear_205_2407)" stroke-opacity="0.2" stroke-width="1.25714"/>
<path opacity="0.371429" fill-rule="evenodd" clip-rule="evenodd" d="M-116.164 550.719C-118.772 660.763 -221.816 681.706 -139.675 799.481C-57.5348 917.256 100.855 876.07 144.882 733.856C188.908 591.641 201.275 528.548 238.505 516.057C275.736 503.566 357.49 453.305 351.498 371.398C345.507 289.491 326.009 245.783 247.948 260.645C169.887 275.507 130.689 315.204 104.545 347.817C78.4 380.429 -37.3818 276.575 -90.8445 347.817C-144.307 419.058 -113.557 440.675 -116.164 550.719Z" stroke="url(#paint44_linear_205_2407)" stroke-opacity="0.2" stroke-width="1.25714"/>
<path opacity="0.357143" fill-rule="evenodd" clip-rule="evenodd" d="M-115.811 545.599C-119.763 655.506 -222.963 673.875 -142.344 793.613C-61.7255 913.352 97.0134 876.129 142.738 735.102C188.462 594.075 201.588 531.331 238.935 519.774C276.282 508.216 358.572 460.02 353.589 378.018C348.605 296.015 329.662 251.851 251.496 264.764C173.329 277.676 133.684 316.373 107.165 348.315C80.6471 380.256 -33.7502 273.593 -88.0326 343.459C-142.315 413.325 -111.859 435.692 -115.811 545.599Z" stroke="url(#paint45_linear_205_2407)" stroke-opacity="0.2" stroke-width="1.25714"/>
<path opacity="0.342857" fill-rule="evenodd" clip-rule="evenodd" d="M-115.397 540.491C-120.691 650.227 -224.014 666.02 -144.941 787.683C-65.8671 909.345 93.172 876.091 140.578 736.293C187.984 596.494 201.866 534.117 239.318 523.495C276.77 512.873 359.569 466.753 355.595 384.681C351.62 302.608 333.237 258.003 254.989 268.965C176.74 279.927 136.66 317.614 109.777 348.876C82.8933 380.137 -30.0859 270.702 -85.1705 339.174C-140.255 407.646 -110.103 430.755 -115.397 540.491Z" stroke="url(#paint46_linear_205_2407)" stroke-opacity="0.2" stroke-width="1.25714"/>
<path opacity="0.328571" fill-rule="evenodd" clip-rule="evenodd" d="M-114.92 535.401C-121.553 644.934 -224.969 658.151 -147.463 781.697C-69.9566 905.243 89.3339 875.96 138.406 737.431C187.478 598.902 202.11 536.911 239.655 527.226C277.201 517.542 360.483 473.508 357.518 391.391C354.553 309.274 336.734 264.241 258.428 273.253C180.122 282.265 139.62 318.931 112.38 349.505C85.1398 380.078 -26.3883 267.909 -82.2576 334.968C-138.127 402.026 -108.287 425.869 -114.92 535.401Z" stroke="url(#paint47_linear_205_2407)" stroke-opacity="0.2" stroke-width="1.25714"/>
<path opacity="0.314286" fill-rule="evenodd" clip-rule="evenodd" d="M-114.38 530.325C-122.348 639.621 -225.825 650.261 -149.908 775.65C-73.992 901.039 85.5011 875.731 136.222 738.511C186.943 601.292 202.321 539.705 239.948 530.958C277.575 522.212 361.316 480.275 359.36 398.139C357.403 316.002 340.153 270.557 261.814 277.618C183.475 284.68 142.562 320.317 114.975 350.194C87.3868 380.071 -22.6577 265.207 -79.2938 330.835C-135.93 396.462 -106.412 421.03 -114.38 530.325Z" stroke="url(#paint48_linear_205_2407)" stroke-opacity="0.2" stroke-width="1.25714"/>
<path opacity="0.3" fill-rule="evenodd" clip-rule="evenodd" d="M-113.779 525.27C-123.079 634.295 -226.585 642.361 -152.28 769.551C-77.9745 896.742 81.6726 875.408 134.026 739.538C186.379 603.668 202.496 542.503 240.194 534.697C277.891 526.89 362.064 487.059 361.116 404.928C360.168 322.797 343.492 276.954 265.143 282.066C186.794 287.179 145.485 321.777 117.558 350.95C89.6311 380.122 -18.8977 262.603 -76.2827 326.782C-133.668 390.96 -104.479 416.244 -113.779 525.27Z" stroke="url(#paint49_linear_205_2407)" stroke-opacity="0.2" stroke-width="1.25714"/>
<path opacity="0.285714" fill-rule="evenodd" clip-rule="evenodd" d="M-113.118 520.235C-123.745 628.958 -227.248 634.45 -154.575 763.4C-81.902 892.35 77.8502 874.991 131.818 740.51C185.785 606.028 202.637 545.304 240.393 538.438C278.149 531.572 362.728 493.855 362.788 411.755C362.848 329.655 346.75 283.428 268.415 286.594C190.08 289.759 148.388 323.309 120.13 351.77C91.8731 380.23 -15.1086 260.096 -73.2242 322.808C-131.34 385.52 -102.49 411.512 -113.118 520.235Z" stroke="url(#paint50_linear_205_2407)" stroke-opacity="0.2" stroke-width="1.25714"/>
<path opacity="0.271429" fill-rule="evenodd" clip-rule="evenodd" d="M-112.393 515.218C-124.344 623.605 -227.813 626.527 -156.792 757.194C-85.7719 887.86 74.0367 874.476 129.601 741.422C185.165 608.369 202.744 548.102 240.548 542.177C278.352 536.252 363.309 500.658 364.377 418.614C365.444 336.57 349.928 289.975 271.631 291.195C193.334 292.415 151.271 324.909 122.692 352.65C94.1136 380.391 -11.29 257.683 -70.1178 318.912C-128.946 380.141 -100.443 406.831 -112.393 515.218Z" stroke="url(#paint51_linear_205_2407)" stroke-opacity="0.2" stroke-width="1.25714"/>
<path opacity="0.257143" fill-rule="evenodd" clip-rule="evenodd" d="M-111.609 510.228C-124.878 618.247 -228.281 618.601 -158.933 750.942C-89.5853 883.283 70.2311 873.869 127.373 742.282C184.515 610.695 202.817 550.904 240.656 545.92C278.495 540.936 363.807 507.473 365.879 425.51C367.952 343.547 353.023 296.598 274.788 295.876C196.552 295.154 154.132 326.583 125.241 353.597C96.3497 380.611 -7.44544 255.371 -66.9668 315.101C-126.488 374.83 -98.3408 402.209 -111.609 510.228Z" stroke="url(#paint52_linear_205_2407)" stroke-opacity="0.2" stroke-width="1.25714"/>
<path opacity="0.242857" fill-rule="evenodd" clip-rule="evenodd" d="M-110.764 505.26C-125.345 612.878 -228.652 610.668 -160.996 744.64C-93.34 878.612 66.4357 873.166 125.137 743.082C183.837 612.999 202.855 553.702 240.718 549.66C278.582 545.617 364.221 514.291 367.297 432.433C370.373 350.576 356.035 303.288 277.885 300.628C199.735 297.967 156.97 328.324 127.776 354.603C98.5819 380.883 -3.57488 253.154 -63.771 311.369C-123.967 369.583 -96.1833 397.642 -110.764 505.26Z" stroke="url(#paint53_linear_205_2407)" stroke-opacity="0.2" stroke-width="1.25714"/>
<path opacity="0.228571" fill-rule="evenodd" clip-rule="evenodd" d="M-109.859 500.318C-125.747 607.503 -228.926 602.735 -162.98 738.294C-97.0348 873.853 62.6517 872.37 122.892 743.828C183.132 615.286 202.859 556.5 240.735 553.398C278.611 550.296 364.551 521.113 368.629 439.386C372.707 357.66 358.964 310.048 280.923 305.453C202.882 300.858 159.786 330.135 130.298 355.673C100.809 381.212 0.320426 251.037 -60.5315 307.721C-121.383 364.405 -93.9712 393.133 -109.859 500.318Z" stroke="url(#paint54_linear_205_2407)" stroke-opacity="0.2" stroke-width="1.25714"/>
<path opacity="0.214286" fill-rule="evenodd" clip-rule="evenodd" d="M-108.895 495.406C-126.083 602.125 -229.102 594.805 -164.886 731.906C-100.669 869.008 58.8794 871.481 120.639 744.518C182.399 617.554 202.829 559.296 240.706 557.135C278.583 554.973 364.797 527.938 369.875 446.368C374.953 364.798 361.808 316.877 283.899 310.352C205.991 303.827 162.577 332.016 132.804 356.807C103.031 381.598 4.23848 249.021 -57.2502 304.16C-118.739 359.299 -91.706 388.687 -108.895 495.406Z" stroke="url(#paint55_linear_205_2407)" stroke-opacity="0.2" stroke-width="1.25714"/>
<path opacity="0.2" fill-rule="evenodd" clip-rule="evenodd" d="M-107.871 490.52C-126.353 596.741 -229.182 586.875 -166.713 725.474C-104.243 864.074 55.1206 870.497 118.38 745.148C181.639 619.799 202.765 562.086 240.631 560.864C278.498 559.642 364.96 534.761 371.035 453.371C377.11 371.981 364.566 323.767 286.814 315.317C209.061 306.867 165.344 333.962 135.295 358C105.246 382.037 8.17853 247.102 -53.9275 300.681C-116.034 354.26 -89.3881 384.298 -107.871 490.52Z" stroke="url(#paint56_linear_205_2407)" stroke-opacity="0.2" stroke-width="1.25714"/>
<path opacity="0.185714" fill-rule="evenodd" clip-rule="evenodd" d="M-106.787 485.663C-126.556 591.355 -229.164 578.95 -168.458 719.002C-107.752 859.054 51.3775 869.418 116.115 745.72C180.853 622.022 202.667 564.871 240.512 564.588C278.357 564.304 365.041 541.579 372.11 460.395C379.179 379.21 367.24 330.719 289.667 320.35C212.093 309.98 168.086 335.975 137.771 359.252C107.456 382.529 12.1406 245.283 -50.5633 297.288C-113.267 349.294 -87.0168 379.97 -106.787 485.663Z" stroke="url(#paint57_linear_205_2407)" stroke-opacity="0.2" stroke-width="1.25714"/>
<path opacity="0.171429" fill-rule="evenodd" clip-rule="evenodd" d="M-105.646 480.84C-126.695 585.972 -229.051 571.035 -170.125 712.495C-111.199 853.954 47.6484 868.249 113.844 746.238C180.039 624.226 202.534 567.654 240.346 568.307C278.158 568.96 365.037 548.396 373.097 467.441C381.157 386.487 369.825 337.733 292.454 325.451C215.084 313.168 170.8 338.057 140.228 360.568C109.657 383.079 16.1205 243.567 -47.1618 293.985C-110.444 344.403 -84.596 375.709 -105.646 480.84Z" stroke="url(#paint58_linear_205_2407)" stroke-opacity="0.2" stroke-width="1.25714"/>
<path opacity="0.157143" fill-rule="evenodd" clip-rule="evenodd" d="M-104.446 476.052C-126.768 580.592 -228.841 563.133 -171.711 705.954C-114.581 848.775 43.937 866.991 111.568 746.7C179.2 626.409 202.369 570.432 240.136 572.02C277.903 573.608 364.951 555.207 373.998 474.508C383.045 393.808 372.324 344.807 295.179 330.618C218.035 316.43 173.487 340.206 142.669 361.945C111.85 383.684 20.1195 241.953 -43.7213 290.771C-107.562 339.589 -82.124 371.513 -104.446 476.052Z" stroke="url(#paint59_linear_205_2407)" stroke-opacity="0.2" stroke-width="1.25714"/>
<path opacity="0.142857" fill-rule="evenodd" clip-rule="evenodd" d="M-103.189 471.297C-126.774 575.212 -228.534 555.241 -173.216 699.377C-117.897 843.514 40.2433 865.637 109.289 747.102C178.334 628.566 202.169 573.2 239.88 575.721C277.591 578.242 364.781 562.008 374.812 481.587C384.843 401.166 374.734 351.933 297.839 335.846C220.943 319.76 176.146 342.418 145.09 363.38C114.034 384.342 24.1352 240.439 -40.2443 287.644C-104.624 334.85 -79.6028 367.381 -103.189 471.297Z" stroke="url(#paint60_linear_205_2407)" stroke-opacity="0.2" stroke-width="1.25714"/>
<path opacity="0.128571" fill-rule="evenodd" clip-rule="evenodd" d="M-101.874 466.578C-126.716 569.839 -228.132 547.365 -174.64 692.77C-121.148 838.175 36.5683 864.194 107.005 747.447C177.442 630.7 201.935 575.962 239.579 579.414C277.222 582.866 364.528 568.798 375.538 488.681C386.549 408.563 377.056 359.114 300.432 341.137C223.809 323.16 178.777 344.695 147.493 364.875C116.209 385.054 28.1664 239.027 -36.7317 284.609C-101.63 330.19 -77.0332 363.317 -101.874 466.578Z" stroke="url(#paint61_linear_205_2407)" stroke-opacity="0.2" stroke-width="1.25714"/>
<path opacity="0.114286" fill-rule="evenodd" clip-rule="evenodd" d="M-100.503 461.896C-126.591 564.472 -227.633 539.506 -175.982 686.133C-124.33 832.76 32.914 862.66 104.72 747.735C176.525 632.81 201.668 578.715 239.233 583.095C276.799 587.475 364.193 575.575 376.179 495.785C388.165 415.995 379.289 366.346 302.961 346.487C226.632 326.629 181.378 347.035 149.876 366.427C118.373 385.82 32.2126 237.717 -33.184 281.663C-98.5806 325.608 -74.4152 359.321 -100.503 461.896Z" stroke="url(#paint62_linear_205_2407)" stroke-opacity="0.2" stroke-width="1.25714"/>
<path opacity="0.1" fill-rule="evenodd" clip-rule="evenodd" d="M-99.0759 457.253C-126.401 559.112 -227.039 531.667 -177.242 679.469C-127.445 827.27 29.2809 861.035 102.432 747.964C175.584 634.894 201.368 581.458 238.843 586.763C276.319 592.068 363.776 582.337 376.732 502.898C389.688 423.46 381.433 373.626 305.422 351.895C229.411 330.164 183.949 349.437 152.238 368.038C120.527 386.638 36.2718 236.51 -29.6029 278.808C-95.4777 321.107 -71.7504 355.394 -99.0759 457.253Z" stroke="url(#paint63_linear_205_2407)" stroke-opacity="0.2" stroke-width="1.25714"/>
<path opacity="0.0857143" fill-rule="evenodd" clip-rule="evenodd" d="M-97.5938 452.651C-126.147 553.764 -226.351 523.852 -178.421 672.781C-130.491 821.709 25.6693 859.323 100.143 748.138C174.616 636.954 201.034 584.192 238.408 590.42C275.782 596.647 363.276 589.083 377.198 510.02C391.119 430.958 383.485 380.954 307.814 357.361C232.143 333.767 186.488 351.904 154.578 369.708C122.669 387.512 40.3422 235.406 -25.9903 276.048C-92.3229 316.69 -69.0404 351.538 -97.5938 452.651Z" stroke="url(#paint64_linear_205_2407)" stroke-opacity="0.2" stroke-width="1.25714"/>
<path opacity="0.0714286" fill-rule="evenodd" clip-rule="evenodd" d="M-96.0558 448.09C-125.827 548.426 -225.567 516.06 -179.517 666.068C-133.466 816.076 22.082 857.52 97.8537 748.253C173.625 638.986 200.668 586.914 237.929 594.06C275.191 601.207 362.695 595.809 377.577 517.146C392.459 438.482 385.448 388.326 310.139 362.879C234.831 337.433 188.996 354.43 156.897 371.433C124.799 388.436 44.424 234.404 -22.3458 273.379C-89.1157 312.354 -66.2845 347.753 -96.0558 448.09Z" stroke="url(#paint65_linear_205_2407)" stroke-opacity="0.2" stroke-width="1.25714"/>
<path opacity="0.0571429" fill-rule="evenodd" clip-rule="evenodd" d="M-94.4638 443.572C-125.443 543.102 -224.689 508.296 -180.53 659.335C-136.371 810.374 18.5186 855.63 95.5642 748.311C172.61 640.993 200.268 589.625 237.406 597.686C274.545 605.748 362.031 602.515 377.868 524.275C393.705 446.034 387.318 395.74 312.395 368.452C237.472 341.164 191.47 357.017 159.193 373.216C126.916 389.414 48.5146 233.506 -18.6719 270.805C-85.8584 308.103 -63.4849 344.041 -94.4638 443.572Z" stroke="url(#paint66_linear_205_2407)" stroke-opacity="0.2" stroke-width="1.25714"/>
<path opacity="0.0428571" fill-rule="evenodd" clip-rule="evenodd" d="M-92.8177 439.097C-124.994 537.792 -223.717 500.56 -181.461 652.582C-139.205 804.603 14.9812 853.651 93.2761 748.311C171.571 642.97 199.836 592.322 236.84 601.295C273.844 610.267 361.288 609.196 378.073 531.403C394.859 453.609 389.098 403.193 314.582 374.075C240.066 344.957 193.913 359.662 161.466 375.053C129.02 390.443 52.6137 232.71 -14.9688 268.324C-82.5513 303.937 -60.6418 340.402 -92.8177 439.097Z" stroke="url(#paint67_linear_205_2407)" stroke-opacity="0.2" stroke-width="1.25714"/>
<path opacity="0.0285714" fill-rule="evenodd" clip-rule="evenodd" d="M-91.1188 434.671C-124.473 532.477 -222.643 492.83 -182.292 645.759C-141.941 798.688 11.4927 851.515 91.0019 748.215C170.511 644.915 199.369 595.015 236.226 604.898C273.084 614.78 360.455 615.879 378.178 538.574C395.901 461.27 390.764 410.757 316.677 379.817C242.591 348.877 196.303 362.424 163.7 376.995C131.097 391.567 56.6994 232.085 -11.2533 265.988C-79.2059 299.892 -57.7648 336.866 -91.1188 434.671Z" stroke="url(#paint68_linear_205_2407)" stroke-opacity="0.2" stroke-width="1.25714"/>
<path opacity="0.0142857" fill-rule="evenodd" clip-rule="evenodd" d="M-89.4119 430.255C-123.952 527.202 -221.567 485.153 -183.133 639.017C-144.698 792.882 7.97955 849.467 88.7122 748.165C169.445 646.862 198.9 597.692 235.611 608.478C272.322 619.264 359.621 622.515 378.287 545.675C396.954 468.836 392.444 418.216 318.79 385.464C245.136 352.711 198.711 365.113 165.95 378.876C133.188 392.639 60.8111 231.385 -7.51504 263.603C-75.8412 295.82 -54.8714 333.308 -89.4119 430.255Z" stroke="url(#paint69_linear_205_2407)" stroke-opacity="0.2" stroke-width="1.25714"/>
</g>
<defs>
<linearGradient id="paint0_linear_205_2407" x1="47.2638" y1="1055.83" x2="-365.259" y2="756.077" gradientUnits="userSpaceOnUse">
<stop stop-color="#9EE1EC"/>
<stop offset="1" stop-color="#E5A7E0"/>
</linearGradient>
<linearGradient id="paint1_linear_205_2407" x1="41.3196" y1="1054.36" x2="-368.401" y2="746.056" gradientUnits="userSpaceOnUse">
<stop stop-color="#9EE1EC"/>
<stop offset="1" stop-color="#E5A7E0"/>
</linearGradient>
<linearGradient id="paint2_linear_205_2407" x1="35.3981" y1="1052.75" x2="-371.32" y2="735.789" gradientUnits="userSpaceOnUse">
<stop stop-color="#9EE1EC"/>
<stop offset="1" stop-color="#E5A7E0"/>
</linearGradient>
<linearGradient id="paint3_linear_205_2407" x1="29.501" y1="1051" x2="-374.005" y2="725.279" gradientUnits="userSpaceOnUse">
<stop stop-color="#9EE1EC"/>
<stop offset="1" stop-color="#E5A7E0"/>
</linearGradient>
<linearGradient id="paint4_linear_205_2407" x1="23.6303" y1="1049.1" x2="-376.442" y2="714.532" gradientUnits="userSpaceOnUse">
<stop stop-color="#9EE1EC"/>
<stop offset="1" stop-color="#E5A7E0"/>
</linearGradient>
<linearGradient id="paint5_linear_205_2407" x1="17.7873" y1="1047.05" x2="-378.619" y2="703.554" gradientUnits="userSpaceOnUse">
<stop stop-color="#9EE1EC"/>
<stop offset="1" stop-color="#E5A7E0"/>
</linearGradient>
<linearGradient id="paint6_linear_205_2407" x1="11.9742" y1="1044.87" x2="-380.522" y2="692.349" gradientUnits="userSpaceOnUse">
<stop stop-color="#9EE1EC"/>
<stop offset="1" stop-color="#E5A7E0"/>
</linearGradient>
<linearGradient id="paint7_linear_205_2407" x1="6.19254" y1="1042.54" x2="-382.139" y2="680.927" gradientUnits="userSpaceOnUse">
<stop stop-color="#9EE1EC"/>
<stop offset="1" stop-color="#E5A7E0"/>
</linearGradient>
<linearGradient id="paint8_linear_205_2407" x1="0.444153" y1="1040.07" x2="-383.456" y2="669.293" gradientUnits="userSpaceOnUse">
<stop stop-color="#9EE1EC"/>
<stop offset="1" stop-color="#E5A7E0"/>
</linearGradient>
<linearGradient id="paint9_linear_205_2407" x1="-5.2692" y1="1037.46" x2="-384.46" y2="657.46" gradientUnits="userSpaceOnUse">
<stop stop-color="#9EE1EC"/>
<stop offset="1" stop-color="#E5A7E0"/>
</linearGradient>
<linearGradient id="paint10_linear_205_2407" x1="-10.9465" y1="1034.71" x2="-385.138" y2="645.435" gradientUnits="userSpaceOnUse">
<stop stop-color="#9EE1EC"/>
<stop offset="1" stop-color="#E5A7E0"/>
</linearGradient>
<linearGradient id="paint11_linear_205_2407" x1="-16.585" y1="1031.83" x2="-385.477" y2="633.232" gradientUnits="userSpaceOnUse">
<stop stop-color="#9EE1EC"/>
<stop offset="1" stop-color="#E5A7E0"/>
</linearGradient>
<linearGradient id="paint12_linear_205_2407" x1="-22.1849" y1="1028.81" x2="-385.465" y2="620.857" gradientUnits="userSpaceOnUse">
<stop stop-color="#9EE1EC"/>
<stop offset="1" stop-color="#E5A7E0"/>
</linearGradient>
<linearGradient id="paint13_linear_205_2407" x1="-27.7418" y1="1025.65" x2="-385.088" y2="608.331" gradientUnits="userSpaceOnUse">
<stop stop-color="#9EE1EC"/>
<stop offset="1" stop-color="#E5A7E0"/>
</linearGradient>
<linearGradient id="paint14_linear_205_2407" x1="-33.2568" y1="1022.36" x2="-384.335" y2="595.663" gradientUnits="userSpaceOnUse">
<stop stop-color="#9EE1EC"/>
<stop offset="1" stop-color="#E5A7E0"/>
</linearGradient>
<linearGradient id="paint15_linear_205_2407" x1="-38.7269" y1="1018.93" x2="-383.193" y2="582.871" gradientUnits="userSpaceOnUse">
<stop stop-color="#9EE1EC"/>
<stop offset="1" stop-color="#E5A7E0"/>
</linearGradient>
<linearGradient id="paint16_linear_205_2407" x1="-44.1503" y1="1015.38" x2="-381.652" y2="569.971" gradientUnits="userSpaceOnUse">
<stop stop-color="#9EE1EC"/>
<stop offset="1" stop-color="#E5A7E0"/>
</linearGradient>
<linearGradient id="paint17_linear_205_2407" x1="-49.5263" y1="1011.69" x2="-379.702" y2="556.981" gradientUnits="userSpaceOnUse">
<stop stop-color="#9EE1EC"/>
<stop offset="1" stop-color="#E5A7E0"/>
</linearGradient>
<linearGradient id="paint18_linear_205_2407" x1="-54.8527" y1="1007.87" x2="-377.331" y2="543.92" gradientUnits="userSpaceOnUse">
<stop stop-color="#9EE1EC"/>
<stop offset="1" stop-color="#E5A7E0"/>
</linearGradient>
<linearGradient id="paint19_linear_205_2407" x1="-60.1287" y1="1003.93" x2="-374.533" y2="530.808" gradientUnits="userSpaceOnUse">
<stop stop-color="#9EE1EC"/>
<stop offset="1" stop-color="#E5A7E0"/>
</linearGradient>
<linearGradient id="paint20_linear_205_2407" x1="-65.3513" y1="999.854" x2="-371.298" y2="517.665" gradientUnits="userSpaceOnUse">
<stop stop-color="#9EE1EC"/>
<stop offset="1" stop-color="#E5A7E0"/>
</linearGradient>
<linearGradient id="paint21_linear_205_2407" x1="-70.5208" y1="995.656" x2="-367.622" y2="504.515" gradientUnits="userSpaceOnUse">
<stop stop-color="#9EE1EC"/>
<stop offset="1" stop-color="#E5A7E0"/>
</linearGradient>
<linearGradient id="paint22_linear_205_2407" x1="-75.6349" y1="991.334" x2="-363.497" y2="491.381" gradientUnits="userSpaceOnUse">
<stop stop-color="#9EE1EC"/>
<stop offset="1" stop-color="#E5A7E0"/>
</linearGradient>
<linearGradient id="paint23_linear_205_2407" x1="-80.6917" y1="986.889" x2="-358.921" y2="478.285" gradientUnits="userSpaceOnUse">
<stop stop-color="#9EE1EC"/>
<stop offset="1" stop-color="#E5A7E0"/>
</linearGradient>
<linearGradient id="paint24_linear_205_2407" x1="-85.6904" y1="982.324" x2="-353.89" y2="465.258" gradientUnits="userSpaceOnUse">
<stop stop-color="#9EE1EC"/>
<stop offset="1" stop-color="#E5A7E0"/>
</linearGradient>
<linearGradient id="paint25_linear_205_2407" x1="-90.6299" y1="977.639" x2="-348.406" y2="452.318" gradientUnits="userSpaceOnUse">
<stop stop-color="#9EE1EC"/>
<stop offset="1" stop-color="#E5A7E0"/>
</linearGradient>
<linearGradient id="paint26_linear_205_2407" x1="-95.5078" y1="972.836" x2="-342.467" y2="439.497" gradientUnits="userSpaceOnUse">
<stop stop-color="#9EE1EC"/>
<stop offset="1" stop-color="#E5A7E0"/>
</linearGradient>
<linearGradient id="paint27_linear_205_2407" x1="-100.323" y1="967.918" x2="-336.078" y2="426.821" gradientUnits="userSpaceOnUse">
<stop stop-color="#9EE1EC"/>
<stop offset="1" stop-color="#E5A7E0"/>
</linearGradient>
<linearGradient id="paint28_linear_205_2407" x1="-105.075" y1="962.883" x2="-329.243" y2="414.313" gradientUnits="userSpaceOnUse">
<stop stop-color="#9EE1EC"/>
<stop offset="1" stop-color="#E5A7E0"/>
</linearGradient>
<linearGradient id="paint29_linear_205_2407" x1="-109.761" y1="957.737" x2="-321.97" y2="402.005" gradientUnits="userSpaceOnUse">
<stop stop-color="#9EE1EC"/>
<stop offset="1" stop-color="#E5A7E0"/>
</linearGradient>
<linearGradient id="paint30_linear_205_2407" x1="-114.381" y1="952.479" x2="-314.267" y2="389.923" gradientUnits="userSpaceOnUse">
<stop stop-color="#9EE1EC"/>
<stop offset="1" stop-color="#E5A7E0"/>
</linearGradient>
<linearGradient id="paint31_linear_205_2407" x1="-118.933" y1="947.112" x2="-306.146" y2="378.093" gradientUnits="userSpaceOnUse">
<stop stop-color="#9EE1EC"/>
<stop offset="1" stop-color="#E5A7E0"/>
</linearGradient>
<linearGradient id="paint32_linear_205_2407" x1="-123.417" y1="941.636" x2="-297.621" y2="366.542" gradientUnits="userSpaceOnUse">
<stop stop-color="#9EE1EC"/>
<stop offset="1" stop-color="#E5A7E0"/>
</linearGradient>
<linearGradient id="paint33_linear_205_2407" x1="-127.829" y1="936.056" x2="-288.706" y2="355.297" gradientUnits="userSpaceOnUse">
<stop stop-color="#9EE1EC"/>
<stop offset="1" stop-color="#E5A7E0"/>
</linearGradient>
<linearGradient id="paint34_linear_205_2407" x1="-132.17" y1="930.371" x2="-279.42" y2="344.381" gradientUnits="userSpaceOnUse">
<stop stop-color="#9EE1EC"/>
<stop offset="1" stop-color="#E5A7E0"/>
</linearGradient>
<linearGradient id="paint35_linear_205_2407" x1="-136.439" y1="924.584" x2="-269.783" y2="333.82" gradientUnits="userSpaceOnUse">
<stop stop-color="#9EE1EC"/>
<stop offset="1" stop-color="#E5A7E0"/>
</linearGradient>
<linearGradient id="paint36_linear_205_2407" x1="-140.633" y1="918.697" x2="-259.815" y2="323.634" gradientUnits="userSpaceOnUse">
<stop stop-color="#9EE1EC"/>
<stop offset="1" stop-color="#E5A7E0"/>
</linearGradient>
<linearGradient id="paint37_linear_205_2407" x1="-144.753" y1="912.71" x2="-249.542" y2="313.844" gradientUnits="userSpaceOnUse">
<stop stop-color="#9EE1EC"/>
<stop offset="1" stop-color="#E5A7E0"/>
</linearGradient>
<linearGradient id="paint38_linear_205_2407" x1="-148.795" y1="906.627" x2="-238.989" y2="304.471" gradientUnits="userSpaceOnUse">
<stop stop-color="#9EE1EC"/>
<stop offset="1" stop-color="#E5A7E0"/>
</linearGradient>
<linearGradient id="paint39_linear_205_2407" x1="-152.761" y1="900.451" x2="-228.183" y2="295.532" gradientUnits="userSpaceOnUse">
<stop stop-color="#9EE1EC"/>
<stop offset="1" stop-color="#E5A7E0"/>
</linearGradient>
<linearGradient id="paint40_linear_205_2407" x1="-156.648" y1="894.18" x2="-217.151" y2="287.038" gradientUnits="userSpaceOnUse">
<stop stop-color="#9EE1EC"/>
<stop offset="1" stop-color="#E5A7E0"/>
</linearGradient>
<linearGradient id="paint41_linear_205_2407" x1="-160.456" y1="887.821" x2="-205.926" y2="279.009" gradientUnits="userSpaceOnUse">
<stop stop-color="#9EE1EC"/>
<stop offset="1" stop-color="#E5A7E0"/>
</linearGradient>
<linearGradient id="paint42_linear_205_2407" x1="-164.184" y1="881.371" x2="-194.537" y2="271.449" gradientUnits="userSpaceOnUse">
<stop stop-color="#9EE1EC"/>
<stop offset="1" stop-color="#E5A7E0"/>
</linearGradient>
<linearGradient id="paint43_linear_205_2407" x1="-167.83" y1="874.837" x2="-183.015" y2="264.369" gradientUnits="userSpaceOnUse">
<stop stop-color="#9EE1EC"/>
<stop offset="1" stop-color="#E5A7E0"/>
</linearGradient>
<linearGradient id="paint44_linear_205_2407" x1="-171.393" y1="868.217" x2="-171.393" y2="257.773" gradientUnits="userSpaceOnUse">
<stop stop-color="#9EE1EC"/>
<stop offset="1" stop-color="#E5A7E0"/>
</linearGradient>
<linearGradient id="paint45_linear_205_2407" x1="-174.872" y1="861.516" x2="-159.702" y2="251.665" gradientUnits="userSpaceOnUse">
<stop stop-color="#9EE1EC"/>
<stop offset="1" stop-color="#E5A7E0"/>
</linearGradient>
<linearGradient id="paint46_linear_205_2407" x1="-178.268" y1="854.733" x2="-147.976" y2="246.041" gradientUnits="userSpaceOnUse">
<stop stop-color="#9EE1EC"/>
<stop offset="1" stop-color="#E5A7E0"/>
</linearGradient>
<linearGradient id="paint47_linear_205_2407" x1="-181.579" y1="847.875" x2="-136.246" y2="240.905" gradientUnits="userSpaceOnUse">
<stop stop-color="#9EE1EC"/>
<stop offset="1" stop-color="#E5A7E0"/>
</linearGradient>
<linearGradient id="paint48_linear_205_2407" x1="-184.802" y1="840.938" x2="-124.542" y2="236.244" gradientUnits="userSpaceOnUse">
<stop stop-color="#9EE1EC"/>
<stop offset="1" stop-color="#E5A7E0"/>
</linearGradient>
<linearGradient id="paint49_linear_205_2407" x1="-187.939" y1="833.93" x2="-112.897" y2="232.057" gradientUnits="userSpaceOnUse">
<stop stop-color="#9EE1EC"/>
<stop offset="1" stop-color="#E5A7E0"/>
</linearGradient>
<linearGradient id="paint50_linear_205_2407" x1="-190.989" y1="826.851" x2="-101.34" y2="228.332" gradientUnits="userSpaceOnUse">
<stop stop-color="#9EE1EC"/>
<stop offset="1" stop-color="#E5A7E0"/>
</linearGradient>
<linearGradient id="paint51_linear_205_2407" x1="-193.948" y1="819.7" x2="-89.8967" y2="225.052" gradientUnits="userSpaceOnUse">
<stop stop-color="#9EE1EC"/>
<stop offset="1" stop-color="#E5A7E0"/>
</linearGradient>
<linearGradient id="paint52_linear_205_2407" x1="-196.82" y1="812.485" x2="-78.5966" y2="222.21" gradientUnits="userSpaceOnUse">
<stop stop-color="#9EE1EC"/>
<stop offset="1" stop-color="#E5A7E0"/>
</linearGradient>
<linearGradient id="paint53_linear_205_2407" x1="-199.601" y1="805.203" x2="-67.4635" y2="219.783" gradientUnits="userSpaceOnUse">
<stop stop-color="#9EE1EC"/>
<stop offset="1" stop-color="#E5A7E0"/>
</linearGradient>
<linearGradient id="paint54_linear_205_2407" x1="-202.291" y1="797.86" x2="-56.5205" y2="217.758" gradientUnits="userSpaceOnUse">
<stop stop-color="#9EE1EC"/>
<stop offset="1" stop-color="#E5A7E0"/>
</linearGradient>
<linearGradient id="paint55_linear_205_2407" x1="-204.89" y1="790.459" x2="-45.7898" y2="216.115" gradientUnits="userSpaceOnUse">
<stop stop-color="#9EE1EC"/>
<stop offset="1" stop-color="#E5A7E0"/>
</linearGradient>
<linearGradient id="paint56_linear_205_2407" x1="-207.396" y1="782.997" x2="-35.2902" y2="214.829" gradientUnits="userSpaceOnUse">
<stop stop-color="#9EE1EC"/>
<stop offset="1" stop-color="#E5A7E0"/>
</linearGradient>
<linearGradient id="paint57_linear_205_2407" x1="-209.809" y1="775.479" x2="-25.0376" y2="213.881" gradientUnits="userSpaceOnUse">
<stop stop-color="#9EE1EC"/>
<stop offset="1" stop-color="#E5A7E0"/>
</linearGradient>
<linearGradient id="paint58_linear_205_2407" x1="-212.13" y1="767.91" x2="-15.05" y2="213.25" gradientUnits="userSpaceOnUse">
<stop stop-color="#9EE1EC"/>
<stop offset="1" stop-color="#E5A7E0"/>
</linearGradient>
<linearGradient id="paint59_linear_205_2407" x1="-214.356" y1="760.292" x2="-5.33776" y2="212.914" gradientUnits="userSpaceOnUse">
<stop stop-color="#9EE1EC"/>
<stop offset="1" stop-color="#E5A7E0"/>
</linearGradient>
<linearGradient id="paint60_linear_205_2407" x1="-216.489" y1="752.623" x2="4.08725" y2="212.844" gradientUnits="userSpaceOnUse">
<stop stop-color="#9EE1EC"/>
<stop offset="1" stop-color="#E5A7E0"/>
</linearGradient>
<linearGradient id="paint61_linear_205_2407" x1="-218.526" y1="744.909" x2="13.2164" y2="213.021" gradientUnits="userSpaceOnUse">
<stop stop-color="#9EE1EC"/>
<stop offset="1" stop-color="#E5A7E0"/>
</linearGradient>
<linearGradient id="paint62_linear_205_2407" x1="-220.467" y1="737.152" x2="22.044" y2="213.419" gradientUnits="userSpaceOnUse">
<stop stop-color="#9EE1EC"/>
<stop offset="1" stop-color="#E5A7E0"/>
</linearGradient>
<linearGradient id="paint63_linear_205_2407" x1="-222.313" y1="729.352" x2="30.5646" y2="214.014" gradientUnits="userSpaceOnUse">
<stop stop-color="#9EE1EC"/>
<stop offset="1" stop-color="#E5A7E0"/>
</linearGradient>
<linearGradient id="paint64_linear_205_2407" x1="-224.063" y1="721.516" x2="38.775" y2="214.786" gradientUnits="userSpaceOnUse">
<stop stop-color="#9EE1EC"/>
<stop offset="1" stop-color="#E5A7E0"/>
</linearGradient>
<linearGradient id="paint65_linear_205_2407" x1="-225.715" y1="713.641" x2="46.676" y2="215.71" gradientUnits="userSpaceOnUse">
<stop stop-color="#9EE1EC"/>
<stop offset="1" stop-color="#E5A7E0"/>
</linearGradient>
<linearGradient id="paint66_linear_205_2407" x1="-227.271" y1="705.734" x2="54.2669" y2="216.765" gradientUnits="userSpaceOnUse">
<stop stop-color="#9EE1EC"/>
<stop offset="1" stop-color="#E5A7E0"/>
</linearGradient>
<linearGradient id="paint67_linear_205_2407" x1="-228.729" y1="697.794" x2="61.551" y2="217.928" gradientUnits="userSpaceOnUse">
<stop stop-color="#9EE1EC"/>
<stop offset="1" stop-color="#E5A7E0"/>
</linearGradient>
<linearGradient id="paint68_linear_205_2407" x1="-230.068" y1="689.756" x2="68.4786" y2="219.232" gradientUnits="userSpaceOnUse">
<stop stop-color="#9EE1EC"/>
<stop offset="1" stop-color="#E5A7E0"/>
</linearGradient>
<linearGradient id="paint69_linear_205_2407" x1="-231.42" y1="681.822" x2="75.1794" y2="220.447" gradientUnits="userSpaceOnUse">
<stop stop-color="#9EE1EC"/>
<stop offset="1" stop-color="#E5A7E0"/>
</linearGradient>
</defs>
</svg>
