<svg width="430" height="932" viewBox="0 0 430 932" fill="none" xmlns="http://www.w3.org/2000/svg">
<g style="mix-blend-mode:overlay">
<path fill-rule="evenodd" clip-rule="evenodd" d="M16.8285 882.337C71.6433 980.97 2.83872 1123.89 127.13 1126.63C251.421 1129.38 352.537 901.898 313.112 725.211C273.686 548.525 250.659 478.813 272.975 422.905C295.292 366.997 332.506 224.419 285.577 160.608C238.648 96.7967 201.011 82.4776 148.37 189.872C95.7283 297.266 85.9415 379.161 82.5821 439.107C79.2227 499.053 -63.8734 549.111 -68.392 675.643C-72.9106 802.174 -37.9864 783.704 16.8285 882.337Z" stroke="url(#paint0_linear_205_2303)" stroke-opacity="0.2" stroke-width="1.25714"/>
<path opacity="0.985714" fill-rule="evenodd" clip-rule="evenodd" d="M14.4136 877.415C68.1332 977.535 -2.13901 1118.37 122.023 1124.66C246.184 1130.95 349.643 906.543 312.132 728.871C274.622 551.199 252.355 480.885 275.25 425.658C298.145 370.431 336.848 229.028 290.637 163.927C244.426 98.8272 206.971 83.4451 153.228 189.252C99.4847 295.059 88.8331 376.61 84.8376 436.413C80.8421 496.215 -62.6721 542.149 -68.5355 668.452C-74.3989 794.755 -39.306 777.295 14.4136 877.415Z" stroke="url(#paint1_linear_205_2303)" stroke-opacity="0.2" stroke-width="1.25714"/>
<path opacity="0.971429" fill-rule="evenodd" clip-rule="evenodd" d="M12.0538 872.43C64.6628 974.004 -7.05319 1112.73 116.941 1122.56C240.934 1132.39 346.7 911.103 311.114 732.5C275.527 553.897 254.028 483.002 277.493 428.472C300.957 373.942 341.136 233.755 295.656 167.387C250.176 101.019 212.916 84.5796 158.089 188.77C103.262 292.96 91.7498 374.142 87.1202 433.784C82.4907 493.425 -61.3965 535.227 -68.6011 661.263C-75.8057 787.3 -40.5552 770.856 12.0538 872.43Z" stroke="url(#paint2_linear_205_2303)" stroke-opacity="0.2" stroke-width="1.25714"/>
<path opacity="0.957143" fill-rule="evenodd" clip-rule="evenodd" d="M9.74993 867.383C61.2335 970.379 -11.9022 1106.95 111.885 1120.31C235.673 1133.67 343.711 915.577 310.057 736.097C276.402 556.618 255.677 485.166 279.703 431.348C303.73 377.53 345.37 238.599 300.634 170.984C255.899 103.37 218.844 85.8802 162.952 188.424C107.059 290.968 94.6909 371.758 89.4296 431.221C84.1682 490.684 -60.0468 528.346 -68.5887 654.079C-77.1305 779.811 -41.7336 764.386 9.74993 867.383Z" stroke="url(#paint3_linear_205_2303)" stroke-opacity="0.2" stroke-width="1.25714"/>
<path opacity="0.942857" fill-rule="evenodd" clip-rule="evenodd" d="M7.5027 862.274C57.8462 966.66 -16.6847 1101.03 106.859 1117.92C230.402 1134.8 340.675 919.962 308.961 739.662C277.247 559.361 257.3 487.372 281.881 434.282C306.461 381.191 349.547 243.557 305.569 174.718C261.591 105.879 224.754 87.3455 167.814 188.214C110.874 289.083 97.6558 369.459 91.765 428.725C85.8743 487.992 -58.6233 521.509 -68.4981 646.9C-78.373 772.291 -42.8408 757.888 7.5027 862.274Z" stroke="url(#paint4_linear_205_2303)" stroke-opacity="0.2" stroke-width="1.25714"/>
<path opacity="0.928571" fill-rule="evenodd" clip-rule="evenodd" d="M5.31235 857.107C54.5016 962.85 -21.3997 1094.99 101.861 1115.39C225.122 1135.79 337.593 924.26 307.828 743.193C278.062 562.126 258.898 489.624 284.024 437.276C309.15 384.928 353.667 248.629 310.459 178.588C267.252 108.547 230.642 88.9766 172.675 188.143C114.707 287.309 100.643 367.245 94.1255 426.298C87.608 485.35 -57.1271 514.718 -68.3301 639.73C-79.5331 764.743 -43.8769 751.365 5.31235 857.107Z" stroke="url(#paint5_linear_205_2303)" stroke-opacity="0.2" stroke-width="1.25714"/>
<path opacity="0.914286" fill-rule="evenodd" clip-rule="evenodd" d="M3.18002 851.883C51.2011 958.948 -26.0452 1088.82 96.8954 1112.72C219.836 1136.62 334.468 928.467 306.657 746.689C278.846 564.911 260.471 491.918 286.134 440.327C311.797 388.736 357.73 253.812 315.304 182.592C272.879 111.371 236.509 90.7709 177.533 188.207C118.557 285.643 103.652 365.116 96.5107 423.938C89.3692 482.759 -55.558 507.973 -68.084 632.57C-80.6101 757.167 -44.8411 744.818 3.18002 851.883Z" stroke="url(#paint6_linear_205_2303)" stroke-opacity="0.2" stroke-width="1.25714"/>
<path opacity="0.9" fill-rule="evenodd" clip-rule="evenodd" d="M1.10579 846.603C47.9453 954.957 -30.6203 1082.53 91.9622 1109.92C214.545 1137.31 331.299 932.583 305.449 750.15C279.599 567.717 262.017 494.254 288.208 443.435C314.399 392.616 361.732 259.105 320.101 186.728C278.471 114.352 242.351 92.7291 182.386 188.408C122.421 284.087 106.682 363.074 98.9194 421.647C91.157 480.22 -53.9171 501.279 -67.7607 625.424C-81.6044 749.569 -45.7338 738.249 1.10579 846.603Z" stroke="url(#paint7_linear_205_2303)" stroke-opacity="0.2" stroke-width="1.25714"/>
<path opacity="0.885714" fill-rule="evenodd" clip-rule="evenodd" d="M-0.909204 841.269C44.7357 950.878 -35.1234 1076.11 87.0634 1106.98C209.25 1137.84 328.088 936.606 304.204 753.573C280.321 570.541 263.538 496.632 290.248 446.598C316.959 396.565 365.675 264.506 324.851 190.996C284.027 117.486 248.168 94.8491 187.234 188.744C126.3 282.64 109.732 361.118 101.352 419.426C92.9714 477.733 -52.2045 494.636 -67.3597 618.292C-82.515 741.948 -46.5541 731.661 -0.909204 841.269Z" stroke="url(#paint8_linear_205_2303)" stroke-opacity="0.2" stroke-width="1.25714"/>
<path opacity="0.871429" fill-rule="evenodd" clip-rule="evenodd" d="M-2.86469 835.884C41.5728 946.712 -39.5533 1069.57 82.2004 1103.9C203.954 1138.23 324.836 940.535 302.924 756.959C281.012 573.382 265.031 499.051 292.252 449.817C319.473 400.583 369.555 270.013 329.55 195.394C289.545 120.774 253.958 97.1314 192.074 189.218C130.191 281.304 112.801 359.251 103.806 417.275C94.8114 475.299 -50.421 488.048 -66.8816 611.178C-83.3421 734.309 -47.3022 725.055 -2.86469 835.884Z" stroke="url(#paint9_linear_205_2303)" stroke-opacity="0.2" stroke-width="1.25714"/>
<path opacity="0.857143" fill-rule="evenodd" clip-rule="evenodd" d="M-4.76067 830.448C38.4571 942.462 -43.9094 1062.92 77.374 1100.69C198.657 1138.47 321.543 944.371 301.607 760.306C281.671 576.242 266.496 501.51 294.219 453.089C321.942 404.669 373.373 275.625 334.198 199.92C295.022 124.215 259.718 99.5747 196.906 189.827C134.094 280.079 115.887 357.471 106.282 415.195C96.6761 472.92 -48.5677 481.515 -66.3269 604.084C-84.0862 726.653 -47.9785 718.435 -4.76067 830.448Z" stroke="url(#paint10_linear_205_2303)" stroke-opacity="0.2" stroke-width="1.25714"/>
<path opacity="0.842857" fill-rule="evenodd" clip-rule="evenodd" d="M-6.59574 824.965C35.3904 938.128 -48.1894 1056.14 72.5865 1097.35C193.362 1138.56 318.212 948.111 300.256 763.615C282.3 579.118 267.935 504.009 296.15 456.415C324.365 408.821 377.128 281.341 338.793 204.574C300.459 127.808 265.448 102.179 201.728 190.572C138.007 278.965 118.991 355.781 108.779 413.188C98.5658 470.595 -46.6443 475.042 -65.6952 597.013C-84.7461 718.984 -48.5819 711.802 -6.59574 824.965Z" stroke="url(#paint11_linear_205_2303)" stroke-opacity="0.2" stroke-width="1.25714"/>
<path opacity="0.828571" fill-rule="evenodd" clip-rule="evenodd" d="M-8.37108 819.431C32.3718 933.709 -52.394 1049.25 67.8376 1093.88C188.069 1138.5 314.841 951.751 298.868 766.879C282.895 582.006 269.344 506.542 298.042 459.788C326.74 413.035 380.817 287.153 343.334 209.35C305.851 131.547 271.144 104.938 206.536 191.448C141.929 277.959 122.11 354.175 111.294 411.249C100.478 468.323 -44.6533 468.624 -64.9884 589.962C-85.3234 711.3 -49.114 705.154 -8.37108 819.431Z" stroke="url(#paint12_linear_205_2303)" stroke-opacity="0.2" stroke-width="1.25714"/>
<path opacity="0.814286" fill-rule="evenodd" clip-rule="evenodd" d="M-10.0834 813.856C29.405 929.211 -56.519 1042.25 63.1316 1090.27C182.782 1138.29 311.435 955.296 297.448 770.104C283.461 584.912 270.726 509.116 299.898 463.216C329.069 417.315 384.441 293.068 347.821 214.253C311.201 135.438 276.808 107.858 211.334 192.462C145.86 277.067 125.246 352.662 113.831 409.386C102.415 466.109 -42.5925 462.271 -64.2038 582.94C-85.8152 703.609 -49.5719 698.5 -10.0834 813.856Z" stroke="url(#paint13_linear_205_2303)" stroke-opacity="0.2" stroke-width="1.25714"/>
<path opacity="0.8" fill-rule="evenodd" clip-rule="evenodd" d="M-11.7353 808.235C26.488 924.633 -60.5663 1035.14 58.4669 1086.54C177.5 1137.94 307.992 958.741 295.992 773.285C283.993 587.829 272.078 511.726 301.714 466.69C331.349 421.654 387.998 299.077 352.251 219.275C316.503 139.473 282.434 110.933 216.116 193.609C149.797 276.284 128.395 351.237 116.384 407.594C104.374 463.95 -40.4655 455.98 -63.345 575.944C-86.2245 695.909 -49.9586 691.838 -11.7353 808.235Z" stroke="url(#paint14_linear_205_2303)" stroke-opacity="0.2" stroke-width="1.25714"/>
<path opacity="0.785714" fill-rule="evenodd" clip-rule="evenodd" d="M-13.3247 802.574C23.623 919.977 -64.5333 1027.93 53.8463 1082.68C172.226 1137.43 304.514 962.087 294.504 776.423C284.493 590.759 273.401 514.371 303.491 470.213C333.581 426.055 391.487 305.182 356.623 224.419C321.758 143.656 288.024 114.165 220.882 194.89C153.74 275.615 131.557 349.903 118.956 405.876C106.355 461.849 -38.2716 449.755 -62.4107 568.98C-86.5498 688.206 -50.2725 685.171 -13.3247 802.574Z" stroke="url(#paint15_linear_205_2303)" stroke-opacity="0.2" stroke-width="1.25714"/>
<path opacity="0.771429" fill-rule="evenodd" clip-rule="evenodd" d="M-14.8511 796.873C20.8111 915.245 -68.4187 1020.6 49.2715 1078.69C166.962 1136.78 301.003 965.332 292.983 779.516C284.962 593.701 274.694 517.052 305.229 473.784C335.763 430.515 394.908 311.379 360.936 229.681C326.965 147.982 293.575 117.55 225.631 196.303C157.688 275.056 134.732 348.658 121.545 404.232C108.358 459.805 -36.0112 443.597 -61.401 562.048C-86.7908 680.5 -50.5133 678.502 -14.8511 796.873Z" stroke="url(#paint16_linear_205_2303)" stroke-opacity="0.2" stroke-width="1.25714"/>
<path opacity="0.757143" fill-rule="evenodd" clip-rule="evenodd" d="M-16.3151 791.135C18.052 910.438 -72.2222 1013.18 44.7427 1074.58C161.708 1135.98 297.459 968.475 291.429 782.564C285.398 596.653 275.958 519.766 306.926 477.399C337.895 435.032 398.258 317.668 365.189 235.059C332.12 152.45 299.085 121.089 230.361 197.849C161.638 274.608 137.917 347.504 124.149 402.662C110.381 457.82 -33.6861 437.508 -60.3173 555.151C-86.9484 672.794 -50.6821 671.831 -16.3151 791.135Z" stroke="url(#paint17_linear_205_2303)" stroke-opacity="0.2" stroke-width="1.25714"/>
<path opacity="0.742857" fill-rule="evenodd" clip-rule="evenodd" d="M-17.7155 785.361C15.3473 905.558 -75.9423 1005.65 40.2621 1070.34C156.467 1135.03 293.884 971.517 289.843 785.566C285.802 599.616 277.191 522.515 308.584 481.06C339.977 439.606 401.538 324.045 369.381 240.553C337.223 157.061 304.552 124.78 235.072 199.527C165.591 274.274 141.113 346.441 126.769 401.167C112.424 455.894 -31.2964 431.491 -59.1593 548.291C-87.0222 665.091 -50.7782 665.163 -17.7155 785.361Z" stroke="url(#paint18_linear_205_2303)" stroke-opacity="0.2" stroke-width="1.25714"/>
<path opacity="0.728571" fill-rule="evenodd" clip-rule="evenodd" d="M-19.0528 779.552C12.6969 900.607 -79.5787 998.027 35.83 1065.98C151.239 1133.94 290.277 974.454 288.225 788.52C286.173 602.586 278.393 525.295 310.2 484.764C342.008 444.234 404.747 330.509 373.509 246.159C342.272 161.81 309.976 128.622 239.76 201.336C169.544 274.05 144.318 345.468 129.402 399.747C114.486 454.026 -28.8437 425.546 -57.9283 541.469C-87.0129 657.393 -50.8024 658.497 -19.0528 779.552Z" stroke="url(#paint19_linear_205_2303)" stroke-opacity="0.2" stroke-width="1.25714"/>
<path opacity="0.714286" fill-rule="evenodd" clip-rule="evenodd" d="M-20.3252 773.71C10.1031 895.584 -83.1289 990.307 31.4493 1061.5C146.028 1132.7 286.643 977.287 286.578 791.425C286.513 605.564 279.565 528.105 311.776 488.509C343.987 448.913 407.884 337.056 377.576 251.876C347.267 166.696 315.355 132.611 244.426 203.274C173.498 273.937 147.532 344.586 132.05 398.402C116.568 452.218 -26.3273 419.674 -56.6232 534.688C-86.9192 649.701 -50.7534 651.836 -20.3252 773.71Z" stroke="url(#paint20_linear_205_2303)" stroke-opacity="0.2" stroke-width="1.25714"/>
<path opacity="0.7" fill-rule="evenodd" clip-rule="evenodd" d="M-21.5342 767.838C7.56464 890.493 -86.5938 982.495 27.1194 1056.9C140.833 1131.31 282.979 980.016 284.899 794.283C286.82 608.549 280.705 530.947 313.31 492.296C345.914 453.645 410.947 343.686 381.576 257.703C352.205 171.72 320.686 136.75 249.067 205.342C177.449 273.935 150.753 343.796 134.71 397.133C118.668 450.47 -23.7498 413.88 -55.2464 527.95C-86.743 642.02 -50.6331 645.183 -21.5342 767.838Z" stroke="url(#paint21_linear_205_2303)" stroke-opacity="0.2" stroke-width="1.25714"/>
<path opacity="0.685714" fill-rule="evenodd" clip-rule="evenodd" d="M-22.6789 761.937C5.08307 885.335 -89.9717 974.592 22.8423 1052.19C135.656 1129.78 279.288 982.638 283.191 797.089C287.093 611.54 281.813 533.817 314.801 496.122C347.789 458.427 413.936 350.396 385.511 263.636C357.085 176.877 325.968 141.033 253.683 207.539C181.398 274.045 153.979 343.097 137.382 395.94C120.784 448.783 -21.1114 408.162 -53.7976 521.256C-86.4837 634.35 -50.4408 638.539 -22.6789 761.937Z" stroke="url(#paint22_linear_205_2303)" stroke-opacity="0.2" stroke-width="1.25714"/>
<path opacity="0.671429" fill-rule="evenodd" clip-rule="evenodd" d="M-23.7582 756.009C2.65973 880.112 -93.261 966.6 18.6199 1047.35C130.501 1128.11 275.572 985.153 281.454 799.844C287.335 614.535 282.89 536.716 316.25 499.986C349.61 463.256 416.851 357.183 389.379 269.674C361.907 182.165 331.201 145.461 258.272 209.863C185.343 274.265 157.212 342.488 140.065 394.822C122.918 447.156 -18.4123 402.524 -52.2767 514.608C-86.141 626.693 -50.1761 631.906 -23.7582 756.009Z" stroke="url(#paint23_linear_205_2303)" stroke-opacity="0.2" stroke-width="1.25714"/>
<path opacity="0.657143" fill-rule="evenodd" clip-rule="evenodd" d="M-24.7728 750.058C0.294337 874.827 -96.4618 958.526 14.4524 1042.41C125.367 1126.29 271.832 987.564 279.688 802.55C287.544 617.536 283.935 539.644 317.657 503.889C351.378 468.134 419.69 364.048 393.179 275.818C366.667 187.588 336.382 150.035 262.832 212.316C189.283 274.598 160.449 341.973 142.759 393.783C125.069 445.593 -15.6543 396.969 -50.6851 508.013C-85.7159 619.056 -49.84 625.289 -24.7728 750.058Z" stroke="url(#paint24_linear_205_2303)" stroke-opacity="0.2" stroke-width="1.25714"/>
<path opacity="0.642857" fill-rule="evenodd" clip-rule="evenodd" d="M-25.7229 744.082C-2.01275 869.479 -99.5735 950.366 10.3409 1037.35C120.255 1124.33 268.067 989.865 277.893 805.202C287.72 620.539 284.947 542.598 319.019 507.827C353.092 473.056 422.453 370.985 396.909 282.061C371.365 193.137 341.51 154.748 267.363 214.894C193.216 275.04 163.689 341.548 145.461 392.819C127.234 444.09 -12.8386 391.495 -49.0237 501.465C-85.2089 611.436 -49.433 618.685 -25.7229 744.082Z" stroke="url(#paint25_linear_205_2303)" stroke-opacity="0.2" stroke-width="1.25714"/>
<path opacity="0.628571" fill-rule="evenodd" clip-rule="evenodd" d="M-26.6071 738.085C-4.25981 864.071 -102.594 942.128 6.28744 1032.18C115.169 1122.22 264.28 992.058 276.072 807.801C287.864 623.544 285.926 545.577 320.339 511.799C354.751 478.021 425.139 377.994 400.569 288.404C376 198.814 346.583 159.602 271.863 217.597C197.142 275.592 166.931 341.216 148.173 391.933C129.414 442.65 -9.96502 386.106 -47.2921 494.972C-84.6192 603.837 -48.9543 612.1 -26.6071 738.085Z" stroke="url(#paint26_linear_205_2303)" stroke-opacity="0.2" stroke-width="1.25714"/>
<path opacity="0.614286" fill-rule="evenodd" clip-rule="evenodd" d="M-27.426 732.071C-6.44708 858.606 -105.524 933.813 2.29247 1026.9C110.109 1119.98 260.472 994.144 274.223 810.348C287.974 626.551 286.873 548.583 321.614 515.807C356.355 483.031 427.746 385.074 404.158 294.846C380.57 204.618 351.601 164.596 276.33 220.427C201.059 276.257 170.175 340.976 150.891 391.125C131.608 441.274 -7.03538 380.805 -45.4917 488.534C-83.948 596.264 -48.4049 605.535 -27.426 732.071Z" stroke="url(#paint27_linear_205_2303)" stroke-opacity="0.2" stroke-width="1.25714"/>
<path opacity="0.6" fill-rule="evenodd" clip-rule="evenodd" d="M-28.179 726.035C-8.57343 853.082 -108.361 925.42 -1.64235 1021.51C105.077 1117.59 256.644 996.118 272.348 812.837C288.053 629.556 287.786 551.609 322.846 519.843C357.905 488.077 430.276 392.217 407.676 301.379C385.075 210.542 356.561 169.723 280.764 223.376C204.966 277.028 173.419 340.825 153.618 390.392C133.816 439.958 -4.05002 375.587 -43.6225 482.151C-83.195 588.714 -47.7846 598.989 -28.179 726.035Z" stroke="url(#paint28_linear_205_2303)" stroke-opacity="0.2" stroke-width="1.25714"/>
<path opacity="0.585714" fill-rule="evenodd" clip-rule="evenodd" d="M-28.8664 719.987C-10.6387 847.504 -111.106 916.957 -5.51637 1016.01C100.074 1115.07 252.797 997.984 270.448 815.273C288.099 632.563 288.667 554.661 324.032 523.913C359.398 493.165 432.727 399.427 411.12 308.008C389.513 216.59 361.462 174.988 285.163 226.449C208.863 277.91 176.663 340.768 156.35 389.738C136.036 438.708 -1.01039 370.462 -41.6857 475.828C-82.361 581.194 -47.094 592.469 -28.8664 719.987Z" stroke="url(#paint29_linear_205_2303)" stroke-opacity="0.2" stroke-width="1.25714"/>
<path opacity="0.571429" fill-rule="evenodd" clip-rule="evenodd" d="M-29.4875 713.924C-12.642 841.874 -113.758 908.425 -9.32802 1010.41C95.1015 1112.4 248.933 999.739 268.523 817.653C288.112 635.567 289.513 557.734 325.175 528.012C360.836 498.29 435.099 406.698 414.49 314.727C393.882 222.756 366.303 180.386 289.525 229.644C212.748 278.902 179.906 340.802 159.087 389.162C138.269 437.522 2.08292 365.426 -39.6815 469.565C-81.4459 573.705 -46.333 585.974 -29.4875 713.924Z" stroke="url(#paint30_linear_205_2303)" stroke-opacity="0.2" stroke-width="1.25714"/>
<path opacity="0.557143" fill-rule="evenodd" clip-rule="evenodd" d="M-30.0435 707.85C-14.5838 836.193 -116.315 899.826 -13.0773 1004.71C90.1609 1109.6 245.052 1001.38 266.572 819.977C288.093 638.57 290.326 560.828 326.271 532.139C362.217 503.45 437.389 414.031 417.785 321.536C398.181 229.041 371.082 185.915 293.85 232.958C216.618 280.002 183.145 340.927 161.828 388.663C140.512 436.399 5.22787 360.483 -37.6116 463.365C-80.4511 566.248 -45.5031 579.508 -30.0435 707.85Z" stroke="url(#paint31_linear_205_2303)" stroke-opacity="0.2" stroke-width="1.25714"/>
<path opacity="0.542857" fill-rule="evenodd" clip-rule="evenodd" d="M-30.5333 701.765C-16.4628 830.461 -118.779 891.162 -16.7624 998.912C85.2539 1106.66 241.156 1002.92 264.598 822.242C288.041 641.568 291.104 563.942 327.323 536.293C363.541 508.644 439.599 421.419 421.004 328.43C402.41 235.44 375.798 191.573 298.136 236.391C220.474 281.21 186.38 341.143 164.573 388.242C142.766 435.341 8.42424 355.632 -35.4761 457.229C-79.3764 558.826 -44.6038 573.069 -30.5333 701.765Z" stroke="url(#paint32_linear_205_2303)" stroke-opacity="0.2" stroke-width="1.25714"/>
<path opacity="0.528571" fill-rule="evenodd" clip-rule="evenodd" d="M-30.9565 695.674C-18.2781 824.684 -121.146 882.439 -20.3819 993.014C80.3824 1103.59 237.247 1004.34 262.602 824.451C287.957 644.563 291.849 567.075 328.329 540.474C364.809 513.872 441.728 428.865 424.148 335.409C406.567 241.953 380.451 197.36 302.383 239.943C224.315 282.526 189.612 341.452 167.322 387.9C145.031 434.348 11.6714 350.877 -33.2751 451.16C-78.2217 551.443 -43.635 566.664 -30.9565 695.674Z" stroke="url(#paint33_linear_205_2303)" stroke-opacity="0.2" stroke-width="1.25714"/>
<path opacity="0.514286" fill-rule="evenodd" clip-rule="evenodd" d="M-31.3139 689.576C-20.03 818.86 -123.418 873.656 -23.9353 987.018C75.5472 1100.38 233.324 1005.65 260.582 826.601C287.841 647.552 292.559 570.227 329.289 544.678C366.019 519.13 443.775 436.363 427.213 342.47C410.65 248.577 385.037 203.272 306.588 243.611C228.14 283.949 192.838 341.851 170.071 387.635C147.304 433.419 14.9676 346.219 -31.0103 445.159C-76.9881 544.099 -42.5977 560.292 -31.3139 689.576Z" stroke="url(#paint34_linear_205_2303)" stroke-opacity="0.2" stroke-width="1.25714"/>
<path opacity="0.5" fill-rule="evenodd" clip-rule="evenodd" d="M-31.6059 683.474C-21.7186 812.992 -125.594 864.818 -27.4226 980.928C70.7491 1097.04 229.389 1006.85 258.54 828.692C287.691 650.536 293.234 573.396 330.202 548.907C367.171 524.417 445.739 443.912 430.199 349.612C414.659 255.311 389.556 209.309 310.751 247.395C231.945 285.48 196.057 342.341 172.821 387.449C149.586 432.557 18.311 341.658 -28.683 439.228C-75.6769 536.798 -41.4933 553.956 -31.6059 683.474Z" stroke="url(#paint35_linear_205_2303)" stroke-opacity="0.2" stroke-width="1.25714"/>
<path opacity="0.485714" fill-rule="evenodd" clip-rule="evenodd" d="M-31.8301 677.369C-23.341 807.082 -127.672 855.927 -30.8399 974.746C65.992 1093.56 225.446 1007.94 256.479 830.723C287.512 653.512 293.876 576.58 331.071 553.156C368.267 529.732 447.622 451.509 433.108 356.83C418.594 262.151 394.009 215.467 314.871 251.292C235.733 287.116 199.27 342.921 175.574 387.34C151.877 431.759 21.7033 337.196 -26.2913 433.368C-74.286 529.54 -40.3193 547.656 -31.8301 677.369Z" stroke="url(#paint36_linear_205_2303)" stroke-opacity="0.2" stroke-width="1.25714"/>
<path opacity="0.471429" fill-rule="evenodd" clip-rule="evenodd" d="M-31.9901 671.264C-24.9003 801.132 -129.654 846.985 -34.1901 968.472C61.2738 1089.96 221.491 1008.91 254.395 832.694C287.298 656.479 294.482 579.779 331.892 557.425C369.302 535.072 449.42 459.151 435.936 364.123C422.451 269.095 398.39 221.745 318.945 255.301C239.499 288.857 202.473 343.591 178.323 387.309C154.173 431.026 25.1398 332.833 -23.8398 427.58C-72.8194 522.327 -39.0799 541.395 -31.9901 671.264Z" stroke="url(#paint37_linear_205_2303)" stroke-opacity="0.2" stroke-width="1.25714"/>
<path opacity="0.457143" fill-rule="evenodd" clip-rule="evenodd" d="M-32.0827 665.159C-26.393 795.143 -131.537 837.996 -37.4691 962.109C56.5989 1086.22 217.53 1009.77 252.292 834.603C287.054 659.438 295.054 582.992 332.668 561.714C370.281 540.435 451.136 466.837 438.684 371.489C426.232 276.141 402.702 228.14 322.974 259.421C243.246 290.703 205.668 344.351 181.073 387.355C156.477 430.359 28.6223 328.572 -21.3262 421.868C-71.2746 515.164 -37.7725 535.176 -32.0827 665.159Z" stroke="url(#paint38_linear_205_2303)" stroke-opacity="0.2" stroke-width="1.25714"/>
<path opacity="0.442857" fill-rule="evenodd" clip-rule="evenodd" d="M-32.1104 659.06C-27.8211 789.119 -133.323 828.963 -40.6781 955.661C51.9665 1082.36 213.562 1010.52 250.17 836.453C286.778 662.388 295.59 586.219 333.395 566.021C371.201 545.823 452.767 474.565 441.35 378.927C429.933 283.289 406.942 234.652 326.955 263.653C246.969 292.654 208.852 345.202 183.819 387.48C158.786 429.758 32.1476 324.415 -18.7534 416.233C-69.6545 508.052 -36.3997 529 -32.1104 659.06Z" stroke="url(#paint39_linear_205_2303)" stroke-opacity="0.2" stroke-width="1.25714"/>
<path opacity="0.428571" fill-rule="evenodd" clip-rule="evenodd" d="M-32.0715 652.962C-29.1826 783.058 -135.009 819.886 -43.8148 949.126C47.3795 1078.37 209.589 1011.15 248.03 838.237C286.47 665.325 296.091 589.455 334.077 570.342C372.063 551.229 454.314 482.328 443.935 386.43C433.556 290.531 411.109 241.275 330.889 267.99C250.669 294.706 212.026 346.139 186.563 387.68C161.1 429.221 35.7162 320.358 -16.121 410.674C-67.9581 500.99 -34.9605 522.867 -32.0715 652.962Z" stroke="url(#paint40_linear_205_2303)" stroke-opacity="0.2" stroke-width="1.25714"/>
<path opacity="0.414286" fill-rule="evenodd" clip-rule="evenodd" d="M-31.968 646.875C-30.4788 776.967 -136.598 810.773 -46.88 942.511C42.8376 1074.25 205.611 1011.67 245.871 839.963C286.131 668.253 296.557 592.706 334.711 574.681C372.864 556.656 455.775 490.131 446.436 394.002C437.097 297.872 415.201 248.013 334.772 272.438C254.344 296.863 215.186 347.168 189.302 387.96C163.418 428.753 39.3251 316.41 -13.4313 405.198C-66.1877 493.986 -33.4572 516.783 -31.968 646.875Z" stroke="url(#paint41_linear_205_2303)" stroke-opacity="0.2" stroke-width="1.25714"/>
<path opacity="0.4" fill-rule="evenodd" clip-rule="evenodd" d="M-31.7988 640.795C-31.7084 770.843 -138.087 801.622 -49.8718 935.815C38.3431 1070.01 201.629 1012.08 243.694 841.624C285.759 671.167 296.987 595.965 335.297 579.032C373.607 562.1 457.152 497.966 448.854 401.635C440.557 305.304 419.218 254.858 338.605 276.989C257.993 299.121 218.333 348.284 192.036 388.316C165.739 428.349 42.9744 312.566 -10.6842 399.802C-64.3428 487.037 -31.8892 510.746 -31.7988 640.795Z" stroke="url(#paint42_linear_205_2303)" stroke-opacity="0.2" stroke-width="1.25714"/>
<path opacity="0.385714" fill-rule="evenodd" clip-rule="evenodd" d="M-31.5636 634.726C-32.8707 764.692 -139.476 792.439 -52.7889 929.041C33.8979 1065.64 197.647 1012.38 241.502 843.223C285.358 674.068 297.382 599.233 335.837 583.397C374.292 567.56 458.444 505.834 451.189 409.331C443.935 312.828 423.159 261.811 342.387 281.646C261.616 301.481 221.466 349.488 194.765 388.75C168.064 428.012 46.6632 308.83 -7.88026 394.489C-62.4237 480.148 -30.2566 504.761 -31.5636 634.726Z" stroke="url(#paint43_linear_205_2303)" stroke-opacity="0.2" stroke-width="1.25714"/>
<path opacity="0.371429" fill-rule="evenodd" clip-rule="evenodd" d="M-31.2634 628.67C-33.9661 758.513 -140.765 783.226 -55.6313 922.191C29.5024 1061.16 193.664 1012.56 239.294 844.757C284.925 676.955 297.742 602.51 336.329 587.772C374.917 573.034 459.65 513.73 453.44 417.085C447.23 320.441 427.022 268.868 346.117 286.405C265.211 303.941 224.585 350.78 197.488 389.261C170.39 427.741 50.3897 305.201 -5.02108 389.261C-60.4319 473.32 -28.5607 498.827 -31.2634 628.67Z" stroke="url(#paint44_linear_205_2303)" stroke-opacity="0.2" stroke-width="1.25714"/>
<path opacity="0.357143" fill-rule="evenodd" clip-rule="evenodd" d="M-30.8974 622.629C-34.9935 752.31 -141.953 773.985 -58.3972 915.267C25.159 1056.55 189.682 1012.63 237.072 846.229C284.462 679.828 298.067 605.794 336.775 592.157C375.483 578.52 460.771 521.652 455.606 424.896C450.441 328.139 430.808 276.029 349.793 291.265C268.778 306.5 227.688 352.16 200.204 389.849C172.719 427.537 54.1536 301.683 -2.1067 384.119C-58.367 466.556 -26.8013 492.948 -30.8974 622.629Z" stroke="url(#paint45_linear_205_2303)" stroke-opacity="0.2" stroke-width="1.25714"/>
<path opacity="0.342857" fill-rule="evenodd" clip-rule="evenodd" d="M-30.4681 616.602C-35.9549 746.082 -143.043 764.717 -61.0884 908.269C20.8664 1051.82 185.7 1012.58 234.834 847.633C283.967 682.682 298.355 609.081 337.172 596.548C375.988 584.015 461.804 529.597 457.685 432.758C453.566 335.919 434.512 283.288 353.413 296.222C272.314 309.156 230.773 353.624 202.91 390.51C175.047 427.397 57.9514 298.272 0.859612 379.063C-56.2322 459.854 -24.9813 487.121 -30.4681 616.602Z" stroke="url(#paint46_linear_205_2303)" stroke-opacity="0.2" stroke-width="1.25714"/>
<path opacity="0.328571" fill-rule="evenodd" clip-rule="evenodd" d="M-29.9739 610.597C-36.8484 739.837 -144.032 755.432 -63.7022 901.207C16.6279 1046.98 181.722 1012.43 232.582 848.977C283.442 685.523 298.608 612.378 337.521 600.951C376.435 589.523 462.752 537.567 459.679 440.675C456.605 343.783 438.137 290.648 356.978 301.281C275.819 311.914 233.84 355.178 205.608 391.253C177.376 427.327 61.7837 294.976 3.87867 374.1C-54.0264 453.224 -23.0994 481.357 -29.9739 610.597Z" stroke="url(#paint47_linear_205_2303)" stroke-opacity="0.2" stroke-width="1.25714"/>
<path opacity="0.314286" fill-rule="evenodd" clip-rule="evenodd" d="M-29.4141 604.607C-37.6728 733.567 -144.919 746.123 -66.2369 894.072C12.4455 1042.02 177.75 1012.16 230.319 850.251C282.889 688.342 298.827 615.674 337.825 605.354C376.823 595.034 463.615 545.552 461.587 448.637C459.56 351.722 441.681 298.1 360.487 306.432C279.293 314.764 236.89 356.813 208.297 392.066C179.704 427.319 65.6503 291.788 6.95048 369.223C-51.7494 446.658 -21.1555 475.647 -29.4141 604.607Z" stroke="url(#paint48_linear_205_2303)" stroke-opacity="0.2" stroke-width="1.25714"/>
<path opacity="0.3" fill-rule="evenodd" clip-rule="evenodd" d="M-28.7917 598.642C-38.4306 727.284 -145.707 736.801 -68.6947 886.876C8.31791 1036.95 173.782 1011.78 228.043 851.462C282.304 691.146 299.008 618.976 338.079 609.765C377.15 600.554 464.39 553.556 463.408 456.648C462.426 359.74 445.142 305.648 363.938 311.681C282.734 317.713 239.92 358.536 210.975 392.958C182.031 427.379 69.5473 288.716 10.0713 364.441C-49.4046 440.167 -19.1528 470 -28.7917 598.642Z" stroke="url(#paint49_linear_205_2303)" stroke-opacity="0.2" stroke-width="1.25714"/>
<path opacity="0.285714" fill-rule="evenodd" clip-rule="evenodd" d="M-28.1058 592.701C-39.1206 720.986 -146.395 727.466 -71.0737 879.617C4.24728 1031.77 169.82 1011.29 225.754 852.609C281.688 693.931 299.154 622.281 338.286 614.179C377.418 606.078 465.078 561.576 465.14 464.704C465.203 367.832 448.518 313.288 367.329 317.023C286.14 320.757 242.928 360.344 213.641 393.925C184.354 427.507 73.4744 285.757 13.2413 359.753C-46.9919 433.748 -17.091 464.417 -28.1058 592.701Z" stroke="url(#paint50_linear_205_2303)" stroke-opacity="0.2" stroke-width="1.25714"/>
<path opacity="0.271429" fill-rule="evenodd" clip-rule="evenodd" d="M-27.3552 586.782C-39.7412 714.67 -146.98 718.118 -73.3718 872.295C0.236342 1026.47 165.868 1010.68 223.457 853.685C281.045 696.692 299.265 625.583 338.446 618.591C377.627 611.6 465.681 569.603 466.787 472.797C467.893 375.991 451.812 321.012 370.662 322.452C289.512 323.891 245.916 362.232 216.296 394.964C186.676 427.696 77.4321 282.91 16.4608 355.155C-44.5105 427.401 -14.9692 458.893 -27.3552 586.782Z" stroke="url(#paint51_linear_205_2303)" stroke-opacity="0.2" stroke-width="1.25714"/>
<path opacity="0.257143" fill-rule="evenodd" clip-rule="evenodd" d="M-26.5425 580.894C-40.2944 708.348 -147.465 708.766 -75.5907 864.918C-3.71601 1021.07 161.924 1009.96 221.148 854.7C280.372 699.437 299.34 628.889 338.558 623.008C377.776 617.127 466.196 577.643 468.344 480.933C470.492 384.223 455.02 328.826 373.934 327.974C292.848 327.123 248.881 364.207 218.938 396.081C188.994 427.955 81.4168 280.182 19.7267 350.658C-41.9635 421.135 -12.7905 453.44 -26.5425 580.894Z" stroke="url(#paint52_linear_205_2303)" stroke-opacity="0.2" stroke-width="1.25714"/>
<path opacity="0.242857" fill-rule="evenodd" clip-rule="evenodd" d="M-25.6669 575.032C-40.7792 702.013 -147.85 699.406 -77.7287 857.482C-7.60751 1015.56 157.99 1009.13 218.83 855.645C279.669 702.156 299.38 632.19 338.623 627.42C377.866 622.65 466.625 585.687 469.814 489.102C473.002 392.517 458.142 336.72 377.144 333.581C296.146 330.442 251.823 366.261 221.565 397.269C191.307 428.277 85.4284 277.566 23.0388 346.255C-39.3507 414.944 -10.5545 448.05 -25.6669 575.032Z" stroke="url(#paint53_linear_205_2303)" stroke-opacity="0.2" stroke-width="1.25714"/>
<path opacity="0.228571" fill-rule="evenodd" clip-rule="evenodd" d="M-24.7285 569.201C-41.1953 695.671 -148.133 690.046 -79.7851 849.994C-11.4369 1009.94 154.068 1008.19 216.503 856.524C278.939 704.854 299.385 635.491 338.641 631.831C377.897 628.171 466.968 593.737 471.195 497.306C475.421 400.875 461.177 344.697 380.293 339.275C299.408 333.853 254.742 368.398 224.179 398.531C193.616 428.665 89.4657 275.068 26.3965 341.951C-36.6728 408.834 -8.26167 442.731 -24.7285 569.201Z" stroke="url(#paint54_linear_205_2303)" stroke-opacity="0.2" stroke-width="1.25714"/>
<path opacity="0.214286" fill-rule="evenodd" clip-rule="evenodd" d="M-23.7288 563.405C-41.5437 689.326 -148.317 680.688 -81.7604 842.458C-15.204 1004.23 150.158 1007.15 214.169 857.338C278.179 707.531 299.353 638.791 338.61 636.241C377.868 633.69 467.223 601.791 472.486 505.544C477.749 409.297 464.125 352.755 383.377 345.055C302.63 337.356 257.635 370.618 226.777 399.869C195.919 429.121 93.5265 272.69 29.7974 337.75C-33.9317 402.809 -5.91395 437.484 -23.7288 563.405Z" stroke="url(#paint55_linear_205_2303)" stroke-opacity="0.2" stroke-width="1.25714"/>
<path opacity="0.2" fill-rule="evenodd" clip-rule="evenodd" d="M-22.6677 557.639C-41.8238 682.973 -148.4 671.331 -83.6536 834.868C-18.9074 998.405 146.262 1005.98 211.827 858.081C277.391 710.179 299.286 642.083 338.533 640.641C377.779 639.199 467.392 609.84 473.688 513.806C479.984 417.773 466.983 360.884 386.398 350.914C305.812 340.943 260.502 372.914 229.358 401.276C198.215 429.638 97.61 270.425 33.241 333.645C-31.128 396.864 -3.51159 432.306 -22.6677 557.639Z" stroke="url(#paint56_linear_205_2303)" stroke-opacity="0.2" stroke-width="1.25714"/>
<path opacity="0.185714" fill-rule="evenodd" clip-rule="evenodd" d="M-21.544 551.909C-42.0342 676.618 -148.381 661.981 -85.4626 827.232C-22.5444 992.483 142.383 1004.71 209.48 858.757C276.577 712.803 299.185 645.369 338.409 645.034C377.633 644.699 467.476 617.886 474.802 522.095C482.129 426.303 469.754 369.087 389.355 356.852C308.955 344.617 263.344 375.289 231.925 402.754C200.505 430.219 101.717 268.279 36.7278 329.641C-28.2609 391.003 -1.05386 427.2 -21.544 551.909Z" stroke="url(#paint57_linear_205_2303)" stroke-opacity="0.2" stroke-width="1.25714"/>
<path opacity="0.171429" fill-rule="evenodd" clip-rule="evenodd" d="M-20.3616 546.218C-42.1782 670.266 -148.264 652.642 -87.1905 819.553C-26.1173 986.465 138.518 1003.33 207.126 859.367C275.733 715.403 299.048 648.652 338.237 649.422C377.427 650.193 467.471 625.929 475.825 530.409C484.178 434.889 472.434 377.363 392.244 362.871C312.055 348.378 266.157 377.745 234.471 404.306C202.786 430.867 105.841 266.254 40.2533 325.743C-25.3348 385.233 1.45503 422.171 -20.3616 546.218Z" stroke="url(#paint58_linear_205_2303)" stroke-opacity="0.2" stroke-width="1.25714"/>
<path opacity="0.157143" fill-rule="evenodd" clip-rule="evenodd" d="M-19.118 540.569C-42.253 663.918 -148.045 643.318 -88.8338 811.836C-29.6223 980.354 134.672 1001.85 204.767 859.913C274.863 717.978 298.876 651.93 338.019 653.803C377.162 655.677 467.382 633.966 476.759 538.747C486.136 443.527 475.024 385.709 395.068 368.968C315.113 352.227 268.942 380.281 237.001 405.932C205.059 431.582 109.986 264.35 43.8191 321.952C-22.3479 379.553 4.01713 417.221 -19.118 540.569Z" stroke="url(#paint59_linear_205_2303)" stroke-opacity="0.2" stroke-width="1.25714"/>
<path opacity="0.142857" fill-rule="evenodd" clip-rule="evenodd" d="M-17.815 534.958C-42.2601 657.57 -147.728 634.006 -90.3938 804.076C-33.0598 974.146 130.843 1000.25 202.404 860.387C273.965 720.523 298.669 655.196 337.754 658.171C376.839 661.146 467.206 641.99 477.602 547.099C487.999 452.209 477.522 394.118 397.825 375.137C318.127 356.156 271.698 382.89 239.511 407.624C207.323 432.358 114.148 262.563 47.4229 318.262C-19.3024 373.961 6.6302 412.346 -17.815 534.958Z" stroke="url(#paint60_linear_205_2303)" stroke-opacity="0.2" stroke-width="1.25714"/>
<path opacity="0.128571" fill-rule="evenodd" clip-rule="evenodd" d="M-16.4529 529.39C-42.1994 651.23 -147.311 624.713 -91.8697 796.28C-36.4286 967.847 127.034 998.547 200.038 860.795C273.041 723.042 298.426 658.455 337.442 662.528C376.457 666.601 466.944 650.002 478.356 555.47C489.767 460.937 479.928 402.591 400.513 381.38C321.098 360.168 274.424 385.577 242 409.388C209.576 433.198 118.326 260.898 51.0635 314.68C-16.1994 368.462 9.2935 407.55 -16.4529 529.39Z" stroke="url(#paint61_linear_205_2303)" stroke-opacity="0.2" stroke-width="1.25714"/>
<path opacity="0.114286" fill-rule="evenodd" clip-rule="evenodd" d="M-15.0317 523.866C-42.0703 644.898 -146.794 615.44 -93.2605 788.449C-39.7271 961.458 123.247 996.737 197.669 861.134C272.091 725.531 298.15 661.703 337.084 666.871C376.018 672.039 466.597 657.999 479.019 563.852C491.442 469.706 482.243 411.124 403.133 387.692C324.023 364.261 277.12 388.338 244.47 411.22C211.82 434.102 122.52 259.352 54.7404 311.204C-13.0391 363.057 12.0068 402.835 -15.0317 523.866Z" stroke="url(#paint62_linear_205_2303)" stroke-opacity="0.2" stroke-width="1.25714"/>
<path opacity="0.1" fill-rule="evenodd" clip-rule="evenodd" d="M-13.5524 518.388C-41.8735 638.574 -146.178 606.191 -94.5666 780.585C-42.9549 954.98 119.481 994.82 195.298 861.405C271.115 727.99 297.839 664.94 336.68 671.2C375.52 677.459 466.165 665.977 479.593 572.246C493.021 478.514 484.465 419.714 405.684 394.073C326.903 368.432 279.785 391.173 246.919 413.121C214.052 435.068 126.727 257.927 58.452 307.836C-9.82306 357.746 14.7688 398.201 -13.5524 518.388Z" stroke="url(#paint63_linear_205_2303)" stroke-opacity="0.2" stroke-width="1.25714"/>
<path opacity="0.0857143" fill-rule="evenodd" clip-rule="evenodd" d="M-12.0163 512.958C-41.61 632.264 -145.465 596.97 -95.7885 772.694C-46.1121 948.418 115.738 992.799 192.925 861.61C270.112 730.421 297.493 668.166 336.228 675.514C374.964 682.862 465.646 673.937 480.075 580.649C494.504 487.361 486.592 428.361 408.164 400.522C329.735 372.683 282.416 394.083 249.344 415.091C216.272 436.098 130.946 256.625 62.1962 304.579C-6.55338 352.533 17.5775 393.652 -12.0163 512.958Z" stroke="url(#paint64_linear_205_2303)" stroke-opacity="0.2" stroke-width="1.25714"/>
<path opacity="0.0714286" fill-rule="evenodd" clip-rule="evenodd" d="M-10.4222 507.576C-41.2783 625.965 -144.653 587.776 -96.9242 764.773C-49.1959 941.771 112.02 990.672 190.553 861.745C269.085 732.819 297.113 671.378 335.732 679.81C374.352 688.242 465.044 681.873 480.468 589.056C495.893 496.24 488.626 437.059 410.574 407.034C332.521 377.009 285.016 397.064 251.748 417.126C218.48 437.189 135.176 255.443 65.9735 301.43C-3.22926 347.417 20.4338 389.186 -10.4222 507.576Z" stroke="url(#paint65_linear_205_2303)" stroke-opacity="0.2" stroke-width="1.25714"/>
<path opacity="0.0571429" fill-rule="evenodd" clip-rule="evenodd" d="M-8.7723 502.245C-40.88 619.683 -143.743 578.614 -97.9749 756.829C-52.2069 935.043 108.327 988.441 188.18 861.814C268.033 735.186 296.699 674.576 335.19 684.088C373.682 693.6 464.356 689.785 480.77 597.468C497.184 505.15 490.565 445.807 412.912 413.609C335.258 381.411 287.581 400.116 254.127 419.229C220.674 438.343 139.416 254.383 69.7813 298.392C0.146713 342.402 23.3354 384.806 -8.7723 502.245Z" stroke="url(#paint66_linear_205_2303)" stroke-opacity="0.2" stroke-width="1.25714"/>
<path opacity="0.0428571" fill-rule="evenodd" clip-rule="evenodd" d="M-7.06619 496.964C-40.4145 613.417 -142.736 569.487 -98.9396 748.861C-55.1436 928.234 104.661 986.107 185.808 861.813C266.956 737.52 296.251 677.759 334.603 688.346C372.955 698.933 463.585 697.669 480.983 605.879C498.381 514.088 492.409 454.601 415.178 420.243C337.947 385.886 290.112 403.238 256.483 421.397C222.855 439.557 143.664 253.444 73.6193 295.465C3.57424 337.486 26.2821 380.512 -7.06619 496.964Z" stroke="url(#paint67_linear_205_2303)" stroke-opacity="0.2" stroke-width="1.25714"/>
<path opacity="0.0285714" fill-rule="evenodd" clip-rule="evenodd" d="M-5.30543 491.743C-39.8748 607.146 -141.622 560.366 -99.8006 740.81C-57.9789 921.255 101.045 983.587 183.451 861.701C265.858 739.815 295.767 680.937 333.967 692.597C372.168 704.257 462.723 705.555 481.091 614.341C499.46 523.127 494.135 463.526 417.35 427.019C340.564 390.512 292.59 406.497 258.799 423.69C225.008 440.882 147.899 252.706 77.4702 292.709C7.04162 332.713 29.2639 376.34 -5.30543 491.743Z" stroke="url(#paint68_linear_205_2303)" stroke-opacity="0.2" stroke-width="1.25714"/>
<path opacity="0.0142857" fill-rule="evenodd" clip-rule="evenodd" d="M-3.53626 486.532C-39.3352 600.922 -140.507 551.307 -100.672 732.856C-60.8371 914.404 97.4038 981.171 181.078 861.641C264.752 742.112 295.281 684.095 333.329 696.821C371.378 709.548 461.858 713.384 481.205 622.719C500.551 532.055 495.877 472.327 419.539 433.682C343.201 395.036 295.085 409.67 261.13 425.909C227.175 442.148 152.16 251.881 81.3447 289.895C10.5289 327.909 32.2627 372.142 -3.53626 486.532Z" stroke="url(#paint69_linear_205_2303)" stroke-opacity="0.2" stroke-width="1.25714"/>
</g>
<defs>
<linearGradient id="paint0_linear_205_2303" x1="138.12" y1="1224.66" x2="-326.074" y2="928.382" gradientUnits="userSpaceOnUse">
<stop stop-color="#9EE1EC"/>
<stop offset="1" stop-color="#E5A7E0"/>
</linearGradient>
<linearGradient id="paint1_linear_205_2303" x1="131.959" y1="1222.93" x2="-330.916" y2="916.984" gradientUnits="userSpaceOnUse">
<stop stop-color="#9EE1EC"/>
<stop offset="1" stop-color="#E5A7E0"/>
</linearGradient>
<linearGradient id="paint2_linear_205_2303" x1="125.821" y1="1221.03" x2="-335.537" y2="905.209" gradientUnits="userSpaceOnUse">
<stop stop-color="#9EE1EC"/>
<stop offset="1" stop-color="#E5A7E0"/>
</linearGradient>
<linearGradient id="paint3_linear_205_2303" x1="119.71" y1="1218.96" x2="-339.921" y2="893.057" gradientUnits="userSpaceOnUse">
<stop stop-color="#9EE1EC"/>
<stop offset="1" stop-color="#E5A7E0"/>
</linearGradient>
<linearGradient id="paint4_linear_205_2303" x1="113.625" y1="1216.72" x2="-344.049" y2="880.527" gradientUnits="userSpaceOnUse">
<stop stop-color="#9EE1EC"/>
<stop offset="1" stop-color="#E5A7E0"/>
</linearGradient>
<linearGradient id="paint5_linear_205_2303" x1="107.569" y1="1214.31" x2="-347.9" y2="867.623" gradientUnits="userSpaceOnUse">
<stop stop-color="#9EE1EC"/>
<stop offset="1" stop-color="#E5A7E0"/>
</linearGradient>
<linearGradient id="paint6_linear_205_2303" x1="101.544" y1="1211.73" x2="-351.455" y2="854.346" gradientUnits="userSpaceOnUse">
<stop stop-color="#9EE1EC"/>
<stop offset="1" stop-color="#E5A7E0"/>
</linearGradient>
<linearGradient id="paint7_linear_205_2303" x1="95.5517" y1="1208.98" x2="-354.694" y2="840.7" gradientUnits="userSpaceOnUse">
<stop stop-color="#9EE1EC"/>
<stop offset="1" stop-color="#E5A7E0"/>
</linearGradient>
<linearGradient id="paint8_linear_205_2303" x1="89.5939" y1="1206.07" x2="-357.593" y2="826.689" gradientUnits="userSpaceOnUse">
<stop stop-color="#9EE1EC"/>
<stop offset="1" stop-color="#E5A7E0"/>
</linearGradient>
<linearGradient id="paint9_linear_205_2303" x1="83.6724" y1="1202.99" x2="-360.131" y2="812.322" gradientUnits="userSpaceOnUse">
<stop stop-color="#9EE1EC"/>
<stop offset="1" stop-color="#E5A7E0"/>
</linearGradient>
<linearGradient id="paint10_linear_205_2303" x1="77.7883" y1="1199.75" x2="-362.286" y2="797.604" gradientUnits="userSpaceOnUse">
<stop stop-color="#9EE1EC"/>
<stop offset="1" stop-color="#E5A7E0"/>
</linearGradient>
<linearGradient id="paint11_linear_205_2303" x1="71.9442" y1="1196.35" x2="-364.033" y2="782.547" gradientUnits="userSpaceOnUse">
<stop stop-color="#9EE1EC"/>
<stop offset="1" stop-color="#E5A7E0"/>
</linearGradient>
<linearGradient id="paint12_linear_205_2303" x1="66.1403" y1="1192.78" x2="-365.348" y2="767.157" gradientUnits="userSpaceOnUse">
<stop stop-color="#9EE1EC"/>
<stop offset="1" stop-color="#E5A7E0"/>
</linearGradient>
<linearGradient id="paint13_linear_205_2303" x1="60.3809" y1="1189.05" x2="-366.206" y2="751.454" gradientUnits="userSpaceOnUse">
<stop stop-color="#9EE1EC"/>
<stop offset="1" stop-color="#E5A7E0"/>
</linearGradient>
<linearGradient id="paint14_linear_205_2303" x1="54.665" y1="1185.17" x2="-366.585" y2="735.448" gradientUnits="userSpaceOnUse">
<stop stop-color="#9EE1EC"/>
<stop offset="1" stop-color="#E5A7E0"/>
</linearGradient>
<linearGradient id="paint15_linear_205_2303" x1="48.9955" y1="1181.13" x2="-366.458" y2="719.159" gradientUnits="userSpaceOnUse">
<stop stop-color="#9EE1EC"/>
<stop offset="1" stop-color="#E5A7E0"/>
</linearGradient>
<linearGradient id="paint16_linear_205_2303" x1="43.3746" y1="1176.93" x2="-365.799" y2="702.605" gradientUnits="userSpaceOnUse">
<stop stop-color="#9EE1EC"/>
<stop offset="1" stop-color="#E5A7E0"/>
</linearGradient>
<linearGradient id="paint17_linear_205_2303" x1="37.8027" y1="1172.58" x2="-364.587" y2="685.81" gradientUnits="userSpaceOnUse">
<stop stop-color="#9EE1EC"/>
<stop offset="1" stop-color="#E5A7E0"/>
</linearGradient>
<linearGradient id="paint18_linear_205_2303" x1="32.2822" y1="1168.08" x2="-362.795" y2="668.797" gradientUnits="userSpaceOnUse">
<stop stop-color="#9EE1EC"/>
<stop offset="1" stop-color="#E5A7E0"/>
</linearGradient>
<linearGradient id="paint19_linear_205_2303" x1="26.814" y1="1163.42" x2="-360.402" y2="651.594" gradientUnits="userSpaceOnUse">
<stop stop-color="#9EE1EC"/>
<stop offset="1" stop-color="#E5A7E0"/>
</linearGradient>
<linearGradient id="paint20_linear_205_2303" x1="21.4011" y1="1158.62" x2="-357.383" y2="634.229" gradientUnits="userSpaceOnUse">
<stop stop-color="#9EE1EC"/>
<stop offset="1" stop-color="#E5A7E0"/>
</linearGradient>
<linearGradient id="paint21_linear_205_2303" x1="16.0432" y1="1153.66" x2="-353.719" y2="616.737" gradientUnits="userSpaceOnUse">
<stop stop-color="#9EE1EC"/>
<stop offset="1" stop-color="#E5A7E0"/>
</linearGradient>
<linearGradient id="paint22_linear_205_2303" x1="10.7427" y1="1148.56" x2="-349.39" y2="599.153" gradientUnits="userSpaceOnUse">
<stop stop-color="#9EE1EC"/>
<stop offset="1" stop-color="#E5A7E0"/>
</linearGradient>
<linearGradient id="paint23_linear_205_2303" x1="5.50171" y1="1143.32" x2="-344.378" y2="581.513" gradientUnits="userSpaceOnUse">
<stop stop-color="#9EE1EC"/>
<stop offset="1" stop-color="#E5A7E0"/>
</linearGradient>
<linearGradient id="paint24_linear_205_2303" x1="0.320862" y1="1137.93" x2="-338.669" y2="563.863" gradientUnits="userSpaceOnUse">
<stop stop-color="#9EE1EC"/>
<stop offset="1" stop-color="#E5A7E0"/>
</linearGradient>
<linearGradient id="paint25_linear_205_2303" x1="-4.79865" y1="1132.4" x2="-332.25" y2="546.241" gradientUnits="userSpaceOnUse">
<stop stop-color="#9EE1EC"/>
<stop offset="1" stop-color="#E5A7E0"/>
</linearGradient>
<linearGradient id="paint26_linear_205_2303" x1="-9.85425" y1="1126.74" x2="-325.11" y2="528.696" gradientUnits="userSpaceOnUse">
<stop stop-color="#9EE1EC"/>
<stop offset="1" stop-color="#E5A7E0"/>
</linearGradient>
<linearGradient id="paint27_linear_205_2303" x1="-14.8453" y1="1120.93" x2="-317.246" y2="511.276" gradientUnits="userSpaceOnUse">
<stop stop-color="#9EE1EC"/>
<stop offset="1" stop-color="#E5A7E0"/>
</linearGradient>
<linearGradient id="paint28_linear_205_2303" x1="-19.77" y1="1114.99" x2="-308.652" y2="494.027" gradientUnits="userSpaceOnUse">
<stop stop-color="#9EE1EC"/>
<stop offset="1" stop-color="#E5A7E0"/>
</linearGradient>
<linearGradient id="paint29_linear_205_2303" x1="-24.6271" y1="1108.92" x2="-299.332" y2="477.006" gradientUnits="userSpaceOnUse">
<stop stop-color="#9EE1EC"/>
<stop offset="1" stop-color="#E5A7E0"/>
</linearGradient>
<linearGradient id="paint30_linear_205_2303" x1="-29.415" y1="1102.72" x2="-289.293" y2="460.264" gradientUnits="userSpaceOnUse">
<stop stop-color="#9EE1EC"/>
<stop offset="1" stop-color="#E5A7E0"/>
</linearGradient>
<linearGradient id="paint31_linear_205_2303" x1="-34.1334" y1="1096.38" x2="-278.544" y2="443.854" gradientUnits="userSpaceOnUse">
<stop stop-color="#9EE1EC"/>
<stop offset="1" stop-color="#E5A7E0"/>
</linearGradient>
<linearGradient id="paint32_linear_205_2303" x1="-38.78" y1="1089.92" x2="-267.103" y2="427.83" gradientUnits="userSpaceOnUse">
<stop stop-color="#9EE1EC"/>
<stop offset="1" stop-color="#E5A7E0"/>
</linearGradient>
<linearGradient id="paint33_linear_205_2303" x1="-43.3533" y1="1083.34" x2="-254.99" y2="412.246" gradientUnits="userSpaceOnUse">
<stop stop-color="#9EE1EC"/>
<stop offset="1" stop-color="#E5A7E0"/>
</linearGradient>
<linearGradient id="paint34_linear_205_2303" x1="-47.8525" y1="1076.63" x2="-242.231" y2="397.155" gradientUnits="userSpaceOnUse">
<stop stop-color="#9EE1EC"/>
<stop offset="1" stop-color="#E5A7E0"/>
</linearGradient>
<linearGradient id="paint35_linear_205_2303" x1="-52.2772" y1="1069.8" x2="-228.86" y2="382.608" gradientUnits="userSpaceOnUse">
<stop stop-color="#9EE1EC"/>
<stop offset="1" stop-color="#E5A7E0"/>
</linearGradient>
<linearGradient id="paint36_linear_205_2303" x1="-56.6234" y1="1062.86" x2="-214.91" y2="368.653" gradientUnits="userSpaceOnUse">
<stop stop-color="#9EE1EC"/>
<stop offset="1" stop-color="#E5A7E0"/>
</linearGradient>
<linearGradient id="paint37_linear_205_2303" x1="-60.8935" y1="1055.79" x2="-200.428" y2="355.337" gradientUnits="userSpaceOnUse">
<stop stop-color="#9EE1EC"/>
<stop offset="1" stop-color="#E5A7E0"/>
</linearGradient>
<linearGradient id="paint38_linear_205_2303" x1="-65.0833" y1="1048.62" x2="-185.456" y2="342.702" gradientUnits="userSpaceOnUse">
<stop stop-color="#9EE1EC"/>
<stop offset="1" stop-color="#E5A7E0"/>
</linearGradient>
<linearGradient id="paint39_linear_205_2303" x1="-69.1938" y1="1041.33" x2="-170.049" y2="330.789" gradientUnits="userSpaceOnUse">
<stop stop-color="#9EE1EC"/>
<stop offset="1" stop-color="#E5A7E0"/>
</linearGradient>
<linearGradient id="paint40_linear_205_2303" x1="-73.2224" y1="1033.93" x2="-154.259" y2="319.627" gradientUnits="userSpaceOnUse">
<stop stop-color="#9EE1EC"/>
<stop offset="1" stop-color="#E5A7E0"/>
</linearGradient>
<linearGradient id="paint41_linear_205_2303" x1="-77.1695" y1="1026.42" x2="-138.148" y2="309.251" gradientUnits="userSpaceOnUse">
<stop stop-color="#9EE1EC"/>
<stop offset="1" stop-color="#E5A7E0"/>
</linearGradient>
<linearGradient id="paint42_linear_205_2303" x1="-81.033" y1="1018.82" x2="-121.776" y2="299.679" gradientUnits="userSpaceOnUse">
<stop stop-color="#9EE1EC"/>
<stop offset="1" stop-color="#E5A7E0"/>
</linearGradient>
<linearGradient id="paint43_linear_205_2303" x1="-84.8115" y1="1011.1" x2="-105.206" y2="290.931" gradientUnits="userSpaceOnUse">
<stop stop-color="#9EE1EC"/>
<stop offset="1" stop-color="#E5A7E0"/>
</linearGradient>
<linearGradient id="paint44_linear_205_2303" x1="-88.5046" y1="1003.29" x2="-88.5046" y2="283.016" gradientUnits="userSpaceOnUse">
<stop stop-color="#9EE1EC"/>
<stop offset="1" stop-color="#E5A7E0"/>
</linearGradient>
<linearGradient id="paint45_linear_205_2303" x1="-92.1104" y1="995.387" x2="-71.7363" y2="275.941" gradientUnits="userSpaceOnUse">
<stop stop-color="#9EE1EC"/>
<stop offset="1" stop-color="#E5A7E0"/>
</linearGradient>
<linearGradient id="paint46_linear_205_2303" x1="-95.6302" y1="987.384" x2="-54.9695" y2="269.698" gradientUnits="userSpaceOnUse">
<stop stop-color="#9EE1EC"/>
<stop offset="1" stop-color="#E5A7E0"/>
</linearGradient>
<linearGradient id="paint47_linear_205_2303" x1="-99.0613" y1="979.292" x2="-38.2671" y2="264.288" gradientUnits="userSpaceOnUse">
<stop stop-color="#9EE1EC"/>
<stop offset="1" stop-color="#E5A7E0"/>
</linearGradient>
<linearGradient id="paint48_linear_205_2303" x1="-102.402" y1="971.107" x2="-21.6916" y2="259.685" gradientUnits="userSpaceOnUse">
<stop stop-color="#9EE1EC"/>
<stop offset="1" stop-color="#E5A7E0"/>
</linearGradient>
<linearGradient id="paint49_linear_205_2303" x1="-105.653" y1="962.838" x2="-5.30649" y2="255.877" gradientUnits="userSpaceOnUse">
<stop stop-color="#9EE1EC"/>
<stop offset="1" stop-color="#E5A7E0"/>
</linearGradient>
<linearGradient id="paint50_linear_205_2303" x1="-108.814" y1="954.485" x2="10.8315" y2="252.836" gradientUnits="userSpaceOnUse">
<stop stop-color="#9EE1EC"/>
<stop offset="1" stop-color="#E5A7E0"/>
</linearGradient>
<linearGradient id="paint51_linear_205_2303" x1="-111.882" y1="946.047" x2="26.6697" y2="250.525" gradientUnits="userSpaceOnUse">
<stop stop-color="#9EE1EC"/>
<stop offset="1" stop-color="#E5A7E0"/>
</linearGradient>
<linearGradient id="paint52_linear_205_2303" x1="-114.858" y1="937.535" x2="42.1558" y2="248.917" gradientUnits="userSpaceOnUse">
<stop stop-color="#9EE1EC"/>
<stop offset="1" stop-color="#E5A7E0"/>
</linearGradient>
<linearGradient id="paint53_linear_205_2303" x1="-117.74" y1="928.942" x2="57.2454" y2="247.964" gradientUnits="userSpaceOnUse">
<stop stop-color="#9EE1EC"/>
<stop offset="1" stop-color="#E5A7E0"/>
</linearGradient>
<linearGradient id="paint54_linear_205_2303" x1="-120.528" y1="920.278" x2="71.8981" y2="247.629" gradientUnits="userSpaceOnUse">
<stop stop-color="#9EE1EC"/>
<stop offset="1" stop-color="#E5A7E0"/>
</linearGradient>
<linearGradient id="paint55_linear_205_2303" x1="-123.222" y1="911.545" x2="86.0773" y2="247.866" gradientUnits="userSpaceOnUse">
<stop stop-color="#9EE1EC"/>
<stop offset="1" stop-color="#E5A7E0"/>
</linearGradient>
<linearGradient id="paint56_linear_205_2303" x1="-125.82" y1="902.74" x2="99.7536" y2="248.621" gradientUnits="userSpaceOnUse">
<stop stop-color="#9EE1EC"/>
<stop offset="1" stop-color="#E5A7E0"/>
</linearGradient>
<linearGradient id="paint57_linear_205_2303" x1="-128.32" y1="893.87" x2="112.903" y2="249.85" gradientUnits="userSpaceOnUse">
<stop stop-color="#9EE1EC"/>
<stop offset="1" stop-color="#E5A7E0"/>
</linearGradient>
<linearGradient id="paint58_linear_205_2303" x1="-130.726" y1="884.939" x2="125.504" y2="251.504" gradientUnits="userSpaceOnUse">
<stop stop-color="#9EE1EC"/>
<stop offset="1" stop-color="#E5A7E0"/>
</linearGradient>
<linearGradient id="paint59_linear_205_2303" x1="-133.033" y1="875.95" x2="137.542" y2="253.536" gradientUnits="userSpaceOnUse">
<stop stop-color="#9EE1EC"/>
<stop offset="1" stop-color="#E5A7E0"/>
</linearGradient>
<linearGradient id="paint60_linear_205_2303" x1="-135.243" y1="866.902" x2="149.009" y2="255.888" gradientUnits="userSpaceOnUse">
<stop stop-color="#9EE1EC"/>
<stop offset="1" stop-color="#E5A7E0"/>
</linearGradient>
<linearGradient id="paint61_linear_205_2303" x1="-137.355" y1="857.8" x2="159.899" y2="258.519" gradientUnits="userSpaceOnUse">
<stop stop-color="#9EE1EC"/>
<stop offset="1" stop-color="#E5A7E0"/>
</linearGradient>
<linearGradient id="paint62_linear_205_2303" x1="-139.367" y1="848.647" x2="170.211" y2="261.378" gradientUnits="userSpaceOnUse">
<stop stop-color="#9EE1EC"/>
<stop offset="1" stop-color="#E5A7E0"/>
</linearGradient>
<linearGradient id="paint63_linear_205_2303" x1="-141.28" y1="839.444" x2="179.949" y2="264.42" gradientUnits="userSpaceOnUse">
<stop stop-color="#9EE1EC"/>
<stop offset="1" stop-color="#E5A7E0"/>
</linearGradient>
<linearGradient id="paint64_linear_205_2303" x1="-143.093" y1="830.198" x2="189.119" y2="267.606" gradientUnits="userSpaceOnUse">
<stop stop-color="#9EE1EC"/>
<stop offset="1" stop-color="#E5A7E0"/>
</linearGradient>
<linearGradient id="paint65_linear_205_2303" x1="-144.806" y1="820.906" x2="197.733" y2="270.89" gradientUnits="userSpaceOnUse">
<stop stop-color="#9EE1EC"/>
<stop offset="1" stop-color="#E5A7E0"/>
</linearGradient>
<linearGradient id="paint66_linear_205_2303" x1="-146.418" y1="811.576" x2="205.802" y2="274.237" gradientUnits="userSpaceOnUse">
<stop stop-color="#9EE1EC"/>
<stop offset="1" stop-color="#E5A7E0"/>
</linearGradient>
<linearGradient id="paint67_linear_205_2303" x1="-147.93" y1="802.207" x2="213.343" y2="277.609" gradientUnits="userSpaceOnUse">
<stop stop-color="#9EE1EC"/>
<stop offset="1" stop-color="#E5A7E0"/>
</linearGradient>
<linearGradient id="paint68_linear_205_2303" x1="-149.317" y1="792.724" x2="220.304" y2="281.022" gradientUnits="userSpaceOnUse">
<stop stop-color="#9EE1EC"/>
<stop offset="1" stop-color="#E5A7E0"/>
</linearGradient>
<linearGradient id="paint69_linear_205_2303" x1="-150.719" y1="783.362" x2="226.884" y2="284.24" gradientUnits="userSpaceOnUse">
<stop stop-color="#9EE1EC"/>
<stop offset="1" stop-color="#E5A7E0"/>
</linearGradient>
</defs>
</svg>
