<svg width="428" height="714" viewBox="0 0 428 714" fill="none" xmlns="http://www.w3.org/2000/svg">
<g style="mix-blend-mode:overlay">
<path fill-rule="evenodd" clip-rule="evenodd" d="M9.42224 654.725C40.1129 729.293 1.58943 837.34 71.1795 839.416C140.769 841.491 197.384 669.513 175.31 535.935C153.236 402.357 140.343 349.653 152.838 307.386C165.333 265.118 186.169 157.326 159.894 109.084C133.618 60.8414 112.545 50.0159 83.0716 131.208C53.5979 212.4 48.1183 274.314 46.2374 319.635C44.3565 364.955 -35.7624 402.799 -38.2924 498.46C-40.8223 594.121 -21.2684 580.156 9.42224 654.725Z" stroke="url(#paint0_linear_44_951)" stroke-opacity="0.2" stroke-width="1.25714"/>
<path opacity="0.985714" fill-rule="evenodd" clip-rule="evenodd" d="M8.07013 651.004C38.1475 726.696 -1.1976 833.173 68.3199 837.929C137.837 842.685 195.764 673.025 174.762 538.701C153.76 404.378 141.293 351.219 154.111 309.467C166.93 267.714 188.6 160.811 162.726 111.593C136.853 62.3764 115.882 50.7473 85.7918 130.739C55.7011 210.732 49.7373 272.386 47.5002 317.597C45.2632 362.809 -35.0898 397.536 -38.3727 493.024C-41.6556 588.511 -22.0072 575.312 8.07013 651.004Z" stroke="url(#paint1_linear_44_951)" stroke-opacity="0.2" stroke-width="1.25714"/>
<path opacity="0.971429" fill-rule="evenodd" clip-rule="evenodd" d="M6.74891 647.235C36.2045 724.027 -3.94901 828.904 65.4746 836.335C134.898 843.767 194.116 676.473 174.191 541.445C154.266 406.418 142.229 352.82 155.367 311.594C168.505 270.369 191.001 164.384 165.537 114.209C140.073 64.0332 119.211 51.605 88.5135 130.375C57.8159 209.144 51.3703 270.52 48.7783 315.61C46.1862 360.7 -34.3756 392.303 -38.4095 487.589C-42.4433 582.875 -22.7067 570.443 6.74891 647.235Z" stroke="url(#paint2_linear_44_951)" stroke-opacity="0.2" stroke-width="1.25714"/>
<path opacity="0.957143" fill-rule="evenodd" clip-rule="evenodd" d="M5.45899 643.419C34.2844 721.287 -6.66397 824.534 62.6442 834.635C131.952 844.736 192.442 679.855 173.599 544.165C154.757 408.475 143.152 354.456 156.605 313.768C170.057 273.081 193.371 168.046 168.324 116.929C143.277 65.8108 122.53 52.5883 91.2359 130.113C59.9418 207.638 53.0171 268.718 50.0713 313.673C47.1255 358.628 -33.6199 387.101 -38.4025 482.157C-43.185 577.214 -23.3664 565.552 5.45899 643.419Z" stroke="url(#paint3_linear_44_951)" stroke-opacity="0.2" stroke-width="1.25714"/>
<path opacity="0.942857" fill-rule="evenodd" clip-rule="evenodd" d="M4.20078 639.557C32.3879 718.475 -9.34168 820.064 59.8297 832.828C129.001 845.593 190.742 683.171 172.986 546.86C155.23 410.549 144.061 356.124 157.824 315.987C171.586 275.849 195.71 171.795 171.087 119.751C146.464 67.7079 125.839 53.6961 93.9584 129.955C62.0782 206.214 54.6771 266.979 51.3789 311.786C48.0807 356.592 -32.8229 381.932 -38.3518 476.73C-43.8806 571.528 -23.9863 560.639 4.20078 639.557Z" stroke="url(#paint4_linear_44_951)" stroke-opacity="0.2" stroke-width="1.25714"/>
<path opacity="0.928571" fill-rule="evenodd" clip-rule="evenodd" d="M2.97439 635.651C30.5152 715.594 -11.9816 815.497 57.0317 830.917C126.045 846.337 189.017 686.42 172.351 549.53C155.686 412.64 144.956 357.826 159.024 318.25C173.092 278.674 198.017 175.629 173.825 122.677C149.633 69.7251 129.136 54.9293 96.6799 129.901C64.2242 204.872 56.3496 265.305 52.7005 309.95C49.0514 354.596 -31.9852 376.798 -38.2577 471.31C-44.5302 565.822 -24.5664 555.708 2.97439 635.651Z" stroke="url(#paint5_linear_44_951)" stroke-opacity="0.2" stroke-width="1.25714"/>
<path opacity="0.914286" fill-rule="evenodd" clip-rule="evenodd" d="M1.78051 631.701C28.6673 712.644 -14.5825 810.833 54.2514 828.901C123.085 846.969 187.267 689.6 171.696 552.173C156.125 414.745 145.837 359.56 160.205 320.557C174.574 281.553 200.291 179.548 176.538 125.704C152.784 71.8601 132.42 56.2858 99.3998 129.949C66.3794 203.613 58.0344 263.696 54.036 308.166C50.0375 352.636 -31.1066 371.699 -38.1199 465.897C-45.1332 560.094 -25.1063 550.758 1.78051 631.701Z" stroke="url(#paint6_linear_44_951)" stroke-opacity="0.2" stroke-width="1.25714"/>
<path opacity="0.9" fill-rule="evenodd" clip-rule="evenodd" d="M0.619175 627.71C26.8444 709.627 -17.1441 806.075 51.4893 826.781C120.123 847.487 185.493 692.712 171.02 554.789C156.546 416.866 146.702 361.327 161.367 322.907C176.031 284.486 202.532 183.55 179.223 128.832C155.915 74.1133 135.691 57.7662 102.117 130.101C68.543 202.436 59.7307 262.152 55.3846 306.435C51.0384 350.717 -30.1879 366.638 -37.9389 460.494C-45.6899 554.35 -25.6061 545.792 0.619175 627.71Z" stroke="url(#paint7_linear_44_951)" stroke-opacity="0.2" stroke-width="1.25714"/>
<path opacity="0.885714" fill-rule="evenodd" clip-rule="evenodd" d="M-0.509062 623.677C25.0473 706.543 -19.6655 801.223 48.7464 824.558C117.158 847.893 183.695 695.753 170.323 557.377C156.95 419.001 147.554 363.124 162.509 325.298C177.464 287.472 204.74 187.633 181.883 132.058C159.025 76.483 138.948 59.369 104.831 130.356C70.7146 201.342 61.4384 260.674 56.7463 304.755C52.0543 348.836 -29.2291 361.616 -37.7144 455.102C-46.1998 548.588 -26.0654 540.811 -0.509062 623.677Z" stroke="url(#paint8_linear_44_951)" stroke-opacity="0.2" stroke-width="1.25714"/>
<path opacity="0.871429" fill-rule="evenodd" clip-rule="evenodd" d="M-1.60387 619.605C23.2765 703.394 -22.1457 796.279 46.0237 822.233C114.193 848.186 181.874 698.724 169.606 559.937C157.337 421.149 148.39 364.953 163.631 327.731C178.872 290.51 206.913 191.796 184.514 135.383C162.115 78.9691 142.19 61.0945 107.542 130.713C72.8935 200.332 63.1568 259.262 58.1207 303.129C53.0846 346.996 -28.2304 356.635 -37.4466 449.724C-46.6629 542.813 -26.4842 535.817 -1.60387 619.605Z" stroke="url(#paint9_linear_44_951)" stroke-opacity="0.2" stroke-width="1.25714"/>
<path opacity="0.857143" fill-rule="evenodd" clip-rule="evenodd" d="M-2.66545 615.496C21.532 700.181 -24.5847 791.247 43.3214 819.807C111.227 848.367 180.031 701.624 168.869 562.468C157.707 423.311 149.21 366.812 164.732 330.206C180.254 293.599 209.05 196.039 187.116 138.805C165.182 81.5706 145.415 62.9417 110.247 131.174C75.0786 199.406 64.8849 257.916 59.5068 301.557C54.1286 345.198 -27.1928 351.696 -37.1362 444.361C-47.0795 537.025 -26.8629 530.812 -2.66545 615.496Z" stroke="url(#paint10_linear_44_951)" stroke-opacity="0.2" stroke-width="1.25714"/>
<path opacity="0.842857" fill-rule="evenodd" clip-rule="evenodd" d="M-3.69291 611.351C19.8149 696.904 -26.9811 786.127 40.6409 817.281C108.263 848.436 178.166 704.452 168.112 564.969C158.058 425.486 150.016 368.701 165.813 332.72C181.611 296.738 211.152 200.36 189.689 142.323C168.226 84.2866 148.623 64.9102 112.946 131.737C77.2698 198.564 66.6229 256.638 60.9047 300.039C55.1866 343.44 -26.116 346.802 -36.7825 439.015C-47.449 531.227 -27.2008 525.797 -3.69291 611.351Z" stroke="url(#paint11_linear_44_951)" stroke-opacity="0.2" stroke-width="1.25714"/>
<path opacity="0.828571" fill-rule="evenodd" clip-rule="evenodd" d="M-4.68691 607.167C18.1249 693.563 -29.3351 780.917 37.982 814.653C105.299 848.389 176.278 707.203 167.335 567.436C158.392 427.669 150.804 370.617 166.872 335.27C182.941 299.923 213.218 204.754 192.231 145.934C171.245 87.1131 151.812 66.9961 115.639 132.4C79.4655 197.803 68.3692 255.424 62.3132 298.573C56.2573 341.722 -25.0012 341.95 -36.3867 433.683C-47.7722 525.417 -27.4987 520.771 -4.68691 607.167Z" stroke="url(#paint12_linear_44_951)" stroke-opacity="0.2" stroke-width="1.25714"/>
<path opacity="0.814286" fill-rule="evenodd" clip-rule="evenodd" d="M-5.64559 602.952C16.4638 690.163 -31.6447 775.626 35.3472 811.929C102.339 848.232 174.371 709.884 166.54 569.875C158.708 429.866 151.578 372.563 167.911 337.861C184.245 303.159 215.247 209.226 194.744 149.64C174.24 90.0548 154.984 69.2041 118.325 133.167C81.6667 197.129 70.1249 254.281 63.7335 297.165C57.342 340.049 -23.8473 337.147 -35.9474 428.375C-48.0475 519.603 -27.755 515.741 -5.64559 602.952Z" stroke="url(#paint13_linear_44_951)" stroke-opacity="0.2" stroke-width="1.25714"/>
<path opacity="0.8" fill-rule="evenodd" clip-rule="evenodd" d="M-6.57051 598.703C14.8306 686.702 -33.9108 770.249 32.7354 809.106C99.3816 847.962 172.444 712.488 165.725 572.28C159.006 432.071 152.335 374.536 168.928 340.488C185.521 306.44 217.238 213.769 197.224 153.438C177.209 93.1059 158.134 71.529 121.002 134.033C83.8709 196.538 71.8878 253.203 65.1632 295.81C58.4386 338.417 -22.6564 332.391 -35.4666 423.086C-48.2767 513.782 -27.9716 510.704 -6.57051 598.703Z" stroke="url(#paint14_linear_44_951)" stroke-opacity="0.2" stroke-width="1.25714"/>
<path opacity="0.785714" fill-rule="evenodd" clip-rule="evenodd" d="M-7.46043 594.423C13.2265 683.182 -36.1319 764.793 30.1484 806.187C96.4286 847.581 170.496 715.018 164.891 574.652C159.287 434.286 153.076 376.536 169.923 343.152C186.77 309.767 219.192 218.385 199.671 157.326C180.151 96.2676 161.263 73.9719 123.671 135.002C86.0784 196.031 73.6582 252.194 66.603 294.511C59.5477 336.828 -21.428 327.684 -34.9434 417.821C-48.4588 507.958 -28.1473 505.664 -7.46043 594.423Z" stroke="url(#paint15_linear_44_951)" stroke-opacity="0.2" stroke-width="1.25714"/>
<path opacity="0.771429" fill-rule="evenodd" clip-rule="evenodd" d="M-8.31504 590.113C11.6521 679.604 -38.3073 759.256 27.587 803.172C93.4812 847.087 168.531 717.471 164.04 576.991C159.549 436.51 153.8 378.562 170.896 345.851C187.992 313.139 221.107 223.07 202.087 161.304C183.066 99.5383 164.371 76.5316 126.33 136.07C88.2887 195.609 75.4358 251.253 68.0524 293.268C60.669 335.283 -20.1625 323.029 -34.3781 412.581C-48.5937 502.132 -28.2821 500.622 -8.31504 590.113Z" stroke="url(#paint16_linear_44_951)" stroke-opacity="0.2" stroke-width="1.25714"/>
<path opacity="0.757143" fill-rule="evenodd" clip-rule="evenodd" d="M-9.1347 585.774C10.1073 675.97 -40.4369 753.642 25.0513 800.062C90.5395 846.483 166.546 719.847 163.17 579.295C159.793 438.742 154.508 380.615 171.847 348.584C189.186 316.554 222.983 227.824 204.468 165.37C185.953 102.917 167.456 79.207 128.978 137.239C90.5006 195.271 77.2193 250.381 69.5105 292.081C61.8016 333.782 -18.8607 318.426 -33.7714 407.366C-48.682 496.306 -28.3767 495.579 -9.1347 585.774Z" stroke="url(#paint17_linear_44_951)" stroke-opacity="0.2" stroke-width="1.25714"/>
<path opacity="0.742857" fill-rule="evenodd" clip-rule="evenodd" d="M-9.91876 581.409C8.59295 672.281 -42.5198 747.953 22.5426 796.86C87.605 845.767 164.544 722.147 162.282 581.564C160.02 440.982 155.198 382.692 172.775 351.352C190.352 320.012 224.82 232.646 206.815 169.524C188.81 106.402 170.518 81.9976 131.616 138.507C92.7137 195.017 79.0088 249.577 70.9772 290.951C62.9457 332.326 -17.5227 313.877 -33.123 402.18C-48.7233 490.483 -28.4305 490.537 -9.91876 581.409Z" stroke="url(#paint18_linear_44_951)" stroke-opacity="0.2" stroke-width="1.25714"/>
<path opacity="0.728571" fill-rule="evenodd" clip-rule="evenodd" d="M-10.6675 577.018C7.10897 668.537 -44.5558 742.189 20.0611 793.565C84.678 844.94 162.525 724.368 161.376 583.798C160.227 443.228 155.871 384.794 173.68 354.152C191.489 323.511 226.616 237.532 209.126 173.763C191.637 109.993 173.554 84.9019 134.241 139.875C94.927 194.848 80.8031 248.842 72.4517 289.878C64.1003 330.914 -16.1494 309.382 -32.4338 397.023C-48.7181 484.663 -28.4441 485.498 -10.6675 577.018Z" stroke="url(#paint19_linear_44_951)" stroke-opacity="0.2" stroke-width="1.25714"/>
<path opacity="0.714286" fill-rule="evenodd" clip-rule="evenodd" d="M-11.38 572.601C5.65669 664.74 -46.5435 736.353 17.6084 790.178C81.7602 844.003 160.49 726.509 160.454 585.994C160.418 445.479 156.527 386.919 174.562 356.984C192.597 327.048 228.373 242.482 211.403 178.084C194.434 113.687 176.566 87.9181 136.853 141.34C97.1407 194.763 82.6027 248.175 73.9344 288.861C65.2661 329.547 -14.7405 304.943 -31.7031 391.895C-48.6656 478.848 -28.4166 480.462 -11.38 572.601Z" stroke="url(#paint20_linear_44_951)" stroke-opacity="0.2" stroke-width="1.25714"/>
<path opacity="0.7" fill-rule="evenodd" clip-rule="evenodd" d="M-12.0569 568.162C4.23543 660.891 -48.4835 730.446 15.1841 786.701C78.8516 842.955 158.439 728.572 159.514 588.154C160.589 447.736 157.166 389.067 175.421 359.847C193.676 330.626 230.088 247.495 213.643 182.49C197.198 117.485 179.551 91.0466 139.452 142.904C99.353 194.762 84.4058 247.578 75.4236 287.902C66.4415 328.225 -13.2974 300.562 -30.9322 386.801C-48.567 473.04 -28.3492 475.432 -12.0569 568.162Z" stroke="url(#paint21_linear_44_951)" stroke-opacity="0.2" stroke-width="1.25714"/>
<path opacity="0.685714" fill-rule="evenodd" clip-rule="evenodd" d="M-12.6978 563.7C2.84599 656.992 -50.3748 724.471 12.7893 783.135C75.9534 841.798 156.372 730.554 158.557 590.276C160.742 449.997 157.786 391.237 176.256 362.739C194.725 334.241 231.761 252.567 215.846 186.975C199.931 121.383 182.508 94.2852 142.036 144.565C101.564 194.844 86.2125 247.049 76.9196 286.999C67.6266 326.95 -11.8202 296.24 -30.121 381.741C-48.4219 467.242 -28.2416 470.409 -12.6978 563.7Z" stroke="url(#paint22_linear_44_951)" stroke-opacity="0.2" stroke-width="1.25714"/>
<path opacity="0.671429" fill-rule="evenodd" clip-rule="evenodd" d="M-13.302 559.218C1.48923 653.043 -52.2164 718.429 10.4253 779.48C73.0669 840.531 154.292 732.456 157.585 592.358C160.878 452.261 158.389 393.429 177.067 365.66C195.745 337.891 233.393 257.698 218.012 191.54C202.63 125.382 185.438 97.6325 144.605 146.321C103.773 195.01 88.0226 246.588 78.4221 286.154C68.8216 325.719 -10.3089 291.977 -29.2694 376.715C-48.2299 461.453 -28.0933 465.394 -13.302 559.218Z" stroke="url(#paint23_linear_44_951)" stroke-opacity="0.2" stroke-width="1.25714"/>
<path opacity="0.657143" fill-rule="evenodd" clip-rule="evenodd" d="M-13.8702 554.72C0.164802 649.047 -54.0085 712.325 8.09186 775.741C70.1922 839.157 152.197 734.279 156.596 594.405C160.995 454.531 158.974 395.643 177.855 368.611C196.735 341.58 234.983 262.889 220.139 196.185C205.295 129.481 188.339 101.091 147.159 148.177C105.979 195.263 89.8348 246.2 79.9301 285.369C70.0253 324.538 -8.76478 287.778 -28.3784 371.729C-47.992 455.68 -27.9052 460.392 -13.8702 554.72Z" stroke="url(#paint24_linear_44_951)" stroke-opacity="0.2" stroke-width="1.25714"/>
<path opacity="0.642857" fill-rule="evenodd" clip-rule="evenodd" d="M-14.4021 550.201C-1.1269 645.004 -55.7507 706.156 5.78983 771.915C67.3304 837.674 150.089 736.018 155.591 596.409C161.093 456.8 159.541 397.876 178.618 371.588C197.695 345.3 236.529 268.133 222.228 200.905C207.926 133.677 191.21 104.654 149.695 150.125C108.181 195.597 91.6486 245.878 81.4431 284.64C71.2375 323.402 -7.18826 283.639 -27.4482 366.779C-47.7081 449.918 -27.6773 455.399 -14.4021 550.201Z" stroke="url(#paint25_linear_44_951)" stroke-opacity="0.2" stroke-width="1.25714"/>
<path opacity="0.628571" fill-rule="evenodd" clip-rule="evenodd" d="M-14.8972 545.668C-2.38503 640.916 -57.442 699.928 3.52033 768.006C64.4827 836.083 147.969 737.677 154.571 598.374C161.174 459.072 160.089 400.128 179.356 374.591C198.624 349.055 238.033 273.432 224.277 205.7C210.521 137.969 194.051 108.324 152.215 152.169C110.379 196.015 93.4642 245.627 82.9612 283.97C72.4583 322.313 -5.57934 279.565 -26.4786 361.87C-47.3779 444.174 -27.4093 450.42 -14.8972 545.668Z" stroke="url(#paint26_linear_44_951)" stroke-opacity="0.2" stroke-width="1.25714"/>
<path opacity="0.614286" fill-rule="evenodd" clip-rule="evenodd" d="M-15.3557 541.121C-3.60969 636.784 -59.0824 693.642 1.28356 764.014C61.6495 834.387 145.837 739.254 153.536 600.3C161.236 461.346 160.619 402.401 180.07 377.621C199.522 352.842 239.493 278.784 226.287 210.57C213.08 142.356 196.86 112.099 154.716 154.308C112.572 196.517 95.2802 245.446 84.4835 283.359C73.6867 321.273 -3.93909 275.557 -25.4706 357.003C-47.0021 438.448 -27.1017 445.457 -15.3557 541.121Z" stroke="url(#paint27_linear_44_951)" stroke-opacity="0.2" stroke-width="1.25714"/>
<path opacity="0.6" fill-rule="evenodd" clip-rule="evenodd" d="M-15.7773 536.558C-4.80019 632.607 -60.671 687.297 -0.919505 759.939C58.832 832.582 143.694 740.746 152.487 602.182C161.28 463.618 161.13 404.689 180.76 380.673C200.389 356.657 240.91 284.185 228.256 215.51C215.602 146.835 199.637 115.976 157.198 156.538C114.76 197.1 97.0968 245.332 86.0099 282.805C74.9229 320.278 -2.26755 271.613 -24.424 352.176C-46.5805 432.74 -26.7543 440.509 -15.7773 536.558Z" stroke="url(#paint28_linear_44_951)" stroke-opacity="0.2" stroke-width="1.25714"/>
<path opacity="0.585714" fill-rule="evenodd" clip-rule="evenodd" d="M-16.1621 531.985C-5.95656 628.391 -62.2079 680.899 -3.08857 755.786C56.0308 830.673 141.54 742.156 151.423 604.023C161.305 465.891 161.623 406.995 181.424 383.749C201.226 360.503 242.282 289.635 230.184 220.521C218.087 151.407 202.381 119.955 159.661 158.861C116.942 197.767 98.913 245.288 87.5395 282.311C76.1661 319.333 -0.565679 267.737 -23.3396 347.396C-46.1135 427.055 -26.3677 435.579 -16.1621 531.985Z" stroke="url(#paint29_linear_44_951)" stroke-opacity="0.2" stroke-width="1.25714"/>
<path opacity="0.571429" fill-rule="evenodd" clip-rule="evenodd" d="M-16.5099 527.402C-7.07821 624.134 -63.6924 674.448 -5.22271 751.554C53.2469 828.659 139.377 743.483 150.345 605.823C161.313 468.162 162.097 409.319 182.064 386.848C202.031 364.378 243.61 295.133 232.071 225.601C220.533 156.069 205.092 124.036 162.104 161.276C119.116 198.516 100.728 245.314 89.0722 281.875C77.4162 318.436 1.16621 263.93 -22.2175 342.662C-45.6012 421.393 -25.9417 430.669 -16.5099 527.402Z" stroke="url(#paint30_linear_44_951)" stroke-opacity="0.2" stroke-width="1.25714"/>
<path opacity="0.557143" fill-rule="evenodd" clip-rule="evenodd" d="M-16.8212 522.81C-8.16539 619.839 -65.1245 667.947 -7.32192 747.244C50.4807 826.541 137.204 744.727 149.253 607.579C161.302 470.432 162.552 411.658 182.678 389.969C202.804 368.279 244.892 300.676 233.916 230.748C222.94 160.82 207.768 128.216 164.526 163.782C121.284 199.348 102.542 245.409 90.6071 281.498C78.6723 317.587 2.92708 260.193 -21.0586 337.974C-45.0442 415.756 -25.477 425.78 -16.8212 522.81Z" stroke="url(#paint31_linear_44_951)" stroke-opacity="0.2" stroke-width="1.25714"/>
<path opacity="0.542857" fill-rule="evenodd" clip-rule="evenodd" d="M-17.0954 518.209C-9.21743 615.506 -66.5037 661.397 -9.38517 742.858C47.7333 824.319 135.022 745.886 148.148 609.292C161.273 472.699 162.988 414.012 183.267 393.109C203.545 372.206 246.13 306.263 235.719 235.96C225.308 165.658 210.408 132.494 166.925 166.378C123.443 200.261 104.354 245.572 92.144 281.18C79.9343 316.787 4.7167 256.526 -19.8629 333.335C-44.4425 410.145 -24.9734 420.913 -17.0954 518.209Z" stroke="url(#paint32_linear_44_951)" stroke-opacity="0.2" stroke-width="1.25714"/>
<path opacity="0.528571" fill-rule="evenodd" clip-rule="evenodd" d="M-17.3324 513.604C-10.2338 611.138 -67.8292 654.802 -11.4117 738.399C45.0058 821.996 132.833 746.961 147.03 610.962C161.226 474.963 163.405 416.381 183.83 396.27C204.255 376.158 247.322 311.891 237.479 241.237C227.635 170.582 213.013 136.869 169.303 169.063C125.593 201.256 106.163 245.805 93.6827 280.921C81.2023 316.037 6.5348 252.931 -18.6306 328.747C-43.796 404.563 -24.431 416.07 -17.3324 513.604Z" stroke="url(#paint33_linear_44_951)" stroke-opacity="0.2" stroke-width="1.25714"/>
<path opacity="0.514286" fill-rule="evenodd" clip-rule="evenodd" d="M-17.5325 508.994C-11.2147 606.735 -69.1011 648.162 -13.4013 733.866C42.2986 819.57 130.637 747.952 145.899 612.587C161.161 477.223 163.803 418.764 184.368 399.448C204.932 380.133 248.468 317.56 239.195 246.575C229.921 175.59 215.581 141.339 171.658 171.836C127.734 202.332 107.969 246.107 95.2223 280.721C82.4752 315.335 8.38031 249.409 -17.3625 324.21C-43.1053 399.011 -23.8503 411.253 -17.5325 508.994Z" stroke="url(#paint34_linear_44_951)" stroke-opacity="0.2" stroke-width="1.25714"/>
<path opacity="0.5" fill-rule="evenodd" clip-rule="evenodd" d="M-17.696 504.381C-12.1601 602.299 -70.3197 641.481 -15.3538 729.262C39.6121 817.044 128.434 748.859 144.756 614.169C161.077 479.479 164.181 421.159 184.879 402.645C205.577 384.131 249.568 323.267 240.867 251.974C232.166 180.681 218.111 145.903 173.988 174.696C129.865 203.49 109.772 246.478 96.762 280.58C83.7525 314.683 10.2523 245.962 -16.0595 319.726C-42.3712 393.491 -23.2319 406.462 -17.696 504.381Z" stroke="url(#paint35_linear_44_951)" stroke-opacity="0.2" stroke-width="1.25714"/>
<path opacity="0.485714" fill-rule="evenodd" clip-rule="evenodd" d="M-17.8216 499.765C-13.0686 597.831 -71.483 634.758 -17.2672 724.588C36.9486 814.417 126.226 749.68 143.601 615.704C160.977 481.729 164.54 423.567 185.365 405.858C206.191 388.149 250.622 329.011 242.495 257.431C234.369 185.852 220.604 150.559 176.295 177.642C131.986 204.726 111.571 246.916 98.3028 280.498C85.0351 314.079 12.1516 242.588 -14.7204 315.296C-41.5924 388.003 -22.5747 401.7 -17.8216 499.765Z" stroke="url(#paint36_linear_44_951)" stroke-opacity="0.2" stroke-width="1.25714"/>
<path opacity="0.471429" fill-rule="evenodd" clip-rule="evenodd" d="M-17.9111 495.149C-13.9416 593.332 -72.5927 627.998 -19.1429 719.844C34.3069 811.691 124.012 750.415 142.435 617.194C160.857 483.972 164.879 425.985 185.825 409.085C206.771 392.186 251.629 334.788 244.078 262.945C236.528 191.102 223.057 155.304 178.576 180.674C134.095 206.043 113.364 247.423 99.8424 280.474C86.3207 313.525 14.0756 239.29 -13.3478 310.92C-40.7713 382.551 -21.8807 396.967 -17.9111 495.149Z" stroke="url(#paint37_linear_44_951)" stroke-opacity="0.2" stroke-width="1.25714"/>
<path opacity="0.457143" fill-rule="evenodd" clip-rule="evenodd" d="M-17.9629 490.535C-14.7773 588.805 -73.647 621.202 -20.9787 715.034C31.6895 808.866 121.794 751.066 141.258 618.637C160.721 486.209 165.199 428.414 186.259 412.328C207.319 396.241 252.589 340.599 245.617 268.514C238.645 196.429 225.471 160.139 180.832 183.789C136.192 207.438 115.153 247.997 101.382 280.509C87.6108 313.021 16.0256 236.068 -11.9404 306.602C-39.9063 377.135 -21.1486 392.264 -17.9629 490.535Z" stroke="url(#paint38_linear_44_951)" stroke-opacity="0.2" stroke-width="1.25714"/>
<path opacity="0.442857" fill-rule="evenodd" clip-rule="evenodd" d="M-17.9784 485.923C-15.5769 584.25 -74.6468 614.373 -22.7755 710.159C29.0959 805.945 119.573 751.632 140.069 620.036C160.566 488.439 165.499 430.854 186.667 415.584C207.834 400.314 253.502 346.441 247.11 274.137C240.718 201.833 227.845 165.063 183.061 186.988C138.277 208.913 116.936 248.64 102.919 280.604C88.9034 312.567 17.9994 232.925 -10.4999 302.342C-38.9992 371.758 -20.38 387.596 -17.9784 485.923Z" stroke="url(#paint39_linear_44_951)" stroke-opacity="0.2" stroke-width="1.25714"/>
<path opacity="0.428571" fill-rule="evenodd" clip-rule="evenodd" d="M-17.9567 481.313C-16.3392 579.668 -75.591 607.511 -24.5317 705.219C26.5276 802.926 117.348 752.11 138.871 621.385C160.394 490.659 165.78 433.301 187.048 418.851C208.316 404.401 254.368 352.311 248.557 279.81C242.746 207.308 230.178 170.07 185.263 190.267C140.349 210.464 118.712 249.349 104.456 280.755C90.1992 312.161 19.9974 229.858 -9.02605 298.139C-38.0495 366.419 -19.5742 382.959 -17.9567 481.313Z" stroke="url(#paint40_linear_44_951)" stroke-opacity="0.2" stroke-width="1.25714"/>
<path opacity="0.414286" fill-rule="evenodd" clip-rule="evenodd" d="M-17.8988 476.711C-17.065 575.063 -76.4804 600.621 -26.2479 700.218C23.9846 799.815 115.12 752.506 137.662 622.69C160.203 492.873 166.041 435.758 187.403 422.131C208.765 408.504 255.187 358.21 249.958 285.534C244.729 212.858 232.469 175.164 187.438 193.63C142.406 212.096 120.482 250.127 105.989 280.967C91.4968 311.807 22.018 226.873 -7.52014 293.999C-37.0582 361.124 -18.7326 378.359 -17.8988 476.711Z" stroke="url(#paint41_linear_44_951)" stroke-opacity="0.2" stroke-width="1.25714"/>
<path opacity="0.4" fill-rule="evenodd" clip-rule="evenodd" d="M-17.8041 472.114C-17.7535 570.434 -77.3142 593.703 -27.9231 695.155C21.4681 796.607 112.891 752.814 136.443 623.945C159.995 495.076 166.282 438.222 187.731 425.421C209.181 412.619 255.957 364.133 251.312 291.305C246.666 218.477 234.718 180.339 189.584 197.07C144.449 213.802 122.244 250.97 107.52 281.236C92.7965 311.501 24.0611 223.967 -5.9821 289.919C-36.0253 355.871 -17.8547 373.795 -17.8041 472.114Z" stroke="url(#paint42_linear_44_951)" stroke-opacity="0.2" stroke-width="1.25714"/>
<path opacity="0.385714" fill-rule="evenodd" clip-rule="evenodd" d="M-17.6724 467.526C-18.4042 565.783 -78.0919 586.76 -29.5563 690.034C18.9793 793.307 110.662 753.038 135.216 625.154C159.771 497.27 166.503 440.693 188.034 428.72C209.564 416.747 256.681 370.081 252.619 297.123C248.557 224.165 236.925 185.595 191.701 200.591C146.478 215.586 123.998 251.881 109.048 281.564C94.0981 311.247 26.1265 221.142 -4.41215 285.902C-34.9508 350.663 -16.9405 369.27 -17.6724 467.526Z" stroke="url(#paint43_linear_44_951)" stroke-opacity="0.2" stroke-width="1.25714"/>
<path opacity="0.371429" fill-rule="evenodd" clip-rule="evenodd" d="M-17.5043 462.948C-19.0175 561.112 -78.8138 579.795 -31.1478 684.855C16.5182 789.915 108.431 753.176 133.98 626.314C159.528 499.452 166.704 443.17 188.309 432.028C209.914 420.886 257.356 376.051 253.879 302.985C250.402 229.92 239.088 190.931 193.789 204.188C148.491 217.446 125.744 252.858 110.572 281.95C95.4008 311.042 28.2129 218.399 -2.81133 281.95C-33.8356 345.501 -15.9911 364.784 -17.5043 462.948Z" stroke="url(#paint44_linear_44_951)" stroke-opacity="0.2" stroke-width="1.25714"/>
<path opacity="0.357143" fill-rule="evenodd" clip-rule="evenodd" d="M-17.2993 458.381C-19.5927 556.423 -79.4792 572.809 -32.6964 679.621C14.0864 786.433 106.202 753.229 132.736 627.427C159.269 501.624 166.887 445.653 188.559 435.344C210.231 425.034 257.984 382.041 255.092 308.891C252.2 235.741 241.207 196.345 195.848 207.863C150.488 219.382 127.482 253.901 112.093 282.395C96.7047 310.888 30.3204 215.739 -1.17955 278.063C-32.6795 340.387 -15.006 360.339 -17.2993 458.381Z" stroke="url(#paint45_linear_44_951)" stroke-opacity="0.2" stroke-width="1.25714"/>
<path opacity="0.342857" fill-rule="evenodd" clip-rule="evenodd" d="M-17.059 453.824C-20.131 551.714 -80.0893 565.802 -34.2031 674.331C11.683 782.859 103.973 753.195 131.482 628.488C158.992 503.782 167.048 448.139 188.781 438.663C210.514 429.188 258.562 388.047 256.256 314.834C253.95 241.622 243.282 201.832 197.875 211.611C152.467 221.389 129.209 255.008 113.609 282.895C98.0082 310.782 32.4467 213.161 0.481286 274.24C-31.4842 335.32 -13.9869 355.934 -17.059 453.824Z" stroke="url(#paint46_linear_44_951)" stroke-opacity="0.2" stroke-width="1.25714"/>
<path opacity="0.328571" fill-rule="evenodd" clip-rule="evenodd" d="M-16.7823 449.284C-20.6313 546.992 -80.643 558.782 -35.6666 668.991C9.30988 779.2 101.746 753.078 130.222 629.504C158.698 505.93 167.189 450.631 188.977 441.992C210.764 433.352 259.093 394.072 257.372 320.82C255.652 247.568 245.311 207.397 199.87 215.436C154.43 223.474 130.926 256.183 115.119 283.456C99.3118 310.729 34.5924 210.669 2.17165 270.488C-30.2491 330.307 -12.9333 351.576 -16.7823 449.284Z" stroke="url(#paint47_linear_44_951)" stroke-opacity="0.2" stroke-width="1.25714"/>
<path opacity="0.314286" fill-rule="evenodd" clip-rule="evenodd" d="M-16.4689 444.756C-21.0929 542.252 -81.1398 551.744 -37.0858 663.597C6.96816 775.45 99.5215 752.873 128.955 630.467C158.388 508.061 167.312 453.123 189.147 445.321C210.982 437.519 259.576 400.109 258.441 326.839C257.306 253.57 247.295 213.031 201.835 219.33C156.375 225.629 132.634 257.419 116.625 284.071C100.616 310.722 36.7573 208.259 3.89149 266.801C-28.9743 325.344 -11.8449 347.259 -16.4689 444.756Z" stroke="url(#paint48_linear_44_951)" stroke-opacity="0.2" stroke-width="1.25714"/>
<path opacity="0.3" fill-rule="evenodd" clip-rule="evenodd" d="M-16.1204 440.246C-21.5172 537.502 -81.5809 544.697 -38.4619 658.156C4.65714 771.616 97.2998 752.585 127.68 631.383C158.061 510.181 167.413 455.619 189.289 448.655C211.165 441.691 260.01 406.16 259.46 332.896C258.91 259.632 249.233 218.737 203.767 223.298C158.301 227.858 134.33 258.721 118.124 284.745C101.918 310.768 38.9392 205.936 5.63885 263.186C-27.6615 320.436 -10.7236 342.99 -16.1204 440.246Z" stroke="url(#paint49_linear_44_951)" stroke-opacity="0.2" stroke-width="1.25714"/>
<path opacity="0.285714" fill-rule="evenodd" clip-rule="evenodd" d="M-15.7363 435.755C-21.9034 532.741 -81.9657 537.64 -39.7938 652.669C2.37805 767.698 95.0817 752.213 126.399 632.25C157.716 512.287 167.495 458.118 189.405 451.993C211.315 445.868 260.395 412.223 260.43 338.986C260.465 265.749 251.124 224.513 205.666 227.336C160.208 230.16 136.014 260.088 119.617 285.476C103.219 310.864 41.1381 203.699 7.41376 259.641C-26.3105 315.583 -9.56916 338.769 -15.7363 435.755Z" stroke="url(#paint50_linear_44_951)" stroke-opacity="0.2" stroke-width="1.25714"/>
<path opacity="0.271429" fill-rule="evenodd" clip-rule="evenodd" d="M-15.3161 431.28C-22.2509 527.966 -82.2935 530.572 -41.0806 647.133C0.132315 763.694 92.8688 751.754 125.112 633.064C157.356 514.374 167.557 460.614 189.495 455.328C211.432 450.043 260.733 418.292 261.352 345.105C261.971 271.918 252.968 230.352 207.532 231.441C162.097 232.529 137.687 261.515 121.103 286.261C104.519 311.007 43.3539 201.546 9.21635 256.166C-24.9212 310.785 -8.38122 334.593 -15.3161 431.28Z" stroke="url(#paint51_linear_44_951)" stroke-opacity="0.2" stroke-width="1.25714"/>
<path opacity="0.257143" fill-rule="evenodd" clip-rule="evenodd" d="M-14.861 426.828C-22.5607 523.186 -82.5653 523.502 -42.3229 641.556C-2.08058 759.61 90.6604 751.213 123.82 633.831C156.979 516.449 167.599 463.113 189.557 458.667C211.515 454.221 261.021 424.371 262.224 351.256C263.427 278.141 254.764 236.26 209.364 235.616C163.964 234.972 139.348 263.009 122.582 287.106C105.817 311.204 45.5849 199.484 11.0449 252.766C-23.4952 306.047 -7.16136 330.471 -14.861 426.828Z" stroke="url(#paint52_linear_44_951)" stroke-opacity="0.2" stroke-width="1.25714"/>
<path opacity="0.242857" fill-rule="evenodd" clip-rule="evenodd" d="M-14.3707 422.396C-22.8321 518.396 -82.7805 516.426 -43.52 635.934C-4.25937 755.443 88.4579 750.585 122.522 634.545C156.586 518.505 167.622 465.609 189.594 462.003C211.566 458.397 261.262 430.452 263.047 357.432C264.832 284.412 256.512 242.228 211.161 239.855C165.811 237.482 140.995 264.561 124.054 288.004C107.112 311.447 47.831 197.507 12.8994 249.437C-22.0322 301.367 -5.90937 326.396 -14.3707 422.396Z" stroke="url(#paint53_linear_44_951)" stroke-opacity="0.2" stroke-width="1.25714"/>
<path opacity="0.228571" fill-rule="evenodd" clip-rule="evenodd" d="M-13.8454 417.988C-23.0651 513.602 -82.9393 509.349 -44.6714 630.273C-6.40349 751.198 86.2621 749.875 121.219 635.21C156.177 520.544 167.624 468.105 189.603 465.338C211.583 462.571 261.453 436.538 263.82 363.634C266.186 290.731 258.211 248.259 212.924 244.16C167.637 240.061 142.629 266.177 125.517 288.959C108.405 311.74 50.0914 195.618 14.7792 246.183C-20.533 296.748 -4.62572 322.375 -13.8454 417.988Z" stroke="url(#paint54_linear_44_951)" stroke-opacity="0.2" stroke-width="1.25714"/>
<path opacity="0.214286" fill-rule="evenodd" clip-rule="evenodd" d="M-13.2857 413.606C-23.2602 508.805 -83.042 502.275 -45.7773 624.575C-8.51268 746.876 84.0731 749.083 119.912 635.825C155.751 522.568 167.607 470.599 189.587 468.671C211.567 466.743 261.596 442.627 264.543 369.862C267.49 297.098 259.861 254.351 214.651 248.53C169.441 242.709 144.249 267.855 126.971 289.97C109.694 312.085 52.3651 193.82 16.6834 243.006C-18.9983 292.193 -3.31122 318.408 -13.2857 413.606Z" stroke="url(#paint55_linear_44_951)" stroke-opacity="0.2" stroke-width="1.25714"/>
<path opacity="0.2" fill-rule="evenodd" clip-rule="evenodd" d="M-12.6915 409.248C-23.417 504.002 -83.0884 495.201 -46.8372 618.838C-10.5861 742.475 81.8918 748.204 118.601 636.387C155.31 524.571 167.569 473.088 189.543 471.998C211.517 470.908 261.691 448.712 265.216 376.109C268.741 303.506 261.462 260.497 216.342 252.959C171.223 245.421 145.854 269.591 128.417 291.034C110.98 312.476 54.6515 192.108 18.6115 239.903C-17.4284 287.698 -1.9661 314.493 -12.6915 409.248Z" stroke="url(#paint56_linear_44_951)" stroke-opacity="0.2" stroke-width="1.25714"/>
<path opacity="0.185714" fill-rule="evenodd" clip-rule="evenodd" d="M-12.0624 404.915C-23.5348 499.198 -83.0778 488.131 -47.8501 613.064C-12.6225 737.997 79.7197 747.242 117.287 636.898C154.854 526.554 167.513 475.573 189.474 475.32C211.435 475.066 261.738 454.795 265.84 382.375C269.942 309.955 263.014 266.698 217.998 257.448C172.983 248.198 147.445 271.387 129.854 292.151C112.262 312.915 56.9507 190.485 20.5638 236.876C-15.8231 283.267 -0.590043 310.633 -12.0624 404.915Z" stroke="url(#paint57_linear_44_951)" stroke-opacity="0.2" stroke-width="1.25714"/>
<path opacity="0.171429" fill-rule="evenodd" clip-rule="evenodd" d="M-11.4004 400.613C-23.6154 494.395 -83.0122 481.071 -48.8176 607.259C-14.623 733.448 77.5557 746.2 115.969 637.36C154.382 528.519 167.436 478.054 189.378 478.637C211.32 479.22 261.735 460.876 266.412 388.661C271.089 316.446 264.514 272.955 219.616 261.998C174.718 251.042 149.02 273.244 131.279 293.324C113.539 313.405 59.2602 188.954 22.5376 233.929C-14.1849 278.905 0.814657 306.831 -11.4004 400.613Z" stroke="url(#paint58_linear_44_951)" stroke-opacity="0.2" stroke-width="1.25714"/>
<path opacity="0.157143" fill-rule="evenodd" clip-rule="evenodd" d="M-10.7041 396.342C-23.6573 489.596 -82.89 474.022 -49.7377 601.425C-16.5854 728.828 75.402 745.077 114.648 637.772C153.895 530.467 167.339 480.533 189.256 481.949C211.172 483.366 261.685 466.952 266.935 394.964C272.185 322.976 265.964 279.265 221.197 266.608C176.43 253.952 150.58 275.161 132.696 294.553C114.812 313.946 61.5808 187.515 24.5342 231.063C-12.5125 274.611 2.24917 303.088 -10.7041 396.342Z" stroke="url(#paint59_linear_44_951)" stroke-opacity="0.2" stroke-width="1.25714"/>
<path opacity="0.142857" fill-rule="evenodd" clip-rule="evenodd" d="M-9.97452 392.1C-23.6613 484.797 -82.7121 466.982 -50.6111 595.558C-18.51 724.134 73.2585 743.87 113.325 638.13C153.392 532.391 167.223 483.002 189.107 485.251C210.991 487.5 261.587 473.018 267.408 401.279C273.228 329.54 267.363 285.622 222.74 271.272C178.118 256.922 152.123 277.134 134.101 295.833C116.079 314.532 63.9111 186.164 26.5519 228.273C-10.8074 270.383 3.71222 299.402 -9.97452 392.1Z" stroke="url(#paint60_linear_44_951)" stroke-opacity="0.2" stroke-width="1.25714"/>
<path opacity="0.128571" fill-rule="evenodd" clip-rule="evenodd" d="M-9.21197 387.891C-23.6273 480.004 -82.4787 459.956 -51.4375 589.664C-20.3963 719.372 71.1259 742.582 112 638.439C152.875 534.295 167.088 485.466 188.932 488.545C210.777 491.624 261.44 479.076 267.829 407.607C274.219 336.139 268.71 292.028 224.246 275.992C179.781 259.956 153.649 279.165 135.495 297.166C117.341 315.168 66.2504 184.905 28.5902 225.566C-9.07 266.226 5.20336 295.777 -9.21197 387.891Z" stroke="url(#paint61_linear_44_951)" stroke-opacity="0.2" stroke-width="1.25714"/>
<path opacity="0.114286" fill-rule="evenodd" clip-rule="evenodd" d="M-8.41619 383.714C-23.555 475.216 -82.1893 452.946 -52.2162 583.744C-22.243 714.542 69.0054 741.214 110.674 638.695C152.343 536.177 166.933 487.921 188.732 491.829C210.531 495.736 261.246 485.121 268.201 413.945C275.156 342.768 270.006 298.479 225.713 280.764C181.419 263.049 155.158 281.253 136.878 298.552C118.597 315.851 68.5984 183.736 30.6489 222.938C-7.3005 262.139 6.72259 292.212 -8.41619 383.714Z" stroke="url(#paint62_linear_44_951)" stroke-opacity="0.2" stroke-width="1.25714"/>
<path opacity="0.1" fill-rule="evenodd" clip-rule="evenodd" d="M-7.58791 379.572C-23.4448 470.436 -81.8446 445.953 -52.9475 577.799C-24.0503 709.645 66.8971 739.764 109.347 638.9C151.796 538.036 166.759 490.368 188.506 495.101C210.252 499.834 261.004 491.153 268.522 420.29C276.041 349.427 271.25 304.973 227.141 285.588C183.032 266.203 156.65 283.396 138.249 299.988C119.847 316.581 70.954 182.659 32.727 220.392C-5.49989 258.124 8.26898 288.709 -7.58791 379.572Z" stroke="url(#paint63_linear_44_951)" stroke-opacity="0.2" stroke-width="1.25714"/>
<path opacity="0.0857143" fill-rule="evenodd" clip-rule="evenodd" d="M-6.72786 375.467C-23.2973 465.665 -81.4452 438.982 -53.6316 571.833C-25.818 704.684 64.8013 738.236 108.018 639.055C151.235 539.873 166.565 492.807 188.253 498.363C209.941 503.918 260.713 497.171 268.792 426.643C276.871 356.115 272.441 311.51 228.529 290.463C184.618 269.417 158.124 285.596 139.607 301.478C121.09 317.36 73.316 181.675 34.8234 217.929C-3.66919 254.183 9.84157 285.27 -6.72786 375.467Z" stroke="url(#paint64_linear_44_951)" stroke-opacity="0.2" stroke-width="1.25714"/>
<path opacity="0.0714286" fill-rule="evenodd" clip-rule="evenodd" d="M-5.83538 371.398C-23.1116 460.903 -80.9904 432.031 -54.2675 565.845C-27.5446 699.658 62.7196 736.628 106.69 639.157C150.66 541.686 166.352 495.236 187.975 501.611C209.598 507.985 260.376 503.171 269.012 432.999C277.648 362.828 273.58 318.086 229.878 295.387C186.177 272.687 159.579 287.849 140.953 303.017C122.326 318.185 75.6846 180.781 36.9383 215.548C-1.80805 250.315 11.4408 281.893 -5.83538 371.398Z" stroke="url(#paint65_linear_44_951)" stroke-opacity="0.2" stroke-width="1.25714"/>
<path opacity="0.0571429" fill-rule="evenodd" clip-rule="evenodd" d="M-4.91152 367.368C-22.8885 456.154 -80.481 425.105 -54.8557 559.839C-29.2304 694.572 60.6518 734.942 105.361 639.209C150.07 543.476 166.12 497.654 187.672 504.845C209.223 512.036 259.991 509.152 269.181 439.359C278.372 369.565 274.665 324.7 231.187 300.358C187.71 276.016 161.015 290.157 142.285 304.607C123.555 319.057 78.0585 179.98 39.0703 213.252C0.0821985 246.524 13.0655 278.582 -4.91152 367.368Z" stroke="url(#paint66_linear_44_951)" stroke-opacity="0.2" stroke-width="1.25714"/>
<path opacity="0.0428571" fill-rule="evenodd" clip-rule="evenodd" d="M-3.95626 363.376C-22.6278 451.417 -79.917 418.204 -55.3958 553.814C-30.8746 689.424 58.5991 733.177 104.033 639.209C149.468 545.241 165.87 500.06 187.343 508.064C208.816 516.068 259.56 515.113 269.3 445.717C279.041 376.322 275.698 331.348 232.457 305.374C189.215 279.399 162.432 292.517 143.604 306.246C124.776 319.975 80.4371 179.27 41.2192 211.039C2.00127 242.807 14.7153 275.336 -3.95626 363.376Z" stroke="url(#paint67_linear_44_951)" stroke-opacity="0.2" stroke-width="1.25714"/>
<path opacity="0.0285714" fill-rule="evenodd" clip-rule="evenodd" d="M-2.97045 359.428C-22.3257 446.675 -79.2937 411.309 -55.8779 547.728C-32.4621 684.148 56.5747 731.272 102.714 639.124C148.853 546.975 165.599 502.462 186.987 511.278C208.375 520.093 259.076 521.074 269.361 452.115C279.646 383.155 276.664 338.096 233.672 310.496C190.681 282.896 163.82 294.981 144.9 307.979C125.981 320.977 82.808 178.712 43.3753 208.955C3.94261 239.199 16.3848 272.182 -2.97045 359.428Z" stroke="url(#paint68_linear_44_951)" stroke-opacity="0.2" stroke-width="1.25714"/>
<path opacity="0.0142857" fill-rule="evenodd" clip-rule="evenodd" d="M-1.97993 355.489C-22.0236 441.97 -78.6693 404.46 -56.3659 541.714C-34.0625 678.968 54.536 729.445 101.385 639.078C148.234 548.712 165.327 504.85 186.63 514.471C207.933 524.093 258.592 526.993 269.424 458.449C280.257 389.905 277.639 344.75 234.898 315.533C192.157 286.316 165.217 297.379 146.206 309.656C127.194 321.933 85.194 178.088 45.5445 206.827C5.89508 235.566 18.0638 269.008 -1.97993 355.489Z" stroke="url(#paint69_linear_44_951)" stroke-opacity="0.2" stroke-width="1.25714"/>
</g>
<defs>
<linearGradient id="paint0_linear_44_951" x1="77.3326" y1="913.531" x2="-221.645" y2="772.206" gradientUnits="userSpaceOnUse">
<stop stop-color="#9EE1EC"/>
<stop offset="1" stop-color="#E5A7E0"/>
</linearGradient>
<linearGradient id="paint1_linear_44_951" x1="73.8832" y1="912.223" x2="-226.521" y2="765.172" gradientUnits="userSpaceOnUse">
<stop stop-color="#9EE1EC"/>
<stop offset="1" stop-color="#E5A7E0"/>
</linearGradient>
<linearGradient id="paint2_linear_44_951" x1="70.4469" y1="910.786" x2="-231.348" y2="757.785" gradientUnits="userSpaceOnUse">
<stop stop-color="#9EE1EC"/>
<stop offset="1" stop-color="#E5A7E0"/>
</linearGradient>
<linearGradient id="paint3_linear_44_951" x1="67.0249" y1="909.219" x2="-236.114" y2="750.036" gradientUnits="userSpaceOnUse">
<stop stop-color="#9EE1EC"/>
<stop offset="1" stop-color="#E5A7E0"/>
</linearGradient>
<linearGradient id="paint4_linear_44_951" x1="63.6181" y1="907.523" x2="-240.807" y2="741.914" gradientUnits="userSpaceOnUse">
<stop stop-color="#9EE1EC"/>
<stop offset="1" stop-color="#E5A7E0"/>
</linearGradient>
<linearGradient id="paint5_linear_44_951" x1="60.2274" y1="905.7" x2="-245.413" y2="733.411" gradientUnits="userSpaceOnUse">
<stop stop-color="#9EE1EC"/>
<stop offset="1" stop-color="#E5A7E0"/>
</linearGradient>
<linearGradient id="paint6_linear_44_951" x1="56.8542" y1="903.75" x2="-249.918" y2="724.515" gradientUnits="userSpaceOnUse">
<stop stop-color="#9EE1EC"/>
<stop offset="1" stop-color="#E5A7E0"/>
</linearGradient>
<linearGradient id="paint7_linear_44_951" x1="53.4991" y1="901.673" x2="-254.304" y2="715.217" gradientUnits="userSpaceOnUse">
<stop stop-color="#9EE1EC"/>
<stop offset="1" stop-color="#E5A7E0"/>
</linearGradient>
<linearGradient id="paint8_linear_44_951" x1="50.1633" y1="899.471" x2="-258.554" y2="705.509" gradientUnits="userSpaceOnUse">
<stop stop-color="#9EE1EC"/>
<stop offset="1" stop-color="#E5A7E0"/>
</linearGradient>
<linearGradient id="paint9_linear_44_951" x1="46.8479" y1="897.144" x2="-262.647" y2="695.38" gradientUnits="userSpaceOnUse">
<stop stop-color="#9EE1EC"/>
<stop offset="1" stop-color="#E5A7E0"/>
</linearGradient>
<linearGradient id="paint10_linear_44_951" x1="43.5533" y1="894.694" x2="-266.563" y2="684.822" gradientUnits="userSpaceOnUse">
<stop stop-color="#9EE1EC"/>
<stop offset="1" stop-color="#E5A7E0"/>
</linearGradient>
<linearGradient id="paint11_linear_44_951" x1="40.2813" y1="892.122" x2="-270.277" y2="673.827" gradientUnits="userSpaceOnUse">
<stop stop-color="#9EE1EC"/>
<stop offset="1" stop-color="#E5A7E0"/>
</linearGradient>
<linearGradient id="paint12_linear_44_951" x1="37.0317" y1="889.424" x2="-273.764" y2="662.384" gradientUnits="userSpaceOnUse">
<stop stop-color="#9EE1EC"/>
<stop offset="1" stop-color="#E5A7E0"/>
</linearGradient>
<linearGradient id="paint13_linear_44_951" x1="33.8071" y1="886.609" x2="-276.994" y2="650.492" gradientUnits="userSpaceOnUse">
<stop stop-color="#9EE1EC"/>
<stop offset="1" stop-color="#E5A7E0"/>
</linearGradient>
<linearGradient id="paint14_linear_44_951" x1="30.6067" y1="883.672" x2="-279.94" y2="638.142" gradientUnits="userSpaceOnUse">
<stop stop-color="#9EE1EC"/>
<stop offset="1" stop-color="#E5A7E0"/>
</linearGradient>
<linearGradient id="paint15_linear_44_951" x1="27.4324" y1="880.617" x2="-282.566" y2="625.332" gradientUnits="userSpaceOnUse">
<stop stop-color="#9EE1EC"/>
<stop offset="1" stop-color="#E5A7E0"/>
</linearGradient>
<linearGradient id="paint16_linear_44_951" x1="24.2853" y1="877.444" x2="-284.837" y2="612.061" gradientUnits="userSpaceOnUse">
<stop stop-color="#9EE1EC"/>
<stop offset="1" stop-color="#E5A7E0"/>
</linearGradient>
<linearGradient id="paint17_linear_44_951" x1="21.1656" y1="874.154" x2="-286.715" y2="598.329" gradientUnits="userSpaceOnUse">
<stop stop-color="#9EE1EC"/>
<stop offset="1" stop-color="#E5A7E0"/>
</linearGradient>
<linearGradient id="paint18_linear_44_951" x1="18.0747" y1="870.75" x2="-288.16" y2="584.14" gradientUnits="userSpaceOnUse">
<stop stop-color="#9EE1EC"/>
<stop offset="1" stop-color="#E5A7E0"/>
</linearGradient>
<linearGradient id="paint19_linear_44_951" x1="15.0131" y1="867.23" x2="-289.129" y2="569.501" gradientUnits="userSpaceOnUse">
<stop stop-color="#9EE1EC"/>
<stop offset="1" stop-color="#E5A7E0"/>
</linearGradient>
<linearGradient id="paint20_linear_44_951" x1="11.9824" y1="863.597" x2="-289.574" y2="554.423" gradientUnits="userSpaceOnUse">
<stop stop-color="#9EE1EC"/>
<stop offset="1" stop-color="#E5A7E0"/>
</linearGradient>
<linearGradient id="paint21_linear_44_951" x1="8.98254" y1="859.852" x2="-289.449" y2="538.922" gradientUnits="userSpaceOnUse">
<stop stop-color="#9EE1EC"/>
<stop offset="1" stop-color="#E5A7E0"/>
</linearGradient>
<linearGradient id="paint22_linear_44_951" x1="6.01477" y1="855.997" x2="-288.704" y2="523.019" gradientUnits="userSpaceOnUse">
<stop stop-color="#9EE1EC"/>
<stop offset="1" stop-color="#E5A7E0"/>
</linearGradient>
<linearGradient id="paint23_linear_44_951" x1="3.08044" y1="852.031" x2="-287.286" y2="506.739" gradientUnits="userSpaceOnUse">
<stop stop-color="#9EE1EC"/>
<stop offset="1" stop-color="#E5A7E0"/>
</linearGradient>
<linearGradient id="paint24_linear_44_951" x1="0.179657" y1="847.96" x2="-285.144" y2="490.119" gradientUnits="userSpaceOnUse">
<stop stop-color="#9EE1EC"/>
<stop offset="1" stop-color="#E5A7E0"/>
</linearGradient>
<linearGradient id="paint25_linear_44_951" x1="-2.68671" y1="843.78" x2="-282.225" y2="473.195" gradientUnits="userSpaceOnUse">
<stop stop-color="#9EE1EC"/>
<stop offset="1" stop-color="#E5A7E0"/>
</linearGradient>
<linearGradient id="paint26_linear_44_951" x1="-5.51733" y1="839.496" x2="-278.477" y2="456.018" gradientUnits="userSpaceOnUse">
<stop stop-color="#9EE1EC"/>
<stop offset="1" stop-color="#E5A7E0"/>
</linearGradient>
<linearGradient id="paint27_linear_44_951" x1="-8.31183" y1="835.109" x2="-273.85" y2="438.644" gradientUnits="userSpaceOnUse">
<stop stop-color="#9EE1EC"/>
<stop offset="1" stop-color="#E5A7E0"/>
</linearGradient>
<linearGradient id="paint28_linear_44_951" x1="-11.0691" y1="830.617" x2="-268.295" y2="421.134" gradientUnits="userSpaceOnUse">
<stop stop-color="#9EE1EC"/>
<stop offset="1" stop-color="#E5A7E0"/>
</linearGradient>
<linearGradient id="paint29_linear_44_951" x1="-13.7886" y1="826.026" x2="-261.77" y2="403.568" gradientUnits="userSpaceOnUse">
<stop stop-color="#9EE1EC"/>
<stop offset="1" stop-color="#E5A7E0"/>
</linearGradient>
<linearGradient id="paint30_linear_44_951" x1="-16.4693" y1="821.336" x2="-254.238" y2="386.024" gradientUnits="userSpaceOnUse">
<stop stop-color="#9EE1EC"/>
<stop offset="1" stop-color="#E5A7E0"/>
</linearGradient>
<linearGradient id="paint31_linear_44_951" x1="-19.1111" y1="816.548" x2="-245.668" y2="368.597" gradientUnits="userSpaceOnUse">
<stop stop-color="#9EE1EC"/>
<stop offset="1" stop-color="#E5A7E0"/>
</linearGradient>
<linearGradient id="paint32_linear_44_951" x1="-21.7127" y1="811.664" x2="-236.041" y2="351.383" gradientUnits="userSpaceOnUse">
<stop stop-color="#9EE1EC"/>
<stop offset="1" stop-color="#E5A7E0"/>
</linearGradient>
<linearGradient id="paint33_linear_44_951" x1="-24.2733" y1="806.686" x2="-225.347" y2="334.492" gradientUnits="userSpaceOnUse">
<stop stop-color="#9EE1EC"/>
<stop offset="1" stop-color="#E5A7E0"/>
</linearGradient>
<linearGradient id="paint34_linear_44_951" x1="-26.7924" y1="801.615" x2="-213.589" y2="318.034" gradientUnits="userSpaceOnUse">
<stop stop-color="#9EE1EC"/>
<stop offset="1" stop-color="#E5A7E0"/>
</linearGradient>
<linearGradient id="paint35_linear_44_951" x1="-29.2697" y1="796.453" x2="-200.787" y2="302.128" gradientUnits="userSpaceOnUse">
<stop stop-color="#9EE1EC"/>
<stop offset="1" stop-color="#E5A7E0"/>
</linearGradient>
<linearGradient id="paint36_linear_44_951" x1="-31.7032" y1="791.201" x2="-186.972" y2="286.889" gradientUnits="userSpaceOnUse">
<stop stop-color="#9EE1EC"/>
<stop offset="1" stop-color="#E5A7E0"/>
</linearGradient>
<linearGradient id="paint37_linear_44_951" x1="-34.094" y1="785.861" x2="-172.197" y2="272.436" gradientUnits="userSpaceOnUse">
<stop stop-color="#9EE1EC"/>
<stop offset="1" stop-color="#E5A7E0"/>
</linearGradient>
<linearGradient id="paint38_linear_44_951" x1="-36.4398" y1="780.435" x2="-156.528" y2="258.883" gradientUnits="userSpaceOnUse">
<stop stop-color="#9EE1EC"/>
<stop offset="1" stop-color="#E5A7E0"/>
</linearGradient>
<linearGradient id="paint39_linear_44_951" x1="-38.7413" y1="774.925" x2="-140.051" y2="246.338" gradientUnits="userSpaceOnUse">
<stop stop-color="#9EE1EC"/>
<stop offset="1" stop-color="#E5A7E0"/>
</linearGradient>
<linearGradient id="paint40_linear_44_951" x1="-40.9969" y1="769.331" x2="-122.866" y2="234.896" gradientUnits="userSpaceOnUse">
<stop stop-color="#9EE1EC"/>
<stop offset="1" stop-color="#E5A7E0"/>
</linearGradient>
<linearGradient id="paint41_linear_44_951" x1="-43.2069" y1="763.658" x2="-105.091" y2="224.646" gradientUnits="userSpaceOnUse">
<stop stop-color="#9EE1EC"/>
<stop offset="1" stop-color="#E5A7E0"/>
</linearGradient>
<linearGradient id="paint42_linear_44_951" x1="-45.3701" y1="757.905" x2="-86.8528" y2="215.652" gradientUnits="userSpaceOnUse">
<stop stop-color="#9EE1EC"/>
<stop offset="1" stop-color="#E5A7E0"/>
</linearGradient>
<linearGradient id="paint43_linear_44_951" x1="-47.4856" y1="752.076" x2="-68.2915" y2="207.969" gradientUnits="userSpaceOnUse">
<stop stop-color="#9EE1EC"/>
<stop offset="1" stop-color="#E5A7E0"/>
</linearGradient>
<linearGradient id="paint44_linear_44_951" x1="-49.5534" y1="746.171" x2="-49.5534" y2="201.627" gradientUnits="userSpaceOnUse">
<stop stop-color="#9EE1EC"/>
<stop offset="1" stop-color="#E5A7E0"/>
</linearGradient>
<linearGradient id="paint45_linear_44_951" x1="-51.5722" y1="740.193" x2="-30.7872" y2="196.636" gradientUnits="userSpaceOnUse">
<stop stop-color="#9EE1EC"/>
<stop offset="1" stop-color="#E5A7E0"/>
</linearGradient>
<linearGradient id="paint46_linear_44_951" x1="-53.543" y1="734.142" x2="-12.1438" y2="192.984" gradientUnits="userSpaceOnUse">
<stop stop-color="#9EE1EC"/>
<stop offset="1" stop-color="#E5A7E0"/>
</linearGradient>
<linearGradient id="paint47_linear_44_951" x1="-55.464" y1="728.025" x2="6.23266" y2="190.643" gradientUnits="userSpaceOnUse">
<stop stop-color="#9EE1EC"/>
<stop offset="1" stop-color="#E5A7E0"/>
</linearGradient>
<linearGradient id="paint48_linear_44_951" x1="-57.3344" y1="721.837" x2="24.2049" y2="189.556" gradientUnits="userSpaceOnUse">
<stop stop-color="#9EE1EC"/>
<stop offset="1" stop-color="#E5A7E0"/>
</linearGradient>
<linearGradient id="paint49_linear_44_951" x1="-59.1549" y1="715.585" x2="41.6445" y2="189.66" gradientUnits="userSpaceOnUse">
<stop stop-color="#9EE1EC"/>
<stop offset="1" stop-color="#E5A7E0"/>
</linearGradient>
<linearGradient id="paint50_linear_44_951" x1="-60.9246" y1="709.271" x2="58.4381" y2="190.869" gradientUnits="userSpaceOnUse">
<stop stop-color="#9EE1EC"/>
<stop offset="1" stop-color="#E5A7E0"/>
</linearGradient>
<linearGradient id="paint51_linear_44_951" x1="-62.6422" y1="702.891" x2="74.4881" y2="193.082" gradientUnits="userSpaceOnUse">
<stop stop-color="#9EE1EC"/>
<stop offset="1" stop-color="#E5A7E0"/>
</linearGradient>
<linearGradient id="paint52_linear_44_951" x1="-64.3084" y1="696.455" x2="89.7112" y2="196.201" gradientUnits="userSpaceOnUse">
<stop stop-color="#9EE1EC"/>
<stop offset="1" stop-color="#E5A7E0"/>
</linearGradient>
<linearGradient id="paint53_linear_44_951" x1="-65.9222" y1="689.96" x2="104.043" y2="200.106" gradientUnits="userSpaceOnUse">
<stop stop-color="#9EE1EC"/>
<stop offset="1" stop-color="#E5A7E0"/>
</linearGradient>
<linearGradient id="paint54_linear_44_951" x1="-67.4832" y1="683.409" x2="117.437" y2="204.687" gradientUnits="userSpaceOnUse">
<stop stop-color="#9EE1EC"/>
<stop offset="1" stop-color="#E5A7E0"/>
</linearGradient>
<linearGradient id="paint55_linear_44_951" x1="-68.9913" y1="676.807" x2="129.861" y2="209.829" gradientUnits="userSpaceOnUse">
<stop stop-color="#9EE1EC"/>
<stop offset="1" stop-color="#E5A7E0"/>
</linearGradient>
<linearGradient id="paint56_linear_44_951" x1="-70.446" y1="670.15" x2="141.301" y2="215.413" gradientUnits="userSpaceOnUse">
<stop stop-color="#9EE1EC"/>
<stop offset="1" stop-color="#E5A7E0"/>
</linearGradient>
<linearGradient id="paint57_linear_44_951" x1="-71.8461" y1="663.444" x2="151.757" y2="221.334" gradientUnits="userSpaceOnUse">
<stop stop-color="#9EE1EC"/>
<stop offset="1" stop-color="#E5A7E0"/>
</linearGradient>
<linearGradient id="paint58_linear_44_951" x1="-73.193" y1="656.692" x2="161.238" y2="227.491" gradientUnits="userSpaceOnUse">
<stop stop-color="#9EE1EC"/>
<stop offset="1" stop-color="#E5A7E0"/>
</linearGradient>
<linearGradient id="paint59_linear_44_951" x1="-74.4849" y1="649.896" x2="169.769" y2="233.788" gradientUnits="userSpaceOnUse">
<stop stop-color="#9EE1EC"/>
<stop offset="1" stop-color="#E5A7E0"/>
</linearGradient>
<linearGradient id="paint60_linear_44_951" x1="-75.7221" y1="643.056" x2="177.381" y2="240.135" gradientUnits="userSpaceOnUse">
<stop stop-color="#9EE1EC"/>
<stop offset="1" stop-color="#E5A7E0"/>
</linearGradient>
<linearGradient id="paint61_linear_44_951" x1="-76.9044" y1="636.175" x2="184.114" y2="246.458" gradientUnits="userSpaceOnUse">
<stop stop-color="#9EE1EC"/>
<stop offset="1" stop-color="#E5A7E0"/>
</linearGradient>
<linearGradient id="paint62_linear_44_951" x1="-78.0309" y1="629.254" x2="190.012" y2="252.684" gradientUnits="userSpaceOnUse">
<stop stop-color="#9EE1EC"/>
<stop offset="1" stop-color="#E5A7E0"/>
</linearGradient>
<linearGradient id="paint63_linear_44_951" x1="-79.1018" y1="622.297" x2="195.125" y2="258.755" gradientUnits="userSpaceOnUse">
<stop stop-color="#9EE1EC"/>
<stop offset="1" stop-color="#E5A7E0"/>
</linearGradient>
<linearGradient id="paint64_linear_44_951" x1="-80.1173" y1="615.306" x2="199.502" y2="264.62" gradientUnits="userSpaceOnUse">
<stop stop-color="#9EE1EC"/>
<stop offset="1" stop-color="#E5A7E0"/>
</linearGradient>
<linearGradient id="paint65_linear_44_951" x1="-81.0762" y1="608.282" x2="203.198" y2="270.235" gradientUnits="userSpaceOnUse">
<stop stop-color="#9EE1EC"/>
<stop offset="1" stop-color="#E5A7E0"/>
</linearGradient>
<linearGradient id="paint66_linear_44_951" x1="-81.979" y1="601.229" x2="206.264" y2="275.566" gradientUnits="userSpaceOnUse">
<stop stop-color="#9EE1EC"/>
<stop offset="1" stop-color="#E5A7E0"/>
</linearGradient>
<linearGradient id="paint67_linear_44_951" x1="-82.8252" y1="594.146" x2="208.755" y2="280.583" gradientUnits="userSpaceOnUse">
<stop stop-color="#9EE1EC"/>
<stop offset="1" stop-color="#E5A7E0"/>
</linearGradient>
<linearGradient id="paint68_linear_44_951" x1="-83.602" y1="586.976" x2="210.66" y2="285.281" gradientUnits="userSpaceOnUse">
<stop stop-color="#9EE1EC"/>
<stop offset="1" stop-color="#E5A7E0"/>
</linearGradient>
<linearGradient id="paint69_linear_44_951" x1="-84.3869" y1="579.897" x2="212.205" y2="289.56" gradientUnits="userSpaceOnUse">
<stop stop-color="#9EE1EC"/>
<stop offset="1" stop-color="#E5A7E0"/>
</linearGradient>
</defs>
</svg>
